<?xml version="1.0" encoding="utf-8"?>
<!-- Generator: Adobe Illustrator 16.0.0, SVG Export Plug-In . SVG Version: 6.00 Build 0)  -->
<!DOCTYPE svg PUBLIC "-//W3C//DTD SVG 1.1//EN" "http://www.w3.org/Graphics/SVG/1.1/DTD/svg11.dtd">
<svg version="1.1" xmlns="http://www.w3.org/2000/svg" xmlns:xlink="http://www.w3.org/1999/xlink" x="0px" y="0px"
	 width="61.539px" height="30px" viewBox="0 0 61.539 30" enable-background="new 0 0 61.539 30" xml:space="preserve">
<g id="Layer_1">
	<g>
		<path fill="#231F20" d="M48.229,11.812V10.91c0-0.156-0.139-0.26-0.277-0.26h-4.527c-0.137,0-0.26,0.104-0.26,0.277v0.677
			c0,0.156,0.123,0.277,0.26,0.277h3.209l-1.908,2.306l0.174,0.659c0.053,0.156,0.156,0.191,0.33,0.191h0.348
			c0.936,0,1.854,0.624,1.854,1.821c0,1.005-0.746,1.89-1.854,1.89c-0.643,0-1.268-0.312-1.752-0.867
			c-0.139-0.174-0.312-0.174-0.469-0.035l-0.363,0.295c-0.156,0.121-0.156,0.312-0.035,0.469c0.676,0.936,1.699,1.387,2.688,1.387
			c1.578,0,3.104-1.11,3.104-3.173c0-1.543-1.109-2.653-2.445-2.861L48.229,11.812z M38.062,18.453v-7.352
			c0-0.451-0.4-0.729-0.867-0.573l-2.256,0.815c-0.156,0.052-0.225,0.191-0.172,0.347l0.242,0.763
			c0.033,0.139,0.174,0.208,0.328,0.156l1.389-0.52v6.364h-1.943c-0.137,0-0.26,0.104-0.26,0.26v0.746c0,0.138,0.123,0.26,0.26,0.26
			h5.064c0.139,0,0.26-0.122,0.26-0.26v-0.746c0-0.156-0.121-0.26-0.26-0.26H38.062z M29.313,18.8c-1.439,0-1.611-2.324-1.611-3.624
			c0-1.266,0.172-3.607,1.611-3.607c1.457,0,1.63,2.341,1.63,3.607C30.943,16.476,30.771,18.8,29.313,18.8 M29.313,19.996
			c2.342,0,3.018-2.636,3.018-4.82s-0.676-4.804-3.018-4.804c-2.322,0-2.999,2.619-2.999,4.804S26.991,19.996,29.313,19.996
			 M23.764,17.985c0-0.14-0.104-0.261-0.243-0.261h-0.484c-0.156,0-0.279,0.121-0.279,0.261v0.468h-3.104l2.706-2.653
			c0.901-0.867,1.524-1.733,1.524-2.879c0-1.63-1.49-2.549-2.86-2.549c-1.161,0-2.375,0.625-2.93,1.89
			c-0.069,0.157-0.052,0.347,0.12,0.451l0.399,0.226c0.191,0.104,0.364,0.069,0.468-0.104c0.399-0.659,0.989-1.231,1.942-1.231
			c0.711,0,1.457,0.485,1.457,1.352c0,0.694-0.243,1.179-1.214,2.185l-3.139,3.277v1.041c0,0.138,0.121,0.26,0.261,0.26h5.114
			c0.14,0,0.261-0.122,0.261-0.26V17.985z M10.534,14.326c0,0.693,0.623,1.248,1.403,1.248c0.33,0,0.781-0.139,1.11-0.555
			c0.052-0.052,0.052-0.139-0.018-0.19l-0.139-0.122c-0.068-0.052-0.139-0.052-0.208,0.018c-0.174,0.226-0.451,0.348-0.728,0.348
			c-0.47,0-0.867-0.33-0.867-0.746v-1.422c0-0.416,0.397-0.746,0.867-0.746c0.276,0,0.554,0.122,0.728,0.33
			c0.069,0.087,0.14,0.087,0.208,0.035l0.139-0.122c0.069-0.052,0.069-0.139,0.018-0.191c-0.329-0.433-0.78-0.554-1.11-0.554
			c-0.78,0-1.403,0.554-1.403,1.248V14.326z M9.216,13.615c0-1.509,1.214-2.722,2.722-2.722c1.509,0,2.724,1.213,2.724,2.722
			c0,1.509-1.215,2.722-2.724,2.722C10.43,16.337,9.216,15.124,9.216,13.615 M8.608,13.615c0,1.838,1.491,3.329,3.329,3.329
			s3.33-1.491,3.33-3.329c0-1.838-1.492-3.329-3.33-3.329S8.608,11.777,8.608,13.615"/>
	</g>
	<g>
		<path fill="#231F20" d="M59.663,29.001H1.841c-0.599,0-0.832-0.442-0.85-0.82V1.907c0-0.597,0.428-0.83,0.828-0.849l57.829,0
			c0.598,0,0.831,0.44,0.85,0.818l0.001,26.275c0,0.601-0.443,0.833-0.822,0.85L59.663,29.001z M2.292,27.698h56.904V2.359H2.292
			V27.698z"/>
	</g>
</g>
<g id="Layer_2">
</g>
</svg>
