<?xml version="1.0" encoding="utf-8"?>
<!-- Generator: Adobe Illustrator 16.0.0, SVG Export Plug-In . SVG Version: 6.00 Build 0)  -->
<!DOCTYPE svg PUBLIC "-//W3C//DTD SVG 1.1//EN" "http://www.w3.org/Graphics/SVG/1.1/DTD/svg11.dtd">
<svg version="1.1" id="Layer_1" xmlns="http://www.w3.org/2000/svg" xmlns:xlink="http://www.w3.org/1999/xlink" x="0px" y="0px"
	 width="90px" height="90px" viewBox="-30 -30 90 90" enable-background="new -30 -30 90 90" xml:space="preserve">
<g id="icon1">
</g>
<g id="icon2">
	<path fill="#231F20" d="M15.2,57.303c-23.327,0-42.303-18.978-42.303-42.303c0-23.325,18.976-42.303,42.303-42.303
		c23.325,0,42.3,18.978,42.3,42.303C57.5,38.325,38.525,57.303,15.2,57.303z M15.2-23.425c-21.189,0-38.43,17.235-38.43,38.425
		s17.24,38.428,38.43,38.428c21.187,0,38.427-17.238,38.427-38.428S36.387-23.425,15.2-23.425z"/>
	<rect x="-27.103" y="-27.303" fill="none" width="84.603" height="84.605"/>
	<path fill="#231F20" d="M15.2-11.616c-15.254,0-27.62,11.917-27.62,26.616c0,14.697,12.366,26.618,27.62,26.618
		C30.452,41.618,42.818,29.7,42.818,15C42.818,0.301,30.452-11.616,15.2-11.616z M22.111,19.032H11.609L0.415,3.347
		C-0.197,2.487,0,1.291,0.862,0.679C1.718,0.062,2.915,0.264,3.53,1.125l10.051,14.083h8.53c1.056,0,1.912,0.856,1.912,1.914
		C24.023,18.18,23.167,19.032,22.111,19.032z"/>
</g>
<g id="icon3">
</g>
<g id="icon4">
</g>
<g id="icon5">
</g>
</svg>
