<?xml version="1.0" encoding="utf-8"?>
<!-- Generator: Adobe Illustrator 16.0.0, SVG Export Plug-In . SVG Version: 6.00 Build 0)  -->
<!DOCTYPE svg PUBLIC "-//W3C//DTD SVG 1.1//EN" "http://www.w3.org/Graphics/SVG/1.1/DTD/svg11.dtd">
<svg version="1.1" id="Layer_1" xmlns="http://www.w3.org/2000/svg" xmlns:xlink="http://www.w3.org/1999/xlink" x="0px" y="0px"
	 width="95px" height="95px" viewBox="0 0 95 95" enable-background="new 0 0 95 95" xml:space="preserve">
<g id="icon2">
</g>
<g id="icon3">
</g>
<g id="icon4">
</g>
<g>
	<g id="icon1">
		<g>
			<path fill="#231F20" d="M37.444,62.1h22.499v1.98H37.444c-0.794,0-1.191-0.352-1.191-1.061C36.252,62.41,36.65,62.1,37.444,62.1
				 M31.906,68.219c1.42,1.332,3.175,1.994,5.266,1.994h28.057V32.722h-1.942v34.972H37.175c-1.455,0-2.627-0.42-3.525-1.258
				c-0.896-0.848-1.348-1.953-1.348-3.342v-0.135c0-1.342,0.437-2.398,1.312-3.17c0.874-0.773,2.063-1.16,3.562-1.16h22.771v-32.18
				H33.973c-1.184,0-2.177,0.412-2.982,1.229c-0.807,0.819-1.212,1.809-1.212,2.967v32.447
				C29.777,65.182,30.486,66.893,31.906,68.219"/>
		</g>
		<g>
			<path fill="#231F20" d="M47.501,90.01c-23.441,0-42.51-19.068-42.51-42.51c0-23.441,19.068-42.51,42.51-42.51
				c23.438,0,42.508,19.07,42.508,42.51S70.94,90.01,47.501,90.01z M47.501,8.887c-21.293,0-38.618,17.32-38.618,38.614
				c0,21.294,17.325,38.616,38.618,38.616c21.291,0,38.616-17.322,38.616-38.616C86.117,26.207,68.792,8.887,47.501,8.887z"/>
		</g>
	</g>
	<g id="icon5">
	</g>
</g>
</svg>
