<?xml version="1.0" encoding="utf-8"?>
<!-- Generator: Adobe Illustrator 16.0.0, SVG Export Plug-In . SVG Version: 6.00 Build 0)  -->
<!DOCTYPE svg PUBLIC "-//W3C//DTD SVG 1.1//EN" "http://www.w3.org/Graphics/SVG/1.1/DTD/svg11.dtd">
<svg version="1.1" id="Layer_1" xmlns="http://www.w3.org/2000/svg" xmlns:xlink="http://www.w3.org/1999/xlink" x="0px" y="0px"
	 width="95px" height="95px" viewBox="-32.5 -32.5 95 95" enable-background="new -32.5 -32.5 95 95" xml:space="preserve">
<g id="icon1">
</g>
<g id="icon2">
</g>
<g id="icon3">
	<g>
		<path fill="#231F20" d="M15,57.414c-23.386,0-42.414-19.027-42.414-42.414c0-23.386,19.027-42.414,42.414-42.414
			c23.387,0,42.414,19.027,42.414,42.414C57.414,38.387,38.387,57.414,15,57.414z M15-23.526C-6.245-23.526-23.529-6.245-23.529,15
			S-6.245,53.528,15,53.528S53.528,36.245,53.528,15S36.245-23.526,15-23.526z"/>
	</g>
	<g>
		<path fill="#231F20" d="M26.894,14.318c0,5.161-1.086,8.908-3.268,11.223c0.82,0,1.982,0.496,3.484,1.493
			c0.456,0.324,0.995,0.661,1.604,0.991l0.456,0.495c0.459,0.35,0.847,0.694,1.15,1.022l1.119,1.229
			c0.869,0,3.199-0.496,6.993-1.493c3.435-1.168,5.151-2.581,5.151-4.237c0-1.657-1.475-3.232-4.415-4.737
			c-2.251-1.169-4.677-1.916-7.277-2.251V15.57c2.809-2.494,4.215-5.573,4.215-9.238c0-6.312-2.545-9.469-7.635-9.469
			c-2.446,0-3.995,0.332-4.644,0.996c-0.826,0.662-1.397,2.151-1.725,4.471C25.278,4.497,26.875,8.493,26.894,14.318 M9.832,39.017
			c1.522,0.155,3.298,0.235,5.315,0.248c2.025,0.012,3.796-0.074,5.319-0.248c2.374-0.333,4.83-0.829,7.364-1.495
			c2.361-0.68,3.536-1.683,3.536-3.012c0-1.65-1.476-3.227-4.423-4.716c-2.947-1.494-5.637-2.325-8.053-2.5v-2.751
			c2.649-2.491,3.978-5.811,3.978-9.965c0-6.82-2.662-10.231-7.981-10.231c-5.322,0-7.981,3.411-7.981,10.231
			c-0.019,4.148,1.485,7.474,4.501,9.965v2.751c-2.416,0.156-5.1,0.981-8.044,2.484c-3.132,1.83-4.695,3.41-4.695,4.731
			c0,1.329,1.271,2.326,3.818,2.998C5.023,38.181,7.477,38.684,9.832,39.017 M-8.675,29.285c3.799,0.991,6.13,1.49,6.998,1.49
			l1.123-1.227c0.303-0.352,0.686-0.694,1.146-1.028l0.457-0.492l1.71-0.991c1.438-0.994,2.563-1.492,3.377-1.492
			c-2.176-2.316-3.267-6.061-3.267-11.224C2.886,8.496,4.518,4.5,7.761,2.336c-0.329-2.319-0.915-3.809-1.748-4.47
			C5.352-2.799,3.776-3.131,1.289-3.131c-5.086,0-7.631,3.157-7.631,9.469c0,3.667,1.4,6.745,4.211,9.239v2.482
			c-2.6,0.332-5.029,1.082-7.283,2.251c-2.782,1.658-4.176,3.235-4.176,4.738C-13.587,26.879-11.949,28.288-8.675,29.285"/>
	</g>
</g>
<g id="icon4">
</g>
<g id="icon5">
</g>
</svg>
