<?xml version="1.0" encoding="utf-8"?>
<!-- Generator: Adobe Illustrator 16.0.0, SVG Export Plug-In . SVG Version: 6.00 Build 0)  -->
<!DOCTYPE svg PUBLIC "-//W3C//DTD SVG 1.1//EN" "http://www.w3.org/Graphics/SVG/1.1/DTD/svg11.dtd">
<svg version="1.1" id="Layer_1" xmlns="http://www.w3.org/2000/svg" xmlns:xlink="http://www.w3.org/1999/xlink" x="0px" y="0px"
	 width="95px" height="95px" viewBox="-32.5 -32.5 95 95" enable-background="new -32.5 -32.5 95 95" xml:space="preserve">
<g id="icon1">
</g>
<g id="icon2">
</g>
<g id="icon3">
</g>
<g id="icon4">
	<g>
		<path fill="#231F20" d="M15,57.541c-23.456,0-42.54-19.084-42.54-42.54c0-23.456,19.083-42.542,42.54-42.542
			S57.539-8.455,57.539,15.001C57.539,38.457,38.456,57.541,15,57.541z M15-23.639c-21.308,0-38.643,17.332-38.643,38.64
			c0,21.309,17.335,38.644,38.643,38.644c21.308,0,38.643-17.335,38.643-38.644C53.643-6.307,36.308-23.639,15-23.639z"/>
	</g>
	<g>
		<path fill="#231F20" d="M14.984,3.223c2.356,0,4.32,0.782,5.895,2.347c1.576,1.564,2.365,3.525,2.365,5.884
			c0,2.356-0.789,4.32-2.365,5.894c-1.574,1.574-3.538,2.359-5.895,2.359c-2.356,0-4.316-0.785-5.881-2.359
			c-1.565-1.573-2.347-3.537-2.347-5.894c0-2.356,0.782-4.32,2.347-5.884C10.668,4.005,12.628,3.223,14.984,3.223 M0.847,23.493
			c1.583,2.025,3,3.59,4.254,4.688c2.039,2.05,3.772,3.694,5.187,4.946c1.565,1.267,3.13,2.685,4.694,4.252
			c0.317-0.312,1.89-1.73,4.725-4.252c2.67-2.356,4.394-4.001,5.186-4.946c1.255-1.086,2.666-2.65,4.228-4.688
			c3.151-3.939,4.726-8.03,4.726-12.263c0-5.193-1.891-9.591-5.664-13.201c-3.605-3.606-8.008-5.411-13.199-5.411
			c-5.188,0-9.592,1.804-13.199,5.411c-3.748,3.61-5.63,8.008-5.63,13.201C-3.848,15.78-2.283,19.867,0.847,23.493"/>
	</g>
</g>
<g id="icon5">
</g>
</svg>
