<?xml version="1.0" encoding="utf-8"?>
<!-- Generator: Adobe Illustrator 16.0.0, SVG Export Plug-In . SVG Version: 6.00 Build 0)  -->
<!DOCTYPE svg PUBLIC "-//W3C//DTD SVG 1.1//EN" "http://www.w3.org/Graphics/SVG/1.1/DTD/svg11.dtd">
<svg version="1.1" xmlns="http://www.w3.org/2000/svg" xmlns:xlink="http://www.w3.org/1999/xlink" x="0px" y="0px" width="30px"
	 height="30px" viewBox="0 0 30 30" enable-background="new 0 0 30 30" xml:space="preserve">
<g id="icon1">
</g>
<g id="icon2">
	<path fill="#231F20" d="M15.199,28.54c-7.466,0-13.54-6.074-13.54-13.54S7.733,1.46,15.199,1.46S28.739,7.534,28.739,15
		S22.665,28.54,15.199,28.54z M15.199,2.701c-6.782,0-12.3,5.517-12.3,12.299c0,6.782,5.518,12.3,12.3,12.3s12.3-5.518,12.3-12.3
		C27.499,8.218,21.981,2.701,15.199,2.701z"/>
	<rect x="1.659" y="1.46" fill="none" width="27.08" height="27.08"/>
	<path fill="#231F20" d="M15.199,6.481c-4.882,0-8.84,3.814-8.84,8.519c0,4.704,3.958,8.519,8.84,8.519s8.84-3.814,8.84-8.519
		C24.039,10.295,20.081,6.481,15.199,6.481z M17.411,16.291H14.05l-3.583-5.021c-0.196-0.275-0.133-0.658,0.143-0.854
		c0.274-0.197,0.657-0.133,0.854,0.143l3.217,4.508h2.73c0.338,0,0.612,0.274,0.612,0.612
		C18.023,16.017,17.749,16.291,17.411,16.291z"/>
</g>
<g id="icon3">
</g>
<g id="icon4">
</g>
<g id="icon5">
</g>
</svg>
