<?xml version="1.0" encoding="utf-8"?>
<!-- Generator: Adobe Illustrator 16.0.0, SVG Export Plug-In . SVG Version: 6.00 Build 0)  -->
<!DOCTYPE svg PUBLIC "-//W3C//DTD SVG 1.1//EN" "http://www.w3.org/Graphics/SVG/1.1/DTD/svg11.dtd">
<svg version="1.1" xmlns="http://www.w3.org/2000/svg" xmlns:xlink="http://www.w3.org/1999/xlink" x="0px" y="0px" width="30px"
	 height="30px" viewBox="0 0 30 30" enable-background="new 0 0 30 30" xml:space="preserve">
<g id="icon1">
</g>
<g id="icon2">
</g>
<g id="icon3">
	<g>
		<path fill="#231F20" d="M15,28.54C7.534,28.54,1.46,22.466,1.46,15S7.534,1.46,15,1.46S28.54,7.534,28.54,15
			S22.466,28.54,15,28.54z M15,2.701C8.218,2.701,2.7,8.218,2.7,15c0,6.782,5.518,12.3,12.3,12.3S27.3,21.782,27.3,15
			C27.3,8.218,21.782,2.701,15,2.701z"/>
	</g>
	<g>
		<path fill="#231F20" d="M18.797,14.782c0,1.648-0.347,2.844-1.043,3.583c0.262,0,0.632,0.158,1.112,0.477
			c0.146,0.104,0.317,0.211,0.512,0.316l0.146,0.158c0.146,0.112,0.27,0.222,0.366,0.327l0.358,0.392
			c0.277,0,1.022-0.158,2.233-0.476c1.096-0.373,1.644-0.824,1.644-1.353c0-0.529-0.47-1.032-1.409-1.513
			c-0.719-0.373-1.494-0.611-2.323-0.718v-0.793c0.896-0.796,1.345-1.779,1.345-2.949c0-2.015-0.812-3.023-2.437-3.023
			c-0.781,0-1.276,0.106-1.483,0.318c-0.264,0.211-0.446,0.687-0.551,1.427C18.281,11.647,18.791,12.923,18.797,14.782
			 M13.35,22.667c0.486,0.05,1.053,0.075,1.697,0.079c0.646,0.004,1.212-0.023,1.698-0.079c0.758-0.106,1.542-0.265,2.351-0.477
			c0.753-0.217,1.129-0.538,1.129-0.961c0-0.528-0.471-1.031-1.412-1.507s-1.799-0.741-2.571-0.797v-0.878
			c0.846-0.796,1.269-1.856,1.269-3.182c0-2.177-0.849-3.266-2.547-3.266c-1.699,0-2.548,1.089-2.548,3.266
			c-0.006,1.325,0.474,2.386,1.437,3.182v0.878c-0.771,0.049-1.628,0.313-2.568,0.793c-1,0.584-1.499,1.088-1.499,1.511
			s0.406,0.742,1.219,0.957C11.815,22.4,12.598,22.561,13.35,22.667 M7.442,19.56c1.213,0.317,1.957,0.476,2.234,0.476l0.358-0.392
			c0.097-0.112,0.219-0.221,0.366-0.327l0.146-0.158l0.546-0.316c0.459-0.318,0.818-0.477,1.078-0.477
			c-0.695-0.739-1.043-1.935-1.043-3.583c0.006-1.859,0.527-3.135,1.562-3.826c-0.105-0.74-0.292-1.216-0.558-1.427
			c-0.211-0.212-0.714-0.318-1.508-0.318c-1.624,0-2.436,1.008-2.436,3.023c0,1.17,0.447,2.153,1.344,2.949v0.793
			c-0.83,0.106-1.605,0.345-2.325,0.718c-0.888,0.529-1.333,1.033-1.333,1.513C5.874,18.792,6.397,19.242,7.442,19.56"/>
	</g>
</g>
<g id="icon4">
</g>
<g id="icon5">
</g>
</svg>
