<?xml version="1.0" encoding="utf-8"?>
<!-- Generator: Adobe Illustrator 16.0.0, SVG Export Plug-In . SVG Version: 6.00 Build 0)  -->
<!DOCTYPE svg PUBLIC "-//W3C//DTD SVG 1.1//EN" "http://www.w3.org/Graphics/SVG/1.1/DTD/svg11.dtd">
<svg version="1.1" xmlns="http://www.w3.org/2000/svg" xmlns:xlink="http://www.w3.org/1999/xlink" x="0px" y="0px" width="30px"
	 height="30px" viewBox="0 0 30 30" enable-background="new 0 0 30 30" xml:space="preserve">
<g id="icon1">
	<g>
		<path fill="#231F20" d="M11.996,19.65h7.166v0.631h-7.166c-0.253,0-0.38-0.112-0.38-0.338
			C11.616,19.749,11.743,19.65,11.996,19.65 M10.232,21.6c0.452,0.423,1.011,0.635,1.677,0.635h8.936V10.293h-0.619v11.139h-8.316
			c-0.463,0-0.837-0.134-1.123-0.401c-0.285-0.269-0.429-0.622-0.429-1.064v-0.043c0-0.427,0.139-0.764,0.418-1.01
			c0.278-0.246,0.657-0.369,1.134-0.369h7.253V8.295H10.89c-0.377,0-0.693,0.131-0.95,0.391C9.683,8.947,9.554,9.262,9.554,9.631
			v10.335C9.554,20.632,9.78,21.177,10.232,21.6"/>
	</g>
	<g>
		<path fill="#231F20" d="M15.199,28.54c-7.466,0-13.54-6.074-13.54-13.54S7.733,1.46,15.199,1.46S28.739,7.534,28.739,15
			S22.665,28.54,15.199,28.54z M15.199,2.701c-6.782,0-12.3,5.517-12.3,12.299c0,6.782,5.518,12.3,12.3,12.3s12.3-5.518,12.3-12.3
			C27.499,8.218,21.981,2.701,15.199,2.701z"/>
	</g>
</g>
<g id="icon2">
</g>
<g id="icon3">
</g>
<g id="icon4">
</g>
<g id="icon5">
</g>
</svg>
