<?xml version="1.0" encoding="utf-8"?>
<!-- Generator: Adobe Illustrator 16.0.0, SVG Export Plug-In . SVG Version: 6.00 Build 0)  -->
<!DOCTYPE svg PUBLIC "-//W3C//DTD SVG 1.1//EN" "http://www.w3.org/Graphics/SVG/1.1/DTD/svg11.dtd">
<svg version="1.1" id="Layer_1" xmlns="http://www.w3.org/2000/svg" xmlns:xlink="http://www.w3.org/1999/xlink" x="0px" y="0px"
	 width="64.039px" height="30px" viewBox="0 0 64.039 30" enable-background="new 0 0 64.039 30" xml:space="preserve">
<g id="Layer_1_1_">
</g>
<g id="Layer_2">
	
		<rect x="47.449" y="10.108" transform="matrix(0.8662 0.4998 -0.4998 0.8662 13.9912 -22.1961)" fill="#231F20" width="1.978" height="9.835"/>
	<g>
		<path fill="#231F20" d="M29.003,23.955c0.803-0.746,1.006-1.538,1.006-2.341V20.97c0-0.452-0.395-0.724-0.746-0.724h-2.035
			c-0.125,0-0.227,0.09-0.227,0.203v0.792c-0.012,0.112,0.091,0.202,0.215,0.202h1.596c0,0.814-0.103,1.178-0.635,1.72
			c-0.124,0.125-0.113,0.271,0,0.373l0.453,0.43C28.743,24.066,28.901,24.045,29.003,23.955 M20.794,25.708
			c0.012,0.351,0.34,0.521,0.588,0.497c3.189-0.362,3.801-2.205,3.868-4.887l0.011-0.836c0.012-0.157-0.102-0.236-0.236-0.236
			h-0.668c-0.17,0-0.237,0.079-0.237,0.236v0.836c0,2.298-0.554,3.395-2.284,3.654l-0.057-1.404c1.346-0.28,1.629-1.117,1.629-1.842
			l0.021-1.244c0-0.17-0.09-0.236-0.236-0.236H22.65c-0.158,0-0.237,0.09-0.237,0.249l0.022,0.903
			c0.022,0.916-0.192,1.177-0.656,1.312l-0.068-2.239c0-0.136-0.09-0.226-0.236-0.226h-0.6c-0.159,0-0.238,0.103-0.238,0.235
			L20.794,25.708z M17.663,25.898c0,0.125,0.091,0.228,0.204,0.228h0.79c0.113,0,0.205-0.103,0.205-0.228v-3.924
			c0-0.961-0.77-1.729-1.742-1.729h-2.363c-0.124,0-0.227,0.09-0.227,0.203v0.792c-0.01,0.112,0.091,0.202,0.216,0.202h2.386
			c0.294,0,0.531,0.238,0.531,0.521V25.898z M12.231,26.171c0.068,0.103,0.215,0.113,0.317,0.034l0.61-0.452
			c0.068-0.058,0.102-0.204,0.033-0.294l-1.254-1.877l1.414-2.986c0.09-0.181-0.035-0.35-0.262-0.35h-0.678
			c-0.158,0-0.227,0.066-0.283,0.191l-0.927,2.047L9.62,20.155c-0.068-0.091-0.215-0.113-0.317-0.034l-0.61,0.453
			c-0.067,0.056-0.102,0.201-0.033,0.294l0.893,1.312c-0.611,0.531-0.837,1.266-0.837,2.148v1.57c0,0.125,0.091,0.228,0.204,0.228
			h0.779c0.113,0,0.205-0.103,0.205-0.228v-1.57c0-0.543,0.078-0.939,0.281-1.188L12.231,26.171z M4.831,26.307
			c0.158,0.059,0.249,0,0.305-0.123l1.9-4.988c0.045-0.102,0.068-0.202,0.068-0.281c0-0.385-0.295-0.667-0.668-0.667H3.903V18.46
			c0-0.124-0.09-0.228-0.203-0.228H2.909c-0.113,0-0.204,0.104-0.204,0.228v2.635c0,0.192,0.157,0.351,0.339,0.351H5.69l-1.73,4.24
			c-0.057,0.137,0.012,0.271,0.125,0.317L4.831,26.307z"/>
		<path fill="#231F20" d="M25.462,16.562c-0.011,0.137,0.045,0.261,0.215,0.261h0.746c0.103,0,0.205-0.022,0.227-0.192l0.521-4.263
			c0.496-0.204,1.469-0.611,1.504,0.113l0.146,3.143h-0.939c-0.123,0-0.226,0.091-0.226,0.204v0.792c0,0.112,0.09,0.203,0.215,0.203
			h1.425c0.418,0,0.735-0.316,0.713-0.804l-0.182-3.687c-0.102-2.047-2.229-1.346-2.895-1.007l-0.656-0.588
			c-0.102-0.09-0.249-0.09-0.34,0.023l-0.451,0.509c-0.092,0.102-0.092,0.226,0,0.328l0.531,0.475L25.462,16.562z M20.476,12.142
			h2.047v4.456c0,0.123,0.09,0.227,0.203,0.227h0.781c0.112,0,0.203-0.104,0.203-0.227v-4.445c0-0.679-0.555-1.21-1.211-1.21h-2.781
			c-0.215,0-0.418,0.203-0.418,0.418l-0.012,5.237c0,0.123,0.09,0.227,0.203,0.227h0.781c0.113,0,0.203-0.104,0.203-0.227
			L20.476,12.142L20.476,12.142z M15.181,12.142c0.283,0,0.521,0.237,0.521,0.52v2.962H13.34c-0.125,0-0.228,0.091-0.228,0.204
			v0.792c0,0.112,0.091,0.203,0.215,0.203h4.05c0.123,0,0.213-0.091,0.213-0.203v-0.792c0-0.113-0.101-0.204-0.226-0.204H16.9
			v-2.951c0-0.961-0.759-1.73-1.72-1.73h-1.504c-0.125,0-0.226,0.09-0.226,0.203v0.792c0,0.113,0.09,0.204,0.215,0.204H15.181z
			 M10.151,16.598c0,0.123,0.09,0.227,0.204,0.227h0.791c0.112,0,0.204-0.104,0.204-0.227v-3.925c0-0.961-0.77-1.73-1.742-1.73
			H7.245c-0.125,0-0.227,0.09-0.227,0.203v0.792c-0.012,0.113,0.091,0.204,0.215,0.204H9.62c0.294,0,0.531,0.237,0.531,0.52V16.598z
			 M4.333,16.598c0,0.123,0.09,0.227,0.204,0.227h0.791c0.113,0,0.204-0.104,0.204-0.227v-3.925c0-0.961-0.77-1.73-1.719-1.73H1.325
			c-0.124,0-0.227,0.09-0.227,0.203v0.792c0,0.113,0.091,0.204,0.216,0.204h0.463c-0.373,0.463-0.576,1.074-0.576,1.786
			c0,0.588,0.158,1.199,0.565,1.787h-0.51c-0.123,0-0.226,0.09-0.226,0.204v0.701c0,0.112,0.09,0.203,0.215,0.203h1.437
			c0.215,0,0.418-0.183,0.418-0.418v-0.511c-0.521-0.667-0.723-1.414-0.723-2c0-0.701,0.236-1.345,0.678-1.752h0.758
			c0.283,0,0.52,0.237,0.52,0.52V16.598z"/>
		<path fill="#231F20" d="M27.94,6.23c0,0.135,0.071,0.188,0.184,0.188h0.701c0.047,0,0.082-0.041,0.082-0.088V6.054
			c0-0.048-0.035-0.083-0.082-0.083h-0.431V5.783c0-0.254,0-0.425,0.165-0.714h0.943c0.023,0,0.041,0.012,0.041,0.036v2.068
			c0,0.029-0.012,0.041-0.041,0.041h-1.639c-0.048,0-0.089,0.041-0.089,0.088v0.289c0,0.047,0.041,0.088,0.089,0.088h1.815
			c0.183,0,0.33-0.147,0.33-0.33V5.016c0-0.229-0.183-0.411-0.412-0.411h-1.41l-0.224-0.107c-0.041-0.017-0.094-0.005-0.112,0.036
			L27.723,4.81c-0.019,0.042,0,0.094,0.041,0.112l0.323,0.153C27.952,5.34,27.94,5.588,27.94,5.853V6.23z M26.684,7.59V5.464
			c0-0.477-0.39-0.859-0.866-0.859h-1.262c-0.047,0-0.09,0.035-0.09,0.082v0.294c0,0.047,0.043,0.088,0.09,0.088h1.262
			c0.225,0,0.401,0.177,0.401,0.395V7.59c0,0.048,0.034,0.089,0.082,0.089h0.294C26.643,7.679,26.684,7.638,26.684,7.59 M23.43,7.59
			V4.975c0-0.141-0.054-0.218-0.194-0.253l-0.843-0.218c-0.054-0.012-0.101,0.011-0.112,0.064l-0.07,0.271
			c-0.012,0.048,0.012,0.095,0.059,0.106l0.678,0.171c0.018,0.006,0.018,0.012,0.018,0.024v2.45c0,0.048,0.037,0.089,0.089,0.089
			h0.288C23.389,7.679,23.43,7.638,23.43,7.59 M21.194,5.264V4.899c0-0.189-0.164-0.294-0.312-0.294h-1.078
			c-0.047,0-0.088,0.035-0.088,0.082v0.294c0,0.047,0.041,0.088,0.088,0.088h0.885c0.023,0,0.041,0.012,0.041,0.041
			c0,0.542,0.006,0.678-0.359,1.061c-0.029,0.029-0.035,0.082,0,0.118l0.188,0.176c0.047,0.042,0.094,0.042,0.13,0.006
			C21.142,6.012,21.194,5.688,21.194,5.264 M16.327,8.291c0,0.048,0.041,0.083,0.088,0.083h0.287c0.053,0,0.09-0.035,0.09-0.083
			v-1.69c0-0.13,0.053-0.672,0.053-0.672c0.006-0.053-0.024-0.088-0.077-0.094L16.48,5.806c-0.053-0.006-0.089,0.023-0.095,0.076
			c0,0-0.058,0.566-0.058,0.707V8.291z M16.402,4.605c-0.047,0-0.088,0.035-0.088,0.082v0.294c0,0.047,0.041,0.088,0.088,0.088
			h1.704c0.029,0,0.041,0.024,0.029,0.053l-0.749,2.333c-0.019,0.053,0.012,0.088,0.053,0.1l0.308,0.094
			c0.047,0.018,0.1,0,0.111-0.047l0.803-2.621c0.047-0.159-0.054-0.324-0.213-0.365c-0.023-0.006-0.054-0.011-0.082-0.011H16.402z
			 M15.241,5.564V5.022c0-0.218-0.106-0.342-0.33-0.371l-0.767-0.106c-0.054-0.006-0.095,0.018-0.101,0.071l-0.047,0.288
			c-0.006,0.053,0.018,0.089,0.07,0.094l0.667,0.089c0.029,0.006,0.041,0.012,0.041,0.041v0.436c0,0.99-0.36,1.579-1.298,1.697
			l-0.118-2.575c0-0.053-0.034-0.082-0.088-0.082h-0.289c-0.053,0-0.082,0.035-0.082,0.088l0.142,2.963
			c0,0.053,0.041,0.089,0.094,0.089C14.558,7.744,15.241,6.931,15.241,5.564"/>
	</g>
	<g>
		<path fill="#231F20" d="M48.439,23.685c-4.78,0-8.655-3.877-8.655-8.656c0-4.78,3.875-8.655,8.655-8.655s8.655,3.875,8.655,8.655
			C57.095,19.808,53.219,23.685,48.439,23.685 M41.452,27.128h13.973l6.986-12.102L55.425,2.929H41.454l-6.986,12.098L41.452,27.128
			z"/>
	</g>
</g>
</svg>
