<?xml version="1.0" encoding="utf-8"?>
<!-- Generator: Adobe Illustrator 16.0.0, SVG Export Plug-In . SVG Version: 6.00 Build 0)  -->
<!DOCTYPE svg PUBLIC "-//W3C//DTD SVG 1.1//EN" "http://www.w3.org/Graphics/SVG/1.1/DTD/svg11.dtd">
<svg version="1.1" xmlns="http://www.w3.org/2000/svg" xmlns:xlink="http://www.w3.org/1999/xlink" x="0px" y="0px" width="30px"
	 height="30px" viewBox="0 0 30 30" enable-background="new 0 0 30 30" xml:space="preserve">
<g id="icon1">
</g>
<g id="icon2">
</g>
<g id="icon3">
</g>
<g id="icon4">
	<g>
		<path fill="#231F20" d="M15,28.54C7.534,28.54,1.46,22.466,1.46,15C1.46,7.534,7.534,1.459,15,1.459S28.54,7.534,28.54,15
			C28.54,22.466,22.466,28.54,15,28.54z M15,2.701C8.218,2.701,2.7,8.218,2.7,15c0,6.782,5.518,12.3,12.3,12.3S27.3,21.782,27.3,15
			C27.3,8.218,21.782,2.701,15,2.701z"/>
	</g>
	<g>
		<path fill="#231F20" d="M14.995,11.251c0.75,0,1.375,0.249,1.876,0.747c0.502,0.498,0.753,1.122,0.753,1.873
			c0,0.75-0.251,1.375-0.753,1.876c-0.501,0.501-1.126,0.751-1.876,0.751s-1.374-0.25-1.872-0.751
			c-0.498-0.501-0.747-1.126-0.747-1.876c0-0.75,0.249-1.375,0.747-1.873C13.621,11.5,14.245,11.251,14.995,11.251 M10.495,17.703
			c0.504,0.645,0.955,1.143,1.354,1.492c0.649,0.652,1.201,1.176,1.651,1.574c0.498,0.404,0.996,0.855,1.494,1.354
			c0.101-0.1,0.602-0.551,1.504-1.354c0.849-0.75,1.399-1.273,1.651-1.574c0.399-0.346,0.848-0.844,1.345-1.492
			c1.003-1.254,1.504-2.556,1.504-3.903c0-1.653-0.602-3.053-1.803-4.202c-1.147-1.148-2.549-1.722-4.201-1.722
			c-1.651,0-3.053,0.574-4.201,1.722C9.6,10.747,9.001,12.147,9.001,13.8C9.001,15.248,9.499,16.549,10.495,17.703"/>
	</g>
</g>
<g id="icon5">
</g>
</svg>
