<?xml version="1.0" encoding="utf-8"?>
<!-- Generator: Adobe Illustrator 16.0.0, SVG Export Plug-In . SVG Version: 6.00 Build 0)  -->
<!DOCTYPE svg PUBLIC "-//W3C//DTD SVG 1.1//EN" "http://www.w3.org/Graphics/SVG/1.1/DTD/svg11.dtd">
<svg version="1.1" id="Layer_1" xmlns="http://www.w3.org/2000/svg" xmlns:xlink="http://www.w3.org/1999/xlink" x="0px" y="0px"
	 width="198.27px" height="96.655px" viewBox="0 0 198.27 96.655" enable-background="new 0 0 198.27 96.655" xml:space="preserve">
<g id="Layer_1_1_">
</g>
<g id="Layer_2">
	
		<rect x="152.815" y="31.674" transform="matrix(0.4997 -0.8662 0.8662 0.4997 36.6986 159.0559)" fill="#231F20" width="6.468" height="32.166"/>
	<g>
		<path fill="#231F20" d="M92.49,76.948c2.627-2.44,3.291-5.03,3.291-7.656v-2.107c0-1.479-1.293-2.367-2.439-2.367h-6.656
			c-0.408,0-0.742,0.294-0.742,0.665v2.59c-0.041,0.367,0.297,0.661,0.703,0.661h5.219c0,2.664-0.336,3.852-2.076,5.625
			c-0.404,0.408-0.369,0.885,0,1.22l1.48,1.405C91.641,77.312,92.156,77.242,92.49,76.948 M65.643,82.682
			c0.039,1.146,1.111,1.702,1.922,1.626c10.43-1.186,12.434-7.212,12.652-15.983l0.035-2.733c0.039-0.515-0.332-0.773-0.771-0.773
			h-2.186c-0.555,0-0.773,0.259-0.773,0.773v2.733c0,7.516-1.814,11.103-7.471,11.952l-0.188-4.593
			c4.402-0.917,5.328-3.654,5.328-6.023l0.07-4.069c0-0.556-0.297-0.773-0.773-0.773h-1.775c-0.518,0-0.775,0.294-0.775,0.814
			l0.072,2.955c0.072,2.995-0.629,3.849-2.146,4.289l-0.223-7.323c0-0.444-0.293-0.738-0.771-0.738h-1.963
			c-0.52,0-0.777,0.335-0.777,0.77L65.643,82.682z M55.402,83.305c0,0.408,0.297,0.744,0.668,0.744h2.584
			c0.367,0,0.668-0.336,0.668-0.744V70.471c0-3.143-2.518-5.653-5.695-5.653h-7.73c-0.406,0-0.742,0.294-0.742,0.665v2.59
			c-0.033,0.367,0.299,0.661,0.707,0.661h7.803c0.961,0,1.738,0.779,1.738,1.702V83.305z M37.635,84.195
			c0.223,0.336,0.703,0.371,1.037,0.112l1.996-1.479c0.223-0.188,0.332-0.667,0.107-0.961l-4.102-6.139l4.625-9.768
			c0.293-0.591-0.115-1.144-0.857-1.144h-2.217c-0.518,0-0.742,0.218-0.926,0.626l-3.031,6.695l-5.171-7.618
			c-0.224-0.297-0.705-0.37-1.037-0.112l-1.996,1.482c-0.219,0.183-0.334,0.658-0.107,0.962l2.921,4.289
			c-2,1.737-2.739,4.14-2.739,7.027v5.136c0,0.408,0.299,0.744,0.668,0.744h2.549c0.369,0,0.669-0.336,0.669-0.744v-5.136
			c0-1.776,0.255-3.073,0.92-3.885L37.635,84.195z M13.433,84.64c0.516,0.191,0.814,0,0.998-0.402l6.214-16.315
			c0.147-0.332,0.222-0.661,0.222-0.92c0-1.258-0.965-2.182-2.185-2.182h-8.285v-5.845c0-0.405-0.294-0.744-0.663-0.744H7.147
			c-0.371,0-0.668,0.339-0.668,0.744v8.617c0,0.63,0.513,1.147,1.108,1.147h8.654l-5.658,13.868
			c-0.187,0.447,0.04,0.888,0.409,1.038L13.433,84.64z"/>
		<path fill="#231F20" d="M80.908,52.77c-0.035,0.447,0.148,0.854,0.703,0.854h2.441c0.336,0,0.67-0.074,0.742-0.63l1.703-13.941
			c1.623-0.668,4.807-2,4.92,0.369L91.895,49.7h-3.07c-0.402,0-0.738,0.297-0.738,0.668v2.59c0,0.367,0.295,0.665,0.703,0.665h4.66
			c1.367,0,2.404-1.035,2.332-2.629l-0.596-12.058c-0.334-6.694-7.289-4.403-9.469-3.293l-2.145-1.925
			c-0.334-0.293-0.814-0.293-1.113,0.075l-1.475,1.666c-0.301,0.334-0.301,0.739,0,1.073l1.738,1.554L80.908,52.77z M64.602,38.312
			h6.695v14.572c0,0.402,0.293,0.741,0.664,0.741h2.555c0.367,0,0.664-0.339,0.664-0.741V38.348c0-2.221-1.816-3.958-3.961-3.958
			h-9.098c-0.701,0-1.365,0.665-1.365,1.367l-0.039,17.128c0,0.402,0.293,0.741,0.664,0.741h2.555c0.367,0,0.664-0.339,0.664-0.741
			V38.312H64.602z M47.285,38.312c0.924,0,1.703,0.774,1.703,1.7V49.7h-7.727c-0.408,0-0.746,0.297-0.746,0.668v2.59
			c0,0.367,0.299,0.665,0.705,0.665h13.246c0.402,0,0.695-0.298,0.695-0.665v-2.59c0-0.371-0.33-0.668-0.738-0.668h-1.518v-9.652
			c0-3.143-2.482-5.658-5.625-5.658h-4.92c-0.41,0-0.738,0.296-0.738,0.665v2.59c0,0.369,0.293,0.668,0.703,0.668H47.285z
			 M30.832,52.885c0,0.402,0.295,0.741,0.668,0.741h2.586c0.367,0,0.668-0.339,0.668-0.741V40.048c0-3.143-2.518-5.658-5.698-5.658
			h-7.728c-0.409,0-0.743,0.296-0.743,0.665v2.59c-0.04,0.369,0.297,0.668,0.703,0.668h7.808c0.961,0,1.736,0.774,1.736,1.7V52.885z
			 M11.804,52.885c0,0.402,0.294,0.741,0.667,0.741h2.587c0.369,0,0.668-0.339,0.668-0.741V40.048c0-3.143-2.519-5.658-5.623-5.658
			H1.966c-0.406,0-0.743,0.296-0.743,0.665v2.59c0,0.369,0.297,0.668,0.706,0.668h1.514c-1.22,1.514-1.883,3.512-1.883,5.84
			c0,1.925,0.516,3.922,1.848,5.845H1.739C1.337,49.997,1,50.291,1,50.665v2.293c0,0.367,0.295,0.665,0.704,0.665h4.7
			c0.703,0,1.367-0.598,1.367-1.367v-1.671c-1.704-2.18-2.365-4.623-2.365-6.543c0-2.293,0.771-4.399,2.218-5.729h2.479
			c0.926,0,1.701,0.774,1.701,1.7V52.885z"/>
		<path fill="#231F20" d="M89.014,18.976c0,0.442,0.232,0.615,0.602,0.615h2.295c0.152,0,0.268-0.135,0.268-0.288V18.4
			c0-0.158-0.115-0.271-0.268-0.271H90.5v-0.614c0-0.832,0-1.391,0.539-2.337h3.084c0.074,0,0.135,0.04,0.135,0.119v6.763
			c0,0.096-0.039,0.134-0.135,0.134h-5.361c-0.156,0-0.291,0.135-0.291,0.288v0.945c0,0.154,0.135,0.289,0.291,0.289h5.938
			c0.598,0,1.078-0.481,1.078-1.08v-7.63c0-0.749-0.598-1.345-1.346-1.345h-4.613l-0.732-0.35c-0.135-0.056-0.307-0.016-0.365,0.118
			l-0.416,0.902c-0.062,0.137,0,0.307,0.135,0.366l1.055,0.501c-0.439,0.866-0.48,1.677-0.48,2.544V18.976z M84.906,23.424V16.47
			c0-1.56-1.275-2.809-2.832-2.809h-4.127c-0.156,0-0.297,0.115-0.297,0.268v0.961c0,0.153,0.141,0.287,0.297,0.287h4.127
			c0.734,0,1.311,0.58,1.311,1.292v6.954c0,0.157,0.111,0.292,0.268,0.292h0.963C84.771,23.716,84.906,23.581,84.906,23.424
			 M74.264,23.424v-8.552c0-0.461-0.178-0.714-0.635-0.828l-2.758-0.714c-0.176-0.038-0.33,0.037-0.365,0.209l-0.23,0.886
			c-0.037,0.158,0.041,0.312,0.193,0.347l2.219,0.561c0.059,0.019,0.059,0.038,0.059,0.078v8.013c0,0.157,0.121,0.292,0.291,0.292
			h0.941C74.129,23.716,74.264,23.581,74.264,23.424 M66.949,15.817v-1.195c0-0.618-0.535-0.961-1.02-0.961h-3.525
			c-0.154,0-0.289,0.115-0.289,0.268v0.961c0,0.153,0.135,0.287,0.289,0.287h2.895c0.074,0,0.133,0.04,0.133,0.134
			c0,1.773,0.02,2.218-1.172,3.47c-0.098,0.096-0.115,0.269,0,0.387l0.613,0.575c0.154,0.137,0.307,0.137,0.426,0.021
			C66.781,18.264,66.949,17.203,66.949,15.817 M51.033,25.717c0,0.156,0.133,0.271,0.287,0.271h0.939
			c0.172,0,0.293-0.115,0.293-0.271v-5.527c0-0.425,0.174-2.197,0.174-2.197c0.02-0.174-0.08-0.289-0.252-0.309l-0.941-0.094
			c-0.176-0.021-0.291,0.074-0.312,0.247c0,0-0.188,1.853-0.188,2.312V25.717z M51.277,13.661c-0.154,0-0.287,0.115-0.287,0.268
			v0.961c0,0.153,0.133,0.287,0.287,0.287h5.572c0.096,0,0.135,0.079,0.096,0.174l-2.449,7.63c-0.062,0.173,0.039,0.287,0.172,0.327
			l1.008,0.307c0.154,0.06,0.328,0,0.363-0.153l2.627-8.572c0.154-0.519-0.178-1.059-0.695-1.193
			c-0.078-0.021-0.178-0.037-0.27-0.037H51.277z M47.48,16.797v-1.772c0-0.712-0.348-1.118-1.08-1.214l-2.508-0.347
			c-0.178-0.019-0.312,0.059-0.33,0.233l-0.154,0.94c-0.02,0.174,0.059,0.292,0.229,0.308l2.182,0.291
			c0.096,0.019,0.135,0.04,0.135,0.134v1.426c0,3.239-1.178,5.165-4.246,5.55l-0.387-8.421c0-0.174-0.109-0.268-0.287-0.268h-0.945
			c-0.172,0-0.268,0.115-0.268,0.288l0.465,9.692c0,0.172,0.133,0.29,0.307,0.29C45.246,23.928,47.48,21.27,47.48,16.797"/>
	</g>
	<g>
		<path fill="#231F20" d="M184.373,47.754c0,15.633-12.682,28.307-28.312,28.307c-15.635,0-28.309-12.674-28.309-28.307
			c0-15.637,12.674-28.311,28.309-28.311C171.691,19.443,184.373,32.121,184.373,47.754 M195.635,70.605v-45.7l-39.58-22.848
			l-39.568,22.848v45.693l39.568,22.85L195.635,70.605z"/>
	</g>
</g>
</svg>
