<?xml version="1.0" encoding="utf-8"?>
<!-- Generator: Adobe Illustrator 16.0.0, SVG Export Plug-In . SVG Version: 6.00 Build 0)  -->
<!DOCTYPE svg PUBLIC "-//W3C//DTD SVG 1.1//EN" "http://www.w3.org/Graphics/SVG/1.1/DTD/svg11.dtd">
<svg version="1.1" id="Layer_1" xmlns="http://www.w3.org/2000/svg" xmlns:xlink="http://www.w3.org/1999/xlink" x="0px" y="0px"
	 width="171.017px" height="292.776px" viewBox="0 0 171.017 292.776" enable-background="new 0 0 171.017 292.776"
	 xml:space="preserve">
<g>
	<path d="M141.061,86.399c0,30.75-24.872,55.678-55.553,55.678c-30.682,0-55.553-24.928-55.553-55.678
		c0-30.749,24.871-55.678,55.553-55.678C116.188,30.721,141.061,55.65,141.061,86.399 M164.982,86.399
		c0-43.891-35.583-79.475-79.475-79.475c-43.893,0-79.474,35.584-79.474,79.475c0,43.893,71.017,180.161,79.474,180.161
		S164.982,130.292,164.982,86.399"/>
	<g opacity="0.4">
		<g>
			<path d="M113.363,267.616c0,5.094-12.472,9.223-27.855,9.223c-15.386,0-27.858-4.129-27.858-9.223
				c0-5.092,12.473-9.221,27.858-9.221C100.892,258.396,113.363,262.524,113.363,267.616 M130.472,267.616l-22.481-12.891H63.022
				l-22.481,12.891l22.481,12.891h44.968L130.472,267.616z"/>
			<polygon points="101.583,271.169 96.236,272.937 69.433,264.065 74.776,262.294 			"/>
		</g>
		<ellipse fill="none" stroke="#000000" stroke-width="2.9902" cx="85.508" cy="267.616" rx="56.066" ry="18.236"/>
	</g>
	<path fill="#FFFFFF" d="M113.033,71.129l-33.967,38.071L57.493,87.785l7.784-7.862l12.472,12.393l26.646-29.047L113.033,71.129z
		 M131.664,86.236c0-25.628-20.774-46.403-46.401-46.403S38.861,60.608,38.861,86.236c0,25.627,20.774,46.402,46.401,46.402
		S131.664,111.863,131.664,86.236"/>
</g>
</svg>
