<?xml version="1.0" encoding="utf-8"?>
<!-- Generator: Adobe Illustrator 16.0.0, SVG Export Plug-In . SVG Version: 6.00 Build 0)  -->
<!DOCTYPE svg PUBLIC "-//W3C//DTD SVG 1.1//EN" "http://www.w3.org/Graphics/SVG/1.1/DTD/svg11.dtd">
<svg version="1.1" id="Layer_1" xmlns="http://www.w3.org/2000/svg" xmlns:xlink="http://www.w3.org/1999/xlink" x="0px" y="0px"
	 width="283.953px" height="299.43px" viewBox="0 0 283.953 299.43" enable-background="new 0 0 283.953 299.43"
	 xml:space="preserve">
<g>
	<g>
		<defs>
			<rect id="SVGID_1_" y="0" width="283.953" height="299.43"/>
		</defs>
		<clipPath id="SVGID_2_">
			<use xlink:href="#SVGID_1_"  overflow="visible"/>
		</clipPath>
		<g clip-path="url(#SVGID_2_)">
			<path fill="#333333" d="M83.874,11.202V3.776l0.083-0.803l-1.706,0.67l-0.385-1.104l2.341-0.886l0.937-0.018v9.565L83.874,11.202
				L83.874,11.202z"/>
			<path fill="#333333" d="M88.839,11.202V3.776l0.083-0.803l-1.706,0.67l-0.385-1.104l2.341-0.886l0.937-0.018v9.565L88.839,11.202
				L88.839,11.202z"/>
			<path fill="#333333" d="M98.471,6.452c0,2.31-0.97,4.867-3.428,4.867c-2.174,0-3.144-2.509-3.144-4.783
				c0-2.559,1.188-4.982,3.228-4.982C97.451,1.553,98.471,3.994,98.471,6.452z M97.1,6.336c0-1.622-0.469-3.695-1.94-3.695
				c-1.488,0-1.906,2.022-1.906,3.796c0,1.589,0.301,3.797,1.856,3.763C96.598,10.165,97.1,8.142,97.1,6.336z"/>
		</g>
	</g>
	<g>
		<defs>
			<rect id="SVGID_3_" y="0" width="283.953" height="299.43"/>
		</defs>
		<clipPath id="SVGID_4_">
			<use xlink:href="#SVGID_3_"  overflow="visible"/>
		</clipPath>
		<g clip-path="url(#SVGID_4_)">
			<text transform="matrix(1 0 0 1 100.4917 4.8416)" fill="#333333" font-family="'TheMixB-W5Plain'" font-size="8.2084">o</text>
		</g>
	</g>
</g>
<g>
	<path fill="#333333" d="M205.736,9.052h-3.596l-0.938-0.336l0.317-0.868h5.269l0.301,0.818l-3.144,8.696h-1.153v-0.435l2.676-7.442
		L205.736,9.052z"/>
	<path fill="#333333" d="M214.832,12.614c0,2.308-0.97,4.866-3.428,4.866c-2.175,0-3.145-2.509-3.145-4.783
		c0-2.559,1.188-4.983,3.228-4.983C213.812,7.714,214.832,10.155,214.832,12.614z M213.46,12.497c0-1.623-0.469-3.695-1.939-3.695
		c-1.488,0-1.906,2.022-1.906,3.796c0,1.589,0.301,3.797,1.856,3.764C212.958,16.326,213.46,14.303,213.46,12.497z"/>
</g>
<text transform="matrix(1 0 0 1 216.853 11.238)" fill="#333333" font-family="'TheMixB-W5Plain'" font-size="7.7979">o</text>
<g>
	<path fill="#333333" d="M269.404,66.954h-4.933V65.9l1.538-1.856c1.171-1.421,2.324-2.658,2.324-4.097
		c-0.033-1.171-0.902-1.455-1.556-1.455c-0.401,0-0.952,0.15-1.438,0.352h-0.836v-0.67c0.604-0.4,1.438-0.886,2.408-0.886
		c1.205,0,2.709,0.702,2.709,2.575c-0.033,1.89-1.453,3.345-2.691,4.767l-0.971,1.12h2.776l1.07,0.269L269.404,66.954z"/>
	<path fill="#333333" d="M277.531,62.204c0,2.31-0.971,4.867-3.429,4.867c-2.175,0-3.144-2.509-3.144-4.783
		c0-2.559,1.187-4.982,3.227-4.982C276.511,57.305,277.531,59.746,277.531,62.204z M276.16,62.088c0-1.622-0.469-3.695-1.939-3.695
		c-1.489,0-1.907,2.022-1.907,3.796c0,1.589,0.302,3.797,1.856,3.763C275.658,65.917,276.16,63.894,276.16,62.088z"/>
</g>
<g>
	<g>
		<defs>
			<rect id="SVGID_5_" y="0" width="283.953" height="299.43"/>
		</defs>
		<clipPath id="SVGID_6_">
			<use xlink:href="#SVGID_5_"  overflow="visible"/>
		</clipPath>
		<g clip-path="url(#SVGID_6_)">
			<text transform="matrix(1 0 0 1 279.5347 60.8279)" fill="#333333" font-family="'TheMixB-W5Plain'" font-size="7.7979">o</text>
		</g>
	</g>
</g>
<g>
	<path fill="#333333" d="M7.374,51.05l0.87-0.316h4.064v0.803l-0.151,0.418H7.374V51.05z"/>
	<path fill="#333333" d="M19.078,55.816h-4.934v-1.054l1.539-1.856c1.17-1.421,2.324-2.659,2.324-4.097
		c-0.033-1.171-0.903-1.455-1.555-1.455c-0.401,0-0.953,0.149-1.438,0.351h-0.836v-0.669c0.602-0.4,1.438-0.886,2.408-0.886
		c1.204,0,2.709,0.702,2.709,2.575c-0.034,1.89-1.455,3.345-2.693,4.767l-0.97,1.12h2.776l1.07,0.268L19.078,55.816z"/>
	<path fill="#333333" d="M27.204,51.067c0,2.308-0.97,4.866-3.428,4.866c-2.174,0-3.144-2.51-3.144-4.783
		c0-2.56,1.188-4.983,3.228-4.983C26.184,46.167,27.204,48.608,27.204,51.067z M25.833,50.95c0-1.623-0.469-3.696-1.94-3.696
		c-1.488,0-1.906,2.023-1.906,3.796c0,1.59,0.301,3.798,1.856,3.765C25.331,54.779,25.833,52.756,25.833,50.95z"/>
</g>
<text transform="matrix(1 0 0 1 29.2085 49.4568)" fill="#333333" font-family="'TheMixB-W5Plain'" font-size="8.2084">o</text>
<line fill="none" stroke="#FFFFFF" stroke-width="0.456" x1="57.231" y1="266.501" x2="57.231" y2="45.415"/>
<path fill="#43B7E8" d="M142.467,291.568c74.07,0,134.117-60.046,134.117-134.115c0-74.07-60.047-134.116-134.117-134.116
	S8.352,83.383,8.352,157.453C8.352,231.522,68.397,291.568,142.467,291.568"/>
<rect y="0" fill="none" width="283.953" height="299.43"/>
<path fill="#FFFFFF" d="M244.232,178.486l-5.805,16.257c-17.418,10.218-38.553,10.218-55.971,0
	c-15.793,9.521-30.19,9.754-45.75,4.646l-6.503,18.113h-48.77c-28.333,0-43.893-16.488-43.893-40.642
	c0-7.896,0.464-12.541,1.394-16.953l7.199-20.901l13.702,5.108c-3.019,13.006-4.18,17.188-4.18,32.746
	c0,13.935,8.593,24.385,23.456,24.385h40.177v-82.909l13.47-4.877L137.403,126v57.363c12.076,3.948,23.688,4.412,35.532-0.232
	v-65.956l3.947-10.219l14.168,5.109v70.368c11.379,4.181,23.455,3.947,35.066,0.231v-60.382l-6.037-17.418v-2.787l16.488-6.038
	l7.663,21.134L244.232,178.486L244.232,178.486z"/>
<line fill="none" stroke="#FFFFFF" stroke-width="0.446" x1="110.89" y1="287.962" x2="202.63" y2="35.907"/>
<line fill="none" stroke="#FFFFFF" stroke-width="0.446" x1="194.255" y1="282.761" x2="101.764" y2="28.64"/>
<line fill="none" stroke="#FFFFFF" stroke-width="0.446" x1="104.842" y1="287.042" x2="197.333" y2="32.921"/>
<line fill="none" stroke="#FFFFFF" stroke-width="0.446" x1="209.259" y1="275.276" x2="269.623" y2="109.431"/>
<line fill="none" stroke="#FFFFFF" stroke-width="0.446" x1="19.453" y1="213.31" x2="84.367" y2="35.122"/>
<line fill="none" stroke="#FFFFFF" stroke-width="0.446" x1="276.175" y1="142.987" x2="48.747" y2="60.24"/>
<line fill="none" stroke="#FFFFFF" stroke-width="0.446" x1="263.316" y1="218.098" x2="11.26" y2="126.356"/>
<line fill="none" stroke="#FFFFFF" stroke-width="0.446" x1="5.656" y1="159.92" x2="245.927" y2="72.469"/>
<line fill="none" stroke="#FFFFFF" stroke-width="0.446" x1="9.499" y1="178.964" x2="258.402" y2="88.371"/>
<line fill="none" stroke="#FFFFFF" stroke-width="0.446" x1="271.977" y1="193.809" x2="218.403" y2="46.617"/>
<g>
	<g>
		<defs>
			<rect id="SVGID_7_" y="0" width="283.953" height="299.43"/>
		</defs>
		<clipPath id="SVGID_8_">
			<use xlink:href="#SVGID_7_"  overflow="visible"/>
		</clipPath>
		<circle clip-path="url(#SVGID_8_)" fill="none" stroke="#939598" stroke-width="2.469" cx="141.976" cy="157.453" r="140.742"/>
	</g>
</g>
<line fill="none" stroke="#FF8EA2" stroke-width="1.056" x1="100.025" y1="24.302" x2="96.341" y2="14.228"/>
<line fill="none" stroke="#FF8EA2" stroke-width="1.056" x1="198.537" y1="29.849" x2="202.19" y2="19.764"/>
<line fill="none" stroke="#FF8EA2" stroke-width="1.056" x1="250.933" y1="70.368" x2="261.005" y2="66.684"/>
<line fill="none" stroke="#FF8EA2" stroke-width="1.056" x1="33.276" y1="54.732" x2="43.361" y2="58.385"/>
</svg>
