<?xml version="1.0" encoding="utf-8"?>
<!-- Generator: Adobe Illustrator 16.0.0, SVG Export Plug-In . SVG Version: 6.00 Build 0)  -->
<!DOCTYPE svg PUBLIC "-//W3C//DTD SVG 1.1//EN" "http://www.w3.org/Graphics/SVG/1.1/DTD/svg11.dtd">
<svg version="1.1" id="Layer_1" xmlns="http://www.w3.org/2000/svg" xmlns:xlink="http://www.w3.org/1999/xlink" x="0px" y="0px"
	 width="283.952px" height="299.429px" viewBox="0 0 283.952 299.429" enable-background="new 0 0 283.952 299.429"
	 xml:space="preserve">
<g>
	<defs>
		<rect id="SVGID_1_" width="283.952" height="299.429"/>
	</defs>
	<clipPath id="SVGID_2_">
		<use xlink:href="#SVGID_1_"  overflow="visible"/>
	</clipPath>
	<g clip-path="url(#SVGID_2_)">
		<path d="M83.874,11.202V3.776l0.083-0.803l-1.706,0.67l-0.385-1.104l2.341-0.886l0.937-0.018v9.566H83.874z"/>
		<path d="M88.839,11.202V3.776l0.083-0.803l-1.706,0.67l-0.385-1.104l2.341-0.886l0.937-0.018v9.566H88.839z"/>
		<path d="M98.471,6.452c0,2.309-0.97,4.867-3.428,4.867c-2.174,0-3.144-2.509-3.144-4.783c0-2.559,1.188-4.983,3.228-4.983
			C97.451,1.553,98.471,3.994,98.471,6.452z M97.1,6.336c0-1.622-0.469-3.696-1.94-3.696c-1.488,0-1.906,2.023-1.906,3.796
			c0,1.589,0.301,3.797,1.856,3.763C96.598,10.165,97.1,8.142,97.1,6.336z"/>
	</g>
	<g clip-path="url(#SVGID_2_)">
		<text transform="matrix(1 0 0 1 100.4917 4.8418)" font-family="'TheMixB-W5Plain'" font-size="8.2084">o</text>
	</g>
</g>
<g>
	<path d="M205.736,9.052h-3.596l-0.937-0.335l0.317-0.869h5.269l0.301,0.819l-3.144,8.696h-1.154v-0.435l2.676-7.442L205.736,9.052z
		"/>
	<path d="M214.832,12.614c0,2.308-0.97,4.866-3.428,4.866c-2.175,0-3.145-2.509-3.145-4.783c0-2.559,1.188-4.983,3.228-4.983
		C213.812,7.714,214.832,10.155,214.832,12.614z M213.461,12.497c0-1.623-0.469-3.696-1.94-3.696c-1.488,0-1.906,2.023-1.906,3.796
		c0,1.589,0.301,3.797,1.856,3.764C212.959,16.326,213.461,14.303,213.461,12.497z"/>
</g>
<text transform="matrix(1 0 0 1 216.8535 11.2373)" font-family="'TheMixB-W5Plain'" font-size="7.7979">o</text>
<g>
	<path d="M269.404,66.954h-4.933V65.9l1.538-1.856c1.171-1.421,2.324-2.659,2.324-4.097c-0.033-1.171-0.902-1.455-1.555-1.455
		c-0.401,0-0.953,0.15-1.438,0.351h-0.836v-0.669c0.603-0.401,1.438-0.886,2.408-0.886c1.204,0,2.709,0.702,2.709,2.575
		c-0.033,1.89-1.454,3.345-2.692,4.767l-0.97,1.12h2.776l1.07,0.268L269.404,66.954z"/>
	<path d="M277.531,62.204c0,2.309-0.971,4.867-3.429,4.867c-2.175,0-3.144-2.509-3.144-4.783c0-2.559,1.187-4.983,3.227-4.983
		C276.511,57.305,277.531,59.746,277.531,62.204z M276.159,62.088c0-1.622-0.468-3.696-1.939-3.696
		c-1.489,0-1.907,2.023-1.907,3.796c0,1.589,0.302,3.797,1.857,3.763C275.658,65.917,276.159,63.894,276.159,62.088z"/>
</g>
<g>
	<defs>
		<rect id="SVGID_3_" width="283.952" height="299.429"/>
	</defs>
	<clipPath id="SVGID_4_">
		<use xlink:href="#SVGID_3_"  overflow="visible"/>
	</clipPath>
	<g clip-path="url(#SVGID_4_)">
		<text transform="matrix(1 0 0 1 279.5352 60.8281)" font-family="'TheMixB-W5Plain'" font-size="7.7979">o</text>
	</g>
</g>
<g>
	<path d="M7.374,51.05l0.87-0.317h4.064v0.803l-0.151,0.418H7.374V51.05z"/>
	<path d="M19.078,55.816h-4.934v-1.054l1.539-1.856c1.17-1.421,2.324-2.659,2.324-4.097c-0.033-1.171-0.903-1.455-1.555-1.455
		c-0.401,0-0.953,0.15-1.438,0.351h-0.836v-0.669c0.602-0.401,1.438-0.886,2.408-0.886c1.204,0,2.709,0.702,2.709,2.575
		c-0.034,1.89-1.455,3.345-2.693,4.767l-0.97,1.12h2.776l1.07,0.268L19.078,55.816z"/>
	<path d="M27.204,51.067c0,2.308-0.97,4.866-3.428,4.866c-2.174,0-3.144-2.509-3.144-4.783c0-2.559,1.188-4.983,3.228-4.983
		C26.184,46.167,27.204,48.608,27.204,51.067z M25.833,50.95c0-1.623-0.469-3.696-1.94-3.696c-1.488,0-1.906,2.023-1.906,3.796
		c0,1.589,0.301,3.797,1.856,3.764C25.331,54.779,25.833,52.756,25.833,50.95z"/>
</g>
<text transform="matrix(1 0 0 1 29.2085 49.4561)" font-family="'TheMixB-W5Plain'" font-size="8.2084">o</text>
<line fill="none" stroke="#FFFFFF" stroke-width="0.456" x1="57.231" y1="266.501" x2="57.231" y2="45.415"/>
<path fill="#43B7E8" d="M142.467,291.568c74.07,0,134.117-60.046,134.117-134.115c0-74.07-60.047-134.116-134.117-134.116
	S8.352,83.383,8.352,157.453C8.352,231.522,68.397,291.568,142.467,291.568"/>
<rect fill="none" width="283.952" height="299.429"/>
<path fill="#FFFFFF" d="M244.232,178.486l-5.805,16.257c-17.418,10.218-38.553,10.218-55.971,0
	c-15.792,9.521-30.19,9.754-45.75,4.645l-6.503,18.114h-48.77c-28.333,0-43.893-16.489-43.893-40.642
	c0-7.896,0.464-12.541,1.394-16.953l7.199-20.901l13.702,5.108c-3.019,13.006-4.18,17.187-4.18,32.746
	c0,13.935,8.593,24.385,23.456,24.385h40.177v-82.909l13.47-4.877L137.403,126v57.363c12.076,3.948,23.688,4.412,35.532-0.232
	v-65.956l3.948-10.219l14.167,5.109v70.368c11.379,4.181,23.455,3.948,35.067,0.232v-60.382l-6.038-17.418v-2.787l16.489-6.038
	l7.663,21.134V178.486z"/>
<line fill="none" stroke="#FFFFFF" stroke-width="0.446" x1="110.89" y1="287.962" x2="202.631" y2="35.907"/>
<line fill="none" stroke="#FFFFFF" stroke-width="0.446" x1="194.256" y1="282.761" x2="101.764" y2="28.64"/>
<line fill="none" stroke="#FFFFFF" stroke-width="0.446" x1="104.842" y1="287.042" x2="197.334" y2="32.921"/>
<line fill="none" stroke="#FFFFFF" stroke-width="0.446" x1="209.259" y1="275.276" x2="269.622" y2="109.431"/>
<line fill="none" stroke="#FFFFFF" stroke-width="0.446" x1="19.453" y1="213.31" x2="84.367" y2="35.122"/>
<line fill="none" stroke="#FFFFFF" stroke-width="0.446" x1="276.176" y1="142.987" x2="48.747" y2="60.24"/>
<line fill="none" stroke="#FFFFFF" stroke-width="0.446" x1="263.316" y1="218.098" x2="11.26" y2="126.356"/>
<line fill="none" stroke="#FFFFFF" stroke-width="0.446" x1="5.656" y1="159.92" x2="245.927" y2="72.469"/>
<line fill="none" stroke="#FFFFFF" stroke-width="0.446" x1="9.499" y1="178.964" x2="258.402" y2="88.371"/>
<line fill="none" stroke="#FFFFFF" stroke-width="0.446" x1="271.977" y1="193.809" x2="218.403" y2="46.617"/>
<g>
	<defs>
		<rect id="SVGID_5_" width="283.952" height="299.429"/>
	</defs>
	<clipPath id="SVGID_6_">
		<use xlink:href="#SVGID_5_"  overflow="visible"/>
	</clipPath>
	<circle clip-path="url(#SVGID_6_)" fill="none" stroke="#939598" stroke-width="2.469" cx="141.976" cy="157.453" r="140.742"/>
</g>
<line fill="none" stroke="#FF8EA2" stroke-width="1.056" x1="100.025" y1="24.301" x2="96.341" y2="14.228"/>
<line fill="none" stroke="#FF8EA2" stroke-width="1.056" x1="198.537" y1="29.849" x2="202.19" y2="19.764"/>
<line fill="none" stroke="#FF8EA2" stroke-width="1.056" x1="250.933" y1="70.368" x2="261.006" y2="66.684"/>
<line fill="none" stroke="#FF8EA2" stroke-width="1.056" x1="33.276" y1="54.732" x2="43.361" y2="58.385"/>
</svg>
