<?xml version="1.0" encoding="utf-8"?>
<!-- Generator: Adobe Illustrator 16.0.0, SVG Export Plug-In . SVG Version: 6.00 Build 0)  -->
<!DOCTYPE svg PUBLIC "-//W3C//DTD SVG 1.1//EN" "http://www.w3.org/Graphics/SVG/1.1/DTD/svg11.dtd">
<svg version="1.1" id="Layer_1" xmlns="http://www.w3.org/2000/svg" xmlns:xlink="http://www.w3.org/1999/xlink" x="0px" y="0px"
	 width="1800px" height="167.645px" viewBox="0 0 1800 167.645" enable-background="new 0 0 1800 167.645" xml:space="preserve">
<g>
	<rect y="93.759" fill="#AEDAF3" width="1800" height="10"/>
</g>
<path d="M611.352,93.659h-58.379l-2.89,7.514l9.97,3.613h32.514l-3.468,9.681v53.178h10.115l2.167-5.779v-57.079h0.289l9.682-3.613
	V93.659z M536.877,94.382l-1.879-0.723h-29.912l-2.745,7.225l14.017,3.902c-5.203,9.826-4.479,23.265-2.746,33.091l5.348,29.768
	h10.114l1.301-3.612l-5.202-27.745c-0.867-4.624-3.18-21.386,0-31.501h10.838l0.867-2.168V94.382z M485.725,115.189
	c-0.145-13.149-5.202-21.53-18.207-21.53h-41.184l-2.602,6.936l10.549,3.757c-7.658,23.41-1.59,29.19,10.261,34.104h8.67l2.89-7.948
	c-7.659-2.456-12.717-4.624-14.884-7.658c0-3.468,0.722-8.814,3.901-18.062h19.941c6.358,0,8.815,2.89,8.815,10.259
	c0,15.318,0,28.034-1.156,41.473h-43.062v11.127h50.432l4.19-11.561C486.014,142.501,485.725,130.507,485.725,115.189
	 M343.793,93.659l-2.746,7.803l11.85,3.324l-3.757,14.306c0,15.317,1.156,25.433,4.046,36.703l-14.884,3.613v8.236h21.82
	l4.19-11.561c-2.312-11.271-3.323-21.675-3.323-36.992v-14.306h24.71c6.358,0,8.815,2.89,8.815,10.259v52.6h11.849v-51.588
	c0-13.583-4.913-22.397-18.207-22.397H343.793z"/>
<path d="M1008.552,94.071H959.71c8.092-28.467,25.288-44.507,37.859-44.507c4.769,0,8.093,0.723,10.838,1.879L1008.552,94.071z
	 M997.569,39.449c-7.658,0-23.266,5.636-35.547,26.155l1.589-6.069V18.352l-4.479-12.139l-9.393,3.469v1.733l3.757,9.972v62.714
	c-1.156,3.18-2.168,6.503-3.035,9.971h-19.508v10.115h85.257l3.613-10.115V63.727C1019.823,48.119,1017.077,39.449,997.569,39.449
	 M932.415,94.071H917.82V83.522c0-15.461-18.063-35.403-35.837-43.206h-5.348l39.161-14.161l-2.89-7.081h-6.647L868.4,32.946
	l-2.746,8.96v1.011c21.819,9.537,34.825,25.288,40.894,35.26v15.895h-45.807v10.115h53.466l1.445-3.901l10.981,3.901h5.781V94.071z
	 M862.289,94.071h-16.907V7.369h-8.813l-2.457,6.647v80.055h-17.918v10.115h25.577l1.3-3.757l10.692,3.757h8.526V94.071z
	 M817.493,94.071h-2.167l-8.67-3.179l0.289-0.867V52.021l-4.913-12.572l-10.116,3.035v1.734l3.757,10.837v37.57
	c-7.225,2.312-14.739,2.457-21.819-0.144V48.697l-8.814-3.179l-2.457,6.357v41.039c-7.659,2.891-15.028,2.602-22.831-0.144V57.656
	l-2.168-6.357l-9.104,3.179v39.594h-16.185v10.115h23.843l1.156-3.179c10.404,4.046,20.81,5.347,31.213-0.867
	c10.549,6.214,23.409,6.358,34.104,0.434l9.681,3.612h5.202V94.071z M769.952,23.555c0,3.468,2.89,6.357,6.213,6.357
	c3.613,0,6.503-2.89,6.503-6.357c0-3.613-2.89-6.359-6.503-6.359C772.842,17.195,769.952,19.941,769.952,23.555 M758.681,29.912
	c3.612,0,6.502-2.89,6.502-6.357c0-3.613-2.89-6.359-6.502-6.359c-3.323,0-6.214,2.746-6.214,6.359
	C752.467,27.022,755.357,29.912,758.681,29.912 M767.206,12.717c3.613,0,6.503-2.891,6.503-6.358c0-3.613-2.89-6.358-6.503-6.358
	c-3.323,0-6.213,2.745-6.213,6.358C760.993,9.826,763.883,12.717,767.206,12.717 M713.871,94.071h-17.918V47.252l-2.89-7.803
	l-8.382,3.035v51.587H648.7c-9.248,0-14.594-6.502-14.594-15.173c0-9.681,0.722-12.282,2.601-20.375l-8.526-3.179l-4.479,13.006
	c-0.578,2.745-0.867,5.635-0.867,10.548c0,15.029,9.682,25.288,27.312,25.288h42.193l1.445-3.901l10.838,3.901h9.248V94.071z
	 M666.33,40.895c3.612,0,6.503-2.891,6.503-6.358c0-3.612-2.891-6.357-6.503-6.357c-3.324,0-6.214,2.745-6.214,6.357
	C660.116,38.004,663.006,40.895,666.33,40.895 M648.845,40.895c3.613,0,6.503-2.891,6.503-6.358c0-3.612-2.89-6.357-6.503-6.357
	c-3.323,0-6.214,2.745-6.214,6.357C642.631,38.004,645.521,40.895,648.845,40.895"/>
</svg>
