<?xml version="1.0" encoding="utf-8"?>
<!-- Generator: Adobe Illustrator 16.0.0, SVG Export Plug-In . SVG Version: 6.00 Build 0)  -->
<!DOCTYPE svg PUBLIC "-//W3C//DTD SVG 1.1//EN" "http://www.w3.org/Graphics/SVG/1.1/DTD/svg11.dtd">
<svg version="1.1" id="Layer_1" xmlns="http://www.w3.org/2000/svg" xmlns:xlink="http://www.w3.org/1999/xlink" x="0px" y="0px"
	 width="1800px" height="167.645px" viewBox="0 0 1800 167.645" enable-background="new 0 0 1800 167.645" xml:space="preserve">
<g>
	<rect x="0" y="93.759" fill="#AEDAF3" width="1800" height="10"/>
</g>
<path fill="#333333" d="M611.352,93.659h-58.379l-2.891,7.514l9.971,3.613h32.514l-3.468,9.681v53.178h10.114l2.168-5.779v-57.078
	h0.288l9.683-3.613V93.659L611.352,93.659z M536.877,94.382l-1.88-0.723h-29.911l-2.745,7.225l14.017,3.902
	c-5.203,9.825-4.479,23.265-2.746,33.091l5.349,29.768h10.113l1.302-3.611l-5.202-27.745c-0.867-4.624-3.181-21.387,0-31.501h10.838
	l0.867-2.168L536.877,94.382L536.877,94.382z M485.725,115.189c-0.146-13.148-5.202-21.529-18.207-21.529h-41.184l-2.603,6.936
	l10.549,3.757c-7.657,23.41-1.59,29.19,10.261,34.104h8.671l2.89-7.948c-7.659-2.456-12.717-4.624-14.884-7.658
	c0-3.468,0.722-8.813,3.9-18.062h19.941c6.358,0,8.815,2.89,8.815,10.259c0,15.317,0,28.034-1.156,41.473h-43.062v11.127h50.433
	l4.189-11.561C486.014,142.501,485.725,130.507,485.725,115.189 M343.793,93.659l-2.746,7.803l11.85,3.324l-3.757,14.306
	c0,15.317,1.156,25.433,4.046,36.703l-14.884,3.613v8.235h21.819l4.19-11.561c-2.312-11.271-3.323-21.675-3.323-36.992v-14.306
	h24.71c6.358,0,8.815,2.89,8.815,10.259v52.6h11.849v-51.588c0-13.583-4.913-22.396-18.207-22.396H343.793z"/>
<path fill="#333333" d="M1008.552,94.071h-48.843c8.093-28.467,25.289-44.507,37.859-44.507c4.77,0,8.094,0.724,10.838,1.879
	L1008.552,94.071z M997.569,39.448c-7.658,0-23.266,5.637-35.547,26.155l1.589-6.068V18.352l-4.479-12.139l-9.394,3.469v1.733
	l3.757,9.972v62.714c-1.155,3.18-2.168,6.503-3.034,9.971h-19.509v10.115h85.257l3.613-10.115V63.727
	C1019.823,48.119,1017.076,39.448,997.569,39.448 M932.414,94.071H917.82V83.522c0-15.461-18.062-35.402-35.837-43.206h-5.348
	l39.161-14.161l-2.891-7.081h-6.646L868.4,32.946l-2.746,8.96v1.012c21.819,9.537,34.825,25.288,40.895,35.26v15.895H860.74v10.115
	h53.467l1.444-3.9l10.981,3.9h5.781V94.071L932.414,94.071z M862.288,94.071h-16.906V7.369h-8.813l-2.457,6.646v80.055h-17.918
	v10.115h25.577l1.3-3.757l10.692,3.757h8.526L862.288,94.071L862.288,94.071z M817.492,94.071h-2.167l-8.67-3.179l0.289-0.867
	V52.021l-4.913-12.572l-10.116,3.035v1.734l3.758,10.837v37.57c-7.226,2.312-14.739,2.457-21.819-0.145V48.697l-8.814-3.179
	l-2.457,6.357v41.039c-7.658,2.891-15.027,2.602-22.83-0.145V57.656l-2.168-6.356l-9.104,3.179v39.594h-16.185v10.115h23.843
	l1.156-3.179c10.403,4.046,20.81,5.347,31.213-0.867c10.549,6.214,23.409,6.358,34.104,0.435l9.681,3.611h5.202L817.492,94.071
	L817.492,94.071z M769.951,23.555c0,3.468,2.891,6.357,6.213,6.357c3.613,0,6.504-2.891,6.504-6.357
	c0-3.613-2.891-6.359-6.504-6.359C772.842,17.195,769.951,19.941,769.951,23.555 M758.681,29.912c3.612,0,6.502-2.891,6.502-6.357
	c0-3.613-2.89-6.359-6.502-6.359c-3.323,0-6.214,2.746-6.214,6.359C752.467,27.022,755.357,29.912,758.681,29.912 M767.205,12.717
	c3.613,0,6.504-2.891,6.504-6.358c0-3.612-2.891-6.357-6.504-6.357c-3.322,0-6.213,2.745-6.213,6.357
	C760.992,9.826,763.883,12.717,767.205,12.717 M713.87,94.071h-17.918V47.252l-2.89-7.804l-8.382,3.035v51.587h-35.981
	c-9.248,0-14.594-6.502-14.594-15.173c0-9.681,0.722-12.282,2.602-20.375l-8.526-3.179l-4.479,13.006
	c-0.578,2.745-0.866,5.635-0.866,10.548c0,15.029,9.682,25.288,27.312,25.288h42.193l1.444-3.9l10.839,3.9h9.247V94.071
	L713.87,94.071z M666.329,40.895c3.612,0,6.503-2.891,6.503-6.357c0-3.612-2.891-6.357-6.503-6.357
	c-3.323,0-6.214,2.745-6.214,6.357C660.115,38.004,663.006,40.895,666.329,40.895 M648.845,40.895c3.612,0,6.503-2.891,6.503-6.357
	c0-3.612-2.891-6.357-6.503-6.357c-3.323,0-6.214,2.745-6.214,6.357C642.631,38.004,645.521,40.895,648.845,40.895"/>
</svg>
