<?xml version="1.0" encoding="utf-8"?>
<!-- Generator: Adobe Illustrator 16.0.0, SVG Export Plug-In . SVG Version: 6.00 Build 0)  -->
<!DOCTYPE svg PUBLIC "-//W3C//DTD SVG 1.1//EN" "http://www.w3.org/Graphics/SVG/1.1/DTD/svg11.dtd">
<svg version="1.1" id="Layer_1" xmlns="http://www.w3.org/2000/svg" xmlns:xlink="http://www.w3.org/1999/xlink" x="0px" y="0px"
	 width="560.809px" height="174.839px" viewBox="0 0 560.809 174.839" enable-background="new 0 0 560.809 174.839"
	 xml:space="preserve">
<g>
	<g>
		<defs>
			<rect id="SVGID_1_" x="0" width="560.809" height="174.839"/>
		</defs>
		<clipPath id="SVGID_2_">
			<use xlink:href="#SVGID_1_"  overflow="visible"/>
		</clipPath>
		
			<line clip-path="url(#SVGID_2_)" fill="none" stroke="#AEDAF3" stroke-width="0.439" x1="0" y1="166.557" x2="464.658" y2="166.557"/>
	</g>
	<g>
		<defs>
			<rect id="SVGID_3_" x="0" width="560.809" height="174.839"/>
		</defs>
		<clipPath id="SVGID_4_">
			<use xlink:href="#SVGID_3_"  overflow="visible"/>
		</clipPath>
		
			<line clip-path="url(#SVGID_4_)" fill="none" stroke="#AEDAF3" stroke-width="0.439" x1="0" y1="123.817" x2="464.658" y2="123.817"/>
	</g>
	<g>
		<defs>
			<rect id="SVGID_5_" x="0" width="560.809" height="174.839"/>
		</defs>
		<clipPath id="SVGID_6_">
			<use xlink:href="#SVGID_5_"  overflow="visible"/>
		</clipPath>
		
			<line clip-path="url(#SVGID_6_)" fill="none" stroke="#AEDAF3" stroke-width="0.439" x1="0" y1="155.083" x2="464.658" y2="155.083"/>
	</g>
	<g>
		<defs>
			<rect id="SVGID_7_" x="0" width="560.809" height="174.839"/>
		</defs>
		<clipPath id="SVGID_8_">
			<use xlink:href="#SVGID_7_"  overflow="visible"/>
		</clipPath>
		
			<line clip-path="url(#SVGID_8_)" fill="none" stroke="#AEDAF3" stroke-width="0.439" x1="0" y1="14.515" x2="464.658" y2="14.515"/>
	</g>
</g>
<line fill="none" stroke="#AEDAF3" stroke-width="0.4593" x1="0" y1="110.916" x2="464.658" y2="110.916"/>
<g>
	<g>
		<defs>
			<rect id="SVGID_9_" x="0" width="560.809" height="174.839"/>
		</defs>
		<clipPath id="SVGID_10_">
			<use xlink:href="#SVGID_9_"  overflow="visible"/>
		</clipPath>
		
			<line clip-path="url(#SVGID_10_)" fill="none" stroke="#AEDAF3" stroke-width="0.439" x1="0" y1="52.143" x2="464.702" y2="52.143"/>
	</g>
	<g>
		<defs>
			<rect id="SVGID_11_" x="0" width="560.809" height="174.839"/>
		</defs>
		<clipPath id="SVGID_12_">
			<use xlink:href="#SVGID_11_"  overflow="visible"/>
		</clipPath>
		
			<line clip-path="url(#SVGID_12_)" fill="none" stroke="#AEDAF3" stroke-width="0.439" x1="0" y1="39.186" x2="464.702" y2="39.186"/>
	</g>
	<g>
		<defs>
			<rect id="SVGID_13_" x="0" width="560.809" height="174.839"/>
		</defs>
		<clipPath id="SVGID_14_">
			<use xlink:href="#SVGID_13_"  overflow="visible"/>
		</clipPath>
		<g clip-path="url(#SVGID_14_)">
			<g>
				<g>
					<defs>
						<rect id="SVGID_15_" x="248.842" y="1.578" width="300.981" height="165.944"/>
					</defs>
					<clipPath id="SVGID_16_">
						<use xlink:href="#SVGID_15_"  overflow="visible"/>
					</clipPath>
					<path clip-path="url(#SVGID_16_)" fill="#333333" d="M272.177,100.451c0-16.641,0-32.458,2.801-47.946h0.165l-12.853-4.119
						l3.625-10.874l9.228,1.812c8.401,1.648,12.852,4.614,11.862,14.17c-1.647,15.158-1.317,29.658-1.317,45.97v45.64l-3.625,9.886
						h-9.886V100.451L272.177,100.451z M368.894,123.683h-63.764v-12.688h41.851V63.709c0-8.403-2.801-11.698-10.051-11.698h-21.749
						l-11.369-4.119l3.296-8.568h33.282c15.158,0,20.595,10.051,20.595,25.539v35.26l-3.953,10.875h0.329l11.533,3.625V123.683
						L368.894,123.683z M410.583,103.087c10.709-15.816,14.828-24.549,14.828-48.771V52.01h-44.485l-2.143-5.767l-1.481-23.396
						V17.08l7.414-2.471h5.271l1.483,24.714h35.919c8.238,0,11.204,6.426,11.204,13.182v3.131c0,23.726-3.955,33.775-16.478,53.383
						l-9.392,14.664h-11.039v-7.414L410.583,103.087z"/>
				</g>
			</g>
			<g>
				<defs>
					<rect id="SVGID_17_" x="0" width="560.809" height="174.839"/>
				</defs>
				<clipPath id="SVGID_18_">
					<use xlink:href="#SVGID_17_"  overflow="visible"/>
				</clipPath>
				<g clip-path="url(#SVGID_18_)">
					<g>
						<g>
							<defs>
								<rect id="SVGID_19_" x="7.139" y="1.576" width="357.497" height="165.944"/>
							</defs>
							<clipPath id="SVGID_20_">
								<use xlink:href="#SVGID_19_"  overflow="visible"/>
							</clipPath>
							<path clip-path="url(#SVGID_20_)" fill="#333333" d="M54.694,123.682c-7.084,0-19.607,1.317-19.607,15.651
								c0,8.732,7.085,15.652,26.692,15.652h8.568l2.636,7.579l-10.38,3.954c-27.517,0-40.367-11.203-40.367-27.186
								c0-14.006,9.721-27.188,28.999-27.188H81.88c-2.801-7.249-4.613-16.641-5.767-24.879C73.477,68.155,64.745,61.4,53.706,61.4
								c-8.567,0-12.027,3.131-12.027,3.131l-2.967,8.073l-10.709-3.79l3.46-9.886c0,0,6.427-9.062,22.737-9.062
								c20.266,0,30.976,14.993,34.271,37.401c0.988,6.591,3.295,18.783,5.767,24.879L89.79,123.68H54.694V123.682z
								 M125.215,123.682h-12.852V15.431l9.557-3.46l3.295,8.897V123.682z M191.288,123.682h-11.534l-12.521-4.449
								c-1.647,23.892-11.204,32.953-22.573,35.754h-11.534l-2.471-6.92l10.545-3.79c4.943-1.812,10.215-5.271,12.357-11.367
								c0.987-5.438,0.987-13.347,0.987-25.539V58.435l3.131-8.567l9.722,3.46v58.82h23.891L191.288,123.682L191.288,123.682z
								 M233.305,112.147l-4.119,11.534h-42.839v-11.534h34.105v-58.82l9.556-3.46l3.296,8.732L233.305,112.147L233.305,112.147z
								 M223.254,142.3c0,3.953-3.295,7.248-7.414,7.248c-3.79,0-7.085-3.295-7.085-7.248c0-4.119,3.295-7.25,7.085-7.25
								C219.959,135.05,223.254,138.181,223.254,142.3z"/>
						</g>
					</g>
				</g>
				<g clip-path="url(#SVGID_18_)">
					<path fill="#333333" d="M475.856,9.72h1.061l2.515,6.928h-1.028l-0.724-2.075h-2.718l-0.752,2.075h-0.962L475.856,9.72z
						 M477.413,13.809l-1.065-3.061l-1.108,3.061H477.413z"/>
					<path fill="#333333" d="M480.669,15.063c0.024,0.282,0.098,0.499,0.217,0.65c0.218,0.273,0.597,0.41,1.136,0.41
						c0.321,0,0.604-0.068,0.847-0.205c0.244-0.137,0.366-0.349,0.366-0.635c0-0.217-0.098-0.382-0.292-0.495
						c-0.125-0.068-0.371-0.148-0.738-0.24l-0.686-0.17c-0.438-0.106-0.761-0.226-0.968-0.358c-0.371-0.229-0.557-0.547-0.557-0.952
						c0-0.478,0.175-0.864,0.522-1.16c0.35-0.296,0.818-0.443,1.408-0.443c0.771,0,1.326,0.224,1.667,0.67
						c0.214,0.283,0.316,0.588,0.312,0.915h-0.802c-0.017-0.191-0.086-0.364-0.208-0.521c-0.199-0.223-0.545-0.333-1.038-0.333
						c-0.328,0-0.576,0.061-0.745,0.183s-0.254,0.284-0.254,0.484c0,0.219,0.111,0.395,0.333,0.526
						c0.128,0.078,0.317,0.147,0.567,0.207l0.57,0.137c0.622,0.147,1.038,0.291,1.249,0.429c0.331,0.217,0.496,0.559,0.496,1.023
						c0,0.449-0.173,0.838-0.519,1.165c-0.347,0.327-0.871,0.49-1.578,0.49c-0.761,0-1.299-0.171-1.616-0.512
						c-0.315-0.341-0.486-0.763-0.508-1.266L480.669,15.063L480.669,15.063z"/>
					<path fill="#333333" d="M488.329,11.866c0.356,0.276,0.571,0.753,0.645,1.429h-0.825c-0.051-0.312-0.165-0.57-0.345-0.776
						c-0.18-0.205-0.467-0.309-0.862-0.309c-0.541,0-0.928,0.264-1.16,0.791c-0.15,0.343-0.227,0.765-0.227,1.268
						c0,0.505,0.105,0.931,0.319,1.276c0.215,0.345,0.552,0.518,1.011,0.518c0.352,0,0.631-0.107,0.837-0.321
						c0.206-0.215,0.348-0.509,0.427-0.881h0.825c-0.095,0.67-0.33,1.159-0.707,1.469c-0.378,0.31-0.86,0.465-1.448,0.465
						c-0.66,0-1.187-0.241-1.579-0.725c-0.394-0.482-0.59-1.085-0.59-1.808c0-0.887,0.215-1.577,0.646-2.07
						c0.431-0.494,0.979-0.74,1.646-0.74C487.51,11.451,487.972,11.589,488.329,11.866z"/>
					<path fill="#333333" d="M492.941,11.736c0.334,0.168,0.589,0.386,0.764,0.653c0.169,0.254,0.281,0.552,0.339,0.891
						c0.05,0.232,0.073,0.604,0.073,1.113h-3.673c0.017,0.514,0.136,0.926,0.36,1.236c0.224,0.31,0.571,0.466,1.043,0.466
						c0.439,0,0.791-0.146,1.053-0.44c0.146-0.171,0.251-0.368,0.312-0.592h0.835c-0.022,0.185-0.096,0.392-0.22,0.62
						c-0.125,0.228-0.264,0.414-0.416,0.559c-0.256,0.251-0.571,0.421-0.949,0.509c-0.203,0.051-0.433,0.075-0.688,0.075
						c-0.625,0-1.154-0.229-1.589-0.686s-0.651-1.098-0.651-1.922c0-0.812,0.22-1.47,0.656-1.976c0.438-0.506,1.009-0.76,1.715-0.76
						C492.262,11.483,492.606,11.568,492.941,11.736z M493.245,13.719c-0.033-0.367-0.112-0.661-0.237-0.882
						c-0.23-0.408-0.616-0.612-1.155-0.612c-0.387,0-0.711,0.141-0.973,0.422c-0.263,0.281-0.4,0.639-0.416,1.072H493.245z"/>
					<path fill="#333333" d="M495.192,11.597h0.807v0.717c0.239-0.295,0.492-0.508,0.761-0.637c0.267-0.129,0.562-0.193,0.891-0.193
						c0.717,0,1.201,0.25,1.453,0.75c0.138,0.273,0.207,0.665,0.207,1.175v3.239h-0.863v-3.183c0-0.309-0.045-0.557-0.137-0.745
						c-0.15-0.314-0.424-0.472-0.82-0.472c-0.201,0-0.366,0.021-0.495,0.061c-0.231,0.069-0.437,0.208-0.612,0.415
						c-0.143,0.167-0.233,0.339-0.275,0.517c-0.043,0.178-0.062,0.432-0.062,0.762v2.646h-0.851v-5.052H495.192z"/>
					<path fill="#333333" d="M503.34,11.753c0.149,0.094,0.319,0.259,0.512,0.495V9.696h0.815v6.951h-0.765v-0.702
						c-0.197,0.311-0.431,0.535-0.7,0.674c-0.269,0.139-0.576,0.207-0.925,0.207c-0.561,0-1.046-0.236-1.456-0.709
						c-0.411-0.474-0.616-1.103-0.616-1.889c0-0.736,0.188-1.373,0.562-1.912s0.909-0.809,1.604-0.809
						C502.757,11.508,503.079,11.589,503.34,11.753z M501.444,15.539c0.229,0.365,0.594,0.547,1.098,0.547
						c0.392,0,0.713-0.169,0.965-0.507s0.378-0.822,0.378-1.454c0-0.639-0.13-1.111-0.391-1.418c-0.26-0.306-0.58-0.459-0.962-0.459
						c-0.425,0-0.771,0.163-1.034,0.49c-0.265,0.327-0.396,0.808-0.396,1.443C501.102,14.722,501.217,15.175,501.444,15.539z"/>
					<path fill="#333333" d="M509.055,11.736c0.334,0.168,0.589,0.386,0.764,0.653c0.169,0.254,0.281,0.552,0.338,0.891
						c0.051,0.232,0.074,0.604,0.074,1.113h-3.673c0.016,0.514,0.136,0.926,0.36,1.236c0.224,0.31,0.571,0.466,1.043,0.466
						c0.439,0,0.791-0.146,1.053-0.44c0.146-0.171,0.251-0.368,0.312-0.592h0.835c-0.021,0.185-0.095,0.392-0.219,0.62
						c-0.125,0.228-0.264,0.414-0.416,0.559c-0.256,0.251-0.572,0.421-0.95,0.509c-0.202,0.051-0.432,0.075-0.688,0.075
						c-0.625,0-1.154-0.229-1.589-0.686c-0.436-0.457-0.651-1.098-0.651-1.922c0-0.812,0.219-1.47,0.656-1.976
						c0.437-0.506,1.009-0.76,1.715-0.76C508.376,11.483,508.72,11.568,509.055,11.736z M509.358,13.719
						c-0.034-0.367-0.113-0.661-0.238-0.882c-0.229-0.408-0.615-0.612-1.154-0.612c-0.388,0-0.711,0.141-0.974,0.422
						c-0.262,0.281-0.399,0.639-0.416,1.072H509.358z"/>
					<path fill="#333333" d="M511.33,11.597h0.807v0.873c0.065-0.17,0.229-0.377,0.485-0.62c0.259-0.244,0.556-0.366,0.892-0.366
						c0.016,0,0.043,0.002,0.08,0.005c0.038,0.003,0.103,0.01,0.192,0.02v0.896c-0.05-0.01-0.097-0.016-0.139-0.019
						c-0.043-0.003-0.089-0.005-0.14-0.005c-0.428,0-0.756,0.138-0.985,0.412c-0.229,0.275-0.344,0.592-0.344,0.95v2.905h-0.85
						L511.33,11.597L511.33,11.597z"/>
				</g>
				<path clip-path="url(#SVGID_18_)" fill="#333333" d="M515.591,35.925c1.05,0,1.438,0.696,1.438,1.769v4.075h-0.936v-4.154
					c0-0.583-0.194-0.811-0.696-0.811h-1.952v1.13c0,1.21,0.08,2.031,0.264,2.922l-0.331,0.913h-1.724v-0.65l1.175-0.286
					c-0.228-0.89-0.318-1.688-0.318-2.898l0.297-1.13l-0.937-0.263l0.218-0.616h3.503V35.925z M518.683,35.925
					c0.649,0.125,0.947,0.342,0.947,1.004v1.633l-0.273,0.753h-0.662v-2.466l-0.742-0.262l0.264-0.754L518.683,35.925z
					 M523.316,35.925c1.05,0,1.438,0.696,1.438,1.769v3.618l-0.173,0.457h-0.765v-4.154c0-0.583-0.193-0.811-0.696-0.811h-1.883
					l-0.788-0.285l0.229-0.594H523.316z M530.37,41.769h-4.417V40.89h2.898v-3.275c0-0.583-0.193-0.811-0.695-0.811h-1.507
					l-0.788-0.285l0.229-0.594h2.306c1.05,0,1.427,0.696,1.427,1.769v2.442l-0.273,0.754h0.022l0.799,0.251L530.37,41.769
					L530.37,41.769z M536.044,36.94c-0.138,4.166-0.88,4.291-3.974,5.136l-0.251,0.068h-0.434l-0.148-0.741l0.537-0.148
					c0.399-0.114,0.753-0.194,1.062-0.285c-0.252-1.336-0.812-3.104-1.484-4.714l0.582-0.331h0.309
					c0.604,1.529,1.084,3.275,1.21,3.926l0.022,0.937c1.267-0.411,1.495-0.947,1.621-3.847l0.021-0.514l0.171-0.502h0.788
					L536.044,36.94z"/>
				<g clip-path="url(#SVGID_18_)">
					<path fill="#333333" d="M473.241,36.72h1.1l1.16,1.778l1.174-1.778l1.033,0.023l-1.702,2.438l1.776,2.589h-1.085l-1.254-1.896
						l-1.217,1.896h-1.075l1.778-2.589L473.241,36.72z"/>
					<path fill="#333333" d="M478.329,38.644h2.368v0.873h-2.368V38.644z"/>
					<path fill="#333333" d="M481.767,34.819h0.85v2.584c0.201-0.254,0.382-0.434,0.542-0.537c0.273-0.18,0.614-0.269,1.023-0.269
						c0.731,0,1.229,0.256,1.49,0.769c0.142,0.279,0.212,0.668,0.212,1.165v3.239h-0.872v-3.183c0-0.371-0.048-0.644-0.143-0.816
						c-0.153-0.276-0.442-0.415-0.867-0.415c-0.353,0-0.672,0.121-0.957,0.363c-0.286,0.242-0.43,0.699-0.43,1.372v2.679h-0.85
						L481.767,34.819L481.767,34.819z"/>
					<path fill="#333333" d="M490.259,36.859c0.334,0.168,0.589,0.386,0.764,0.653c0.169,0.254,0.281,0.552,0.338,0.891
						c0.05,0.232,0.074,0.604,0.074,1.113h-3.673c0.016,0.514,0.136,0.926,0.359,1.236c0.225,0.31,0.572,0.466,1.043,0.466
						c0.44,0,0.791-0.146,1.054-0.44c0.146-0.171,0.251-0.368,0.312-0.592h0.835c-0.021,0.185-0.095,0.392-0.219,0.62
						c-0.125,0.228-0.264,0.414-0.416,0.559c-0.256,0.251-0.572,0.421-0.95,0.509c-0.203,0.051-0.432,0.075-0.688,0.075
						c-0.625,0-1.154-0.229-1.589-0.686c-0.436-0.457-0.651-1.098-0.651-1.922c0-0.811,0.219-1.47,0.656-1.976
						c0.437-0.506,1.009-0.76,1.715-0.76C489.578,36.606,489.924,36.691,490.259,36.859z M490.562,38.842
						c-0.034-0.367-0.113-0.661-0.238-0.882c-0.229-0.408-0.616-0.612-1.154-0.612c-0.388,0-0.712,0.141-0.974,0.422
						s-0.399,0.639-0.416,1.072H490.562z"/>
					<path fill="#333333" d="M492.51,34.843h0.862v0.963h-0.862V34.843z M492.51,36.743h0.862v5.027h-0.862V36.743z"/>
					<path fill="#333333" d="M497.464,36.923c0.158,0.11,0.321,0.271,0.487,0.48v-0.636h0.782v4.593
						c0,0.642-0.094,1.147-0.281,1.519c-0.352,0.686-1.014,1.027-1.987,1.027c-0.542,0-0.998-0.121-1.368-0.365
						c-0.369-0.243-0.576-0.625-0.62-1.144h0.863c0.04,0.227,0.121,0.401,0.243,0.523c0.19,0.188,0.49,0.283,0.899,0.283
						c0.647,0,1.071-0.229,1.271-0.688c0.118-0.271,0.174-0.753,0.163-1.447c-0.168,0.258-0.372,0.449-0.609,0.575
						c-0.238,0.125-0.553,0.188-0.944,0.188c-0.545,0-1.021-0.194-1.431-0.583c-0.408-0.388-0.612-1.03-0.612-1.926
						c0-0.846,0.205-1.506,0.617-1.98c0.412-0.474,0.909-0.712,1.491-0.712C496.823,36.631,497.169,36.728,497.464,36.923z
						 M497.566,37.833c-0.257-0.302-0.583-0.453-0.979-0.453c-0.596,0-1.002,0.28-1.221,0.84c-0.115,0.299-0.174,0.69-0.174,1.174
						c0,0.569,0.115,1.002,0.345,1.3c0.229,0.297,0.539,0.445,0.928,0.445c0.605,0,1.032-0.275,1.279-0.825
						c0.139-0.312,0.207-0.675,0.207-1.09C497.951,38.599,497.822,38.135,497.566,37.833z"/>
					<path fill="#333333" d="M500.025,34.819h0.851v2.584c0.2-0.254,0.382-0.434,0.541-0.537c0.273-0.18,0.614-0.269,1.023-0.269
						c0.732,0,1.229,0.256,1.49,0.769c0.142,0.279,0.212,0.668,0.212,1.165v3.239h-0.872v-3.183c0-0.371-0.048-0.644-0.142-0.816
						c-0.154-0.276-0.443-0.415-0.868-0.415c-0.353,0-0.671,0.121-0.957,0.363c-0.286,0.242-0.43,0.699-0.43,1.372v2.679h-0.85
						L500.025,34.819L500.025,34.819z"/>
					<path fill="#333333" d="M505.566,35.31h0.858v1.41h0.807v0.693h-0.807v3.297c0,0.176,0.06,0.294,0.18,0.354
						c0.065,0.034,0.176,0.052,0.33,0.052c0.04,0,0.085-0.001,0.132-0.003s0.103-0.008,0.165-0.017v0.675
						c-0.098,0.028-0.199,0.049-0.305,0.062c-0.106,0.013-0.219,0.019-0.342,0.019c-0.396,0-0.666-0.102-0.807-0.304
						c-0.142-0.203-0.213-0.467-0.213-0.79v-3.344h-0.684V36.72h0.684L505.566,35.31L505.566,35.31z"/>
				</g>
				<path clip-path="url(#SVGID_18_)" fill="#333333" d="M521.399,10.804c1.05,0,1.438,0.695,1.438,1.769v5.536l-0.264,0.707h-0.673
					v-6.323c0-0.582-0.193-0.811-0.696-0.811h-1.482c-0.331,0.913-0.411,1.404-0.411,1.713c0.171,0.239,0.548,0.376,1.084,0.57
					l-0.251,0.685h-0.57c-0.98-0.411-1.461-0.89-0.695-3.002l-0.88-0.308l0.218-0.536H521.399z M527.768,10.804
					c1.051,0,1.438,0.695,1.438,1.769v4.075h-0.936v-4.155c0-0.582-0.194-0.811-0.696-0.811h-1.952v1.13
					c0,1.21,0.08,2.032,0.264,2.922l-0.331,0.914h-1.725v-0.651l1.177-0.285c-0.229-0.89-0.319-1.689-0.319-2.899l0.297-1.13
					l-0.937-0.262l0.217-0.616L527.768,10.804L527.768,10.804z M531.066,10.804c0.662,0.147,0.937,0.228,0.937,0.89v4.497
					l-0.172,0.457h-0.799v-4.954l-0.799-0.285l0.229-0.742L531.066,10.804z M539.079,12.47c-0.159,2.864-0.937,4.166-3.722,4.178
					h-0.422l-0.708-0.286l0.012-0.022l-0.811-4.395l-0.319-0.901l0.64-0.239h0.252l0.308,0.901l0.331,1.94
					c0.365-0.377,0.548-1.119,0.845-1.884l0.31-0.799l0.272-0.273l0.708,0.331v0.057l-0.365,0.981
					c-0.319,0.867-0.708,1.906-1.644,2.283l0.251,1.449h0.318c2.021,0,2.604-0.708,2.785-3.47l0.08-1.176l0.184-0.422l0.774,0.297
					L539.079,12.47z M545.311,15.803l-0.229,0.845h-2.431v-0.594l0.799-0.297h0.913c-0.067-0.719-0.103-1.164-0.103-2.101
					c0-1.438-0.148-1.951-1.303-1.963l-1.004-0.012c-0.444,1.644-0.411,3.505-0.468,4.966h-0.582l-0.377-0.138
					c0.068-1.769,0.217-3.321,0.377-4.006l0.331-0.811h-0.023l-0.98-0.239l0.263-0.662l1.038,0.057l1.507-0.034
					c1.495-0.034,2.181,0.879,2.157,2.819C545.185,14.433,545.242,15.117,545.311,15.803z"/>
				<g clip-path="url(#SVGID_18_)">
					<path fill="#333333" d="M473.241,49.661h1.1l1.16,1.778l1.174-1.778l1.033,0.023l-1.702,2.438l1.776,2.589h-1.085l-1.254-1.896
						l-1.217,1.896h-1.075l1.778-2.589L473.241,49.661z"/>
					<path fill="#333333" d="M478.329,51.585h2.368v0.873h-2.368V51.585z"/>
					<path fill="#333333" d="M481.767,47.761h0.85v2.584c0.201-0.254,0.382-0.434,0.542-0.537c0.273-0.18,0.614-0.269,1.023-0.269
						c0.731,0,1.229,0.256,1.49,0.769c0.142,0.279,0.212,0.668,0.212,1.165v3.239h-0.872v-3.183c0-0.371-0.048-0.644-0.143-0.816
						c-0.153-0.276-0.442-0.415-0.867-0.415c-0.353,0-0.672,0.121-0.957,0.363c-0.286,0.242-0.43,0.699-0.43,1.372v2.679h-0.85
						L481.767,47.761L481.767,47.761z"/>
					<path fill="#333333" d="M490.259,49.801c0.334,0.168,0.589,0.386,0.764,0.653c0.169,0.254,0.281,0.552,0.338,0.891
						c0.05,0.232,0.074,0.604,0.074,1.113h-3.673c0.016,0.514,0.136,0.926,0.359,1.236c0.225,0.31,0.572,0.466,1.043,0.466
						c0.44,0,0.791-0.146,1.054-0.44c0.146-0.171,0.251-0.368,0.312-0.592h0.835c-0.021,0.185-0.095,0.392-0.219,0.62
						c-0.125,0.228-0.264,0.414-0.416,0.559c-0.256,0.251-0.572,0.421-0.95,0.509c-0.203,0.051-0.432,0.075-0.688,0.075
						c-0.625,0-1.154-0.229-1.589-0.686c-0.436-0.457-0.651-1.098-0.651-1.922c0-0.811,0.219-1.47,0.656-1.976
						c0.437-0.506,1.009-0.76,1.715-0.76C489.578,49.548,489.924,49.633,490.259,49.801z M490.562,51.783
						c-0.034-0.367-0.113-0.661-0.238-0.882c-0.229-0.408-0.616-0.612-1.154-0.612c-0.388,0-0.712,0.141-0.974,0.422
						c-0.262,0.281-0.399,0.639-0.416,1.072H490.562z"/>
					<path fill="#333333" d="M492.51,47.784h0.862v0.963h-0.862V47.784z M492.51,49.685h0.862v5.027h-0.862V49.685z"/>
					<path fill="#333333" d="M497.464,49.864c0.158,0.11,0.321,0.271,0.487,0.48v-0.636h0.782v4.593
						c0,0.642-0.094,1.146-0.281,1.519c-0.352,0.686-1.014,1.027-1.987,1.027c-0.542,0-0.998-0.121-1.368-0.365
						c-0.369-0.243-0.576-0.625-0.62-1.144h0.863c0.04,0.227,0.121,0.401,0.243,0.523c0.19,0.188,0.49,0.283,0.899,0.283
						c0.647,0,1.071-0.229,1.271-0.688c0.118-0.271,0.174-0.753,0.163-1.447c-0.168,0.258-0.372,0.449-0.609,0.575
						c-0.238,0.125-0.553,0.188-0.944,0.188c-0.545,0-1.021-0.194-1.431-0.583c-0.408-0.388-0.612-1.03-0.612-1.926
						c0-0.846,0.205-1.506,0.617-1.98c0.412-0.474,0.909-0.712,1.491-0.712C496.823,49.572,497.169,49.669,497.464,49.864z
						 M497.566,50.774c-0.257-0.302-0.583-0.453-0.979-0.453c-0.596,0-1.002,0.28-1.221,0.84c-0.115,0.299-0.174,0.69-0.174,1.174
						c0,0.569,0.115,1.002,0.345,1.3c0.229,0.297,0.539,0.445,0.928,0.445c0.605,0,1.032-0.275,1.279-0.825
						c0.139-0.312,0.207-0.675,0.207-1.09C497.951,51.54,497.822,51.076,497.566,50.774z"/>
					<path fill="#333333" d="M500.025,47.761h0.851v2.584c0.2-0.254,0.382-0.434,0.541-0.537c0.273-0.18,0.614-0.269,1.023-0.269
						c0.732,0,1.229,0.256,1.49,0.769c0.142,0.279,0.212,0.668,0.212,1.165v3.239h-0.872v-3.183c0-0.371-0.048-0.644-0.142-0.816
						c-0.154-0.276-0.443-0.415-0.868-0.415c-0.353,0-0.671,0.121-0.957,0.363c-0.286,0.242-0.43,0.699-0.43,1.372v2.679h-0.85
						L500.025,47.761L500.025,47.761z"/>
					<path fill="#333333" d="M505.566,48.251h0.858v1.41h0.807v0.693h-0.807v3.297c0,0.176,0.06,0.294,0.18,0.354
						c0.065,0.034,0.176,0.052,0.33,0.052c0.04,0,0.085-0.001,0.132-0.003s0.103-0.008,0.165-0.017v0.675
						c-0.098,0.028-0.199,0.049-0.305,0.062c-0.106,0.013-0.219,0.019-0.342,0.019c-0.396,0-0.666-0.102-0.807-0.304
						c-0.142-0.203-0.213-0.467-0.213-0.79v-3.344h-0.684v-0.693h0.684L505.566,48.251L505.566,48.251z"/>
				</g>
				<path clip-path="url(#SVGID_18_)" fill="#333333" d="M515.586,48.868c1.05,0,1.438,0.696,1.438,1.77v4.074h-0.936v-4.154
					c0-0.582-0.194-0.811-0.697-0.811h-1.951v1.13c0,1.21,0.08,2.032,0.263,2.922l-0.331,0.913h-1.724v-0.65l1.176-0.285
					c-0.229-0.891-0.318-1.689-0.318-2.899l0.297-1.13l-0.938-0.263l0.217-0.616L515.586,48.868L515.586,48.868z M518.678,48.868
					c0.65,0.126,0.947,0.343,0.947,1.005v1.632l-0.273,0.753h-0.662v-2.465l-0.742-0.263l0.264-0.753L518.678,48.868z
					 M525.104,54.712h-4.417v-0.879h2.899v-3.275c0-0.582-0.194-0.811-0.696-0.811h-1.507l-0.787-0.285l0.229-0.594h2.307
					c1.05,0,1.427,0.696,1.427,1.77v2.442l-0.274,0.753h0.022l0.799,0.251L525.104,54.712L525.104,54.712z M528.381,48.868
					c1.05,0,1.438,0.696,1.438,1.77v3.618l-0.172,0.456h-0.765v-4.154c0-0.582-0.194-0.811-0.696-0.811h-1.883l-0.788-0.285
					l0.229-0.594H528.381z M535.707,49.884c-0.137,4.166-0.879,4.292-3.972,5.137l-0.251,0.068h-0.434l-0.148-0.742l0.536-0.148
					c0.399-0.114,0.754-0.193,1.062-0.285c-0.252-1.335-0.812-3.104-1.483-4.714l0.582-0.331h0.308
					c0.605,1.529,1.085,3.276,1.21,3.927l0.023,0.936c1.267-0.411,1.495-0.947,1.62-3.847l0.022-0.513l0.171-0.503h0.787
					L535.707,49.884z"/>
				<g clip-path="url(#SVGID_18_)">
					<path fill="#333333" d="M473.812,120.651h2.995c0.816,0,1.396,0.242,1.742,0.728c0.201,0.285,0.304,0.615,0.304,0.99
						c0,0.438-0.124,0.795-0.372,1.074c-0.129,0.146-0.314,0.283-0.557,0.405c0.354,0.136,0.621,0.288,0.797,0.458
						c0.312,0.302,0.467,0.718,0.467,1.249c0,0.446-0.141,0.851-0.422,1.212c-0.421,0.541-1.09,0.812-2.008,0.812h-2.946V120.651z
						 M476.456,123.58c0.4,0,0.713-0.055,0.935-0.164c0.35-0.174,0.523-0.484,0.523-0.935c0-0.453-0.186-0.758-0.558-0.915
						c-0.209-0.088-0.521-0.132-0.934-0.132h-1.691v2.146H476.456z M476.773,126.777c0.581,0,0.995-0.166,1.242-0.5
						c0.155-0.21,0.233-0.465,0.233-0.764c0-0.503-0.228-0.846-0.682-1.028c-0.241-0.097-0.561-0.146-0.957-0.146h-1.88v2.438
						H476.773z"/>
					<path fill="#333333" d="M482.87,124.522c0.195-0.024,0.325-0.106,0.393-0.244c0.038-0.075,0.057-0.187,0.057-0.327
						c0-0.289-0.103-0.5-0.309-0.632c-0.205-0.131-0.499-0.196-0.882-0.196c-0.442,0-0.758,0.121-0.941,0.36
						c-0.104,0.133-0.171,0.33-0.202,0.593h-0.793c0.016-0.625,0.218-1.06,0.605-1.304c0.387-0.244,0.838-0.366,1.35-0.366
						c0.594,0,1.075,0.113,1.446,0.34c0.367,0.227,0.551,0.578,0.551,1.057v2.91c0,0.088,0.018,0.158,0.054,0.211
						c0.036,0.055,0.113,0.08,0.229,0.08c0.037,0,0.08-0.002,0.127-0.006c0.047-0.006,0.098-0.013,0.151-0.021v0.627
						c-0.134,0.038-0.233,0.062-0.303,0.07c-0.068,0.01-0.164,0.015-0.283,0.015c-0.293,0-0.505-0.104-0.637-0.312
						c-0.068-0.109-0.118-0.267-0.146-0.467c-0.173,0.227-0.421,0.422-0.745,0.59c-0.323,0.166-0.682,0.25-1.07,0.25
						c-0.469,0-0.851-0.144-1.148-0.428c-0.297-0.283-0.444-0.64-0.444-1.066c0-0.467,0.146-0.83,0.438-1.088
						s0.677-0.416,1.15-0.476L482.87,124.522z M481.083,126.815c0.181,0.142,0.393,0.212,0.638,0.212
						c0.299,0,0.588-0.068,0.867-0.207c0.472-0.229,0.708-0.604,0.708-1.125v-0.683c-0.104,0.065-0.237,0.12-0.4,0.165
						c-0.163,0.044-0.323,0.076-0.479,0.095l-0.515,0.065c-0.308,0.041-0.538,0.104-0.692,0.192
						c-0.264,0.147-0.395,0.384-0.395,0.706C480.814,126.481,480.904,126.675,481.083,126.815z"/>
					<path fill="#333333" d="M486.039,125.996c0.025,0.281,0.099,0.498,0.218,0.649c0.218,0.272,0.597,0.41,1.136,0.41
						c0.321,0,0.604-0.068,0.847-0.205c0.244-0.138,0.366-0.349,0.366-0.636c0-0.217-0.098-0.381-0.292-0.494
						c-0.125-0.068-0.371-0.148-0.738-0.24l-0.686-0.17c-0.438-0.105-0.761-0.227-0.968-0.357c-0.371-0.229-0.557-0.548-0.557-0.953
						c0-0.478,0.174-0.863,0.522-1.16c0.35-0.295,0.817-0.442,1.408-0.442c0.771,0,1.325,0.224,1.667,0.67
						c0.214,0.283,0.316,0.588,0.312,0.915h-0.802c-0.018-0.191-0.086-0.363-0.208-0.521c-0.199-0.223-0.545-0.332-1.038-0.332
						c-0.328,0-0.576,0.061-0.745,0.183s-0.254,0.284-0.254,0.483c0,0.22,0.111,0.396,0.333,0.526
						c0.128,0.078,0.317,0.147,0.567,0.207l0.57,0.138c0.622,0.146,1.038,0.291,1.249,0.429c0.331,0.217,0.496,0.559,0.496,1.022
						c0,0.449-0.173,0.838-0.519,1.165c-0.347,0.327-0.871,0.49-1.578,0.49c-0.762,0-1.299-0.171-1.616-0.512
						c-0.316-0.341-0.486-0.763-0.508-1.267h0.816V125.996z"/>
					<path fill="#333333" d="M493.483,122.667c0.334,0.168,0.589,0.387,0.764,0.653c0.17,0.255,0.281,0.552,0.339,0.892
						c0.05,0.231,0.073,0.604,0.073,1.113h-3.673c0.017,0.514,0.136,0.926,0.36,1.235c0.224,0.31,0.572,0.466,1.043,0.466
						c0.439,0,0.791-0.146,1.053-0.439c0.146-0.172,0.251-0.368,0.312-0.592h0.835c-0.022,0.185-0.096,0.392-0.22,0.619
						c-0.125,0.229-0.264,0.414-0.416,0.559c-0.256,0.252-0.571,0.422-0.949,0.51c-0.203,0.051-0.433,0.074-0.688,0.074
						c-0.625,0-1.154-0.229-1.589-0.686s-0.651-1.098-0.651-1.922c0-0.811,0.22-1.47,0.656-1.977c0.438-0.506,1.009-0.76,1.715-0.76
						C492.804,122.416,493.148,122.5,493.483,122.667z M493.787,124.65c-0.033-0.367-0.112-0.661-0.237-0.882
						c-0.23-0.408-0.616-0.612-1.155-0.612c-0.387,0-0.711,0.141-0.973,0.422c-0.263,0.281-0.4,0.639-0.416,1.072H493.787z"/>
					<path fill="#333333" d="M495.76,120.651h0.849v6.929h-0.849V120.651z"/>
					<path fill="#333333" d="M497.881,120.651h0.862v0.963h-0.862V120.651z M497.881,122.552h0.862v5.027h-0.862V122.552z"/>
					<path fill="#333333" d="M500.025,122.528h0.808v0.718c0.238-0.295,0.491-0.509,0.76-0.638c0.267-0.129,0.562-0.192,0.891-0.192
						c0.717,0,1.201,0.25,1.453,0.75c0.138,0.272,0.207,0.664,0.207,1.174v3.24h-0.863v-3.184c0-0.309-0.045-0.557-0.137-0.745
						c-0.15-0.313-0.424-0.472-0.82-0.472c-0.201,0-0.365,0.021-0.495,0.061c-0.231,0.069-0.437,0.208-0.612,0.415
						c-0.143,0.167-0.233,0.339-0.275,0.517c-0.043,0.179-0.062,0.433-0.062,0.763v2.646h-0.851v-5.052H500.025z"/>
					<path fill="#333333" d="M508.517,122.667c0.334,0.168,0.589,0.387,0.764,0.653c0.169,0.255,0.281,0.552,0.338,0.892
						c0.051,0.231,0.074,0.604,0.074,1.113h-3.673c0.016,0.514,0.136,0.926,0.36,1.235c0.224,0.31,0.571,0.466,1.043,0.466
						c0.439,0,0.791-0.146,1.053-0.439c0.146-0.172,0.251-0.368,0.312-0.592h0.836c-0.022,0.185-0.096,0.392-0.22,0.619
						c-0.125,0.229-0.264,0.414-0.416,0.559c-0.256,0.252-0.571,0.422-0.95,0.51c-0.202,0.051-0.432,0.074-0.688,0.074
						c-0.625,0-1.154-0.229-1.589-0.686c-0.436-0.457-0.651-1.098-0.651-1.922c0-0.811,0.219-1.47,0.656-1.977
						c0.437-0.506,1.009-0.76,1.715-0.76C507.838,122.416,508.182,122.5,508.517,122.667z M508.82,124.65
						c-0.034-0.367-0.112-0.661-0.237-0.882c-0.23-0.408-0.616-0.612-1.155-0.612c-0.388,0-0.711,0.141-0.974,0.422
						c-0.262,0.281-0.399,0.639-0.416,1.072H508.82z"/>
				</g>
				<g clip-path="url(#SVGID_18_)">
					<path fill="#333333" d="M473.879,150.818h2.769c0.94,0,1.669,0.339,2.188,1.016c0.463,0.608,0.693,1.391,0.693,2.344
						c0,0.734-0.137,1.4-0.41,1.994c-0.479,1.05-1.308,1.574-2.479,1.574h-2.76L473.879,150.818L473.879,150.818z M476.464,156.944
						c0.31,0,0.564-0.032,0.765-0.099c0.356-0.123,0.648-0.358,0.876-0.708c0.182-0.279,0.312-0.638,0.393-1.075
						c0.047-0.261,0.069-0.503,0.069-0.727c0-0.857-0.167-1.524-0.501-2c-0.333-0.475-0.87-0.711-1.611-0.711h-1.628v5.318
						L476.464,156.944L476.464,156.944z"/>
					<path fill="#333333" d="M483.816,152.835c0.334,0.168,0.589,0.386,0.764,0.652c0.169,0.254,0.281,0.553,0.339,0.891
						c0.05,0.232,0.073,0.604,0.073,1.113h-3.673c0.017,0.514,0.136,0.926,0.36,1.236c0.224,0.311,0.571,0.466,1.043,0.466
						c0.439,0,0.791-0.146,1.053-0.44c0.146-0.17,0.251-0.367,0.312-0.592h0.835c-0.022,0.186-0.096,0.393-0.22,0.62
						c-0.125,0.229-0.264,0.414-0.416,0.56c-0.256,0.251-0.571,0.421-0.949,0.509c-0.203,0.051-0.433,0.075-0.688,0.075
						c-0.625,0-1.154-0.229-1.589-0.687s-0.651-1.098-0.651-1.922c0-0.812,0.22-1.47,0.656-1.976c0.438-0.506,1.009-0.76,1.715-0.76
						C483.137,152.582,483.481,152.667,483.816,152.835z M484.12,154.817c-0.033-0.366-0.112-0.661-0.237-0.882
						c-0.23-0.408-0.616-0.612-1.155-0.612c-0.387,0-0.711,0.142-0.973,0.423c-0.263,0.28-0.4,0.639-0.416,1.071H484.12z"/>
					<path fill="#333333" d="M486.572,156.162c0.025,0.282,0.099,0.5,0.217,0.65c0.219,0.273,0.598,0.41,1.137,0.41
						c0.32,0,0.604-0.068,0.847-0.205c0.244-0.137,0.366-0.35,0.366-0.635c0-0.217-0.099-0.383-0.292-0.495
						c-0.125-0.068-0.371-0.148-0.738-0.24l-0.686-0.17c-0.438-0.106-0.762-0.226-0.969-0.358c-0.371-0.229-0.556-0.547-0.556-0.951
						c0-0.479,0.174-0.864,0.522-1.16c0.35-0.297,0.817-0.443,1.407-0.443c0.771,0,1.326,0.225,1.667,0.67
						c0.215,0.283,0.317,0.588,0.312,0.915h-0.802c-0.018-0.19-0.087-0.364-0.208-0.521c-0.199-0.224-0.545-0.334-1.038-0.334
						c-0.328,0-0.576,0.062-0.745,0.184s-0.254,0.284-0.254,0.484c0,0.219,0.11,0.395,0.333,0.525
						c0.128,0.078,0.316,0.147,0.566,0.207l0.571,0.137c0.622,0.147,1.038,0.291,1.249,0.43c0.331,0.217,0.496,0.559,0.496,1.023
						c0,0.448-0.173,0.838-0.52,1.164c-0.346,0.327-0.87,0.49-1.577,0.49c-0.762,0-1.3-0.171-1.616-0.512
						c-0.316-0.342-0.486-0.764-0.508-1.266H486.572L486.572,156.162z"/>
					<path fill="#333333" d="M494.233,152.964c0.356,0.276,0.571,0.754,0.645,1.43h-0.825c-0.052-0.312-0.165-0.57-0.345-0.775
						s-0.468-0.31-0.862-0.31c-0.541,0-0.929,0.264-1.16,0.791c-0.151,0.343-0.228,0.765-0.228,1.269s0.106,0.93,0.32,1.275
						c0.214,0.345,0.551,0.518,1.01,0.518c0.353,0,0.632-0.106,0.838-0.32c0.205-0.215,0.348-0.51,0.427-0.881h0.825
						c-0.096,0.67-0.33,1.158-0.707,1.469c-0.378,0.31-0.86,0.465-1.448,0.465c-0.66,0-1.188-0.241-1.579-0.725
						c-0.395-0.482-0.59-1.086-0.59-1.809c0-0.887,0.215-1.576,0.646-2.07c0.432-0.494,0.979-0.74,1.646-0.74
						C493.413,152.55,493.876,152.688,494.233,152.964z"/>
					<path fill="#333333" d="M498.845,152.835c0.334,0.168,0.589,0.386,0.764,0.652c0.169,0.254,0.281,0.553,0.338,0.891
						c0.05,0.232,0.074,0.604,0.074,1.113h-3.673c0.016,0.514,0.136,0.926,0.359,1.236c0.225,0.311,0.572,0.466,1.043,0.466
						c0.44,0,0.791-0.146,1.054-0.44c0.146-0.17,0.251-0.367,0.312-0.592h0.835c-0.021,0.186-0.095,0.393-0.219,0.62
						c-0.125,0.229-0.264,0.414-0.416,0.56c-0.256,0.251-0.572,0.421-0.95,0.509c-0.203,0.051-0.432,0.075-0.688,0.075
						c-0.625,0-1.154-0.229-1.589-0.687c-0.436-0.457-0.651-1.098-0.651-1.922c0-0.812,0.219-1.47,0.656-1.976
						c0.437-0.506,1.009-0.76,1.715-0.76C498.165,152.582,498.51,152.667,498.845,152.835z M499.148,154.817
						c-0.034-0.366-0.113-0.661-0.238-0.882c-0.229-0.408-0.615-0.612-1.154-0.612c-0.388,0-0.711,0.142-0.974,0.423
						c-0.262,0.28-0.399,0.639-0.416,1.071H499.148z"/>
					<path fill="#333333" d="M501.096,152.695h0.807v0.717c0.239-0.295,0.492-0.508,0.76-0.637s0.563-0.193,0.892-0.193
						c0.717,0,1.201,0.25,1.453,0.75c0.138,0.273,0.207,0.666,0.207,1.176v3.238h-0.863v-3.183c0-0.31-0.045-0.558-0.137-0.745
						c-0.15-0.314-0.425-0.472-0.82-0.472c-0.201,0-0.366,0.021-0.495,0.062c-0.232,0.068-0.437,0.207-0.613,0.414
						c-0.142,0.167-0.232,0.34-0.274,0.518c-0.043,0.178-0.063,0.432-0.063,0.762v2.646h-0.85v-5.053H501.096z"/>
					<path fill="#333333" d="M509.243,152.852c0.15,0.094,0.32,0.259,0.513,0.495v-2.553h0.815v6.951h-0.765v-0.701
						c-0.197,0.311-0.431,0.535-0.7,0.674c-0.269,0.139-0.577,0.207-0.925,0.207c-0.562,0-1.046-0.236-1.456-0.709
						c-0.411-0.475-0.616-1.104-0.616-1.889c0-0.736,0.188-1.373,0.562-1.912s0.908-0.81,1.604-0.81
						C508.66,152.606,508.983,152.688,509.243,152.852z M507.349,156.638c0.228,0.365,0.594,0.547,1.098,0.547
						c0.392,0,0.712-0.169,0.964-0.507c0.252-0.339,0.378-0.822,0.378-1.454c0-0.639-0.13-1.111-0.39-1.418s-0.58-0.459-0.962-0.459
						c-0.425,0-0.771,0.163-1.034,0.49c-0.265,0.326-0.396,0.808-0.396,1.442C507.007,155.82,507.12,156.273,507.349,156.638z"/>
					<path fill="#333333" d="M514.96,152.835c0.334,0.168,0.589,0.386,0.764,0.652c0.169,0.254,0.281,0.553,0.338,0.891
						c0.05,0.232,0.074,0.604,0.074,1.113h-3.673c0.016,0.514,0.136,0.926,0.359,1.236c0.225,0.311,0.572,0.466,1.043,0.466
						c0.44,0,0.791-0.146,1.054-0.44c0.146-0.17,0.25-0.367,0.312-0.592h0.835c-0.021,0.186-0.095,0.393-0.219,0.62
						c-0.125,0.229-0.264,0.414-0.416,0.56c-0.256,0.251-0.572,0.421-0.95,0.509c-0.203,0.051-0.432,0.075-0.688,0.075
						c-0.625,0-1.153-0.229-1.589-0.687c-0.435-0.457-0.65-1.098-0.65-1.922c0-0.812,0.219-1.47,0.655-1.976
						c0.438-0.506,1.01-0.76,1.716-0.76C514.279,152.582,514.624,152.667,514.96,152.835z M515.263,154.817
						c-0.034-0.366-0.113-0.661-0.238-0.882c-0.229-0.408-0.616-0.612-1.155-0.612c-0.387,0-0.711,0.142-0.973,0.423
						c-0.262,0.28-0.4,0.639-0.416,1.071H515.263z"/>
					<path fill="#333333" d="M517.234,152.695h0.806v0.873c0.066-0.17,0.229-0.377,0.486-0.62c0.258-0.243,0.555-0.366,0.892-0.366
						c0.016,0,0.043,0.002,0.079,0.006c0.038,0.002,0.104,0.01,0.193,0.02v0.896c-0.05-0.01-0.097-0.017-0.139-0.02
						c-0.043-0.003-0.089-0.005-0.141-0.005c-0.427,0-0.756,0.138-0.984,0.412c-0.229,0.274-0.344,0.592-0.344,0.95v2.904h-0.85
						L517.234,152.695L517.234,152.695z"/>
				</g>
				<path clip-path="url(#SVGID_18_)" fill="#333333" d="M527.303,151.902c1.051,0,1.438,0.696,1.438,1.77v5.535l-0.263,0.707
					h-0.673v-6.322c0-0.582-0.194-0.811-0.696-0.811h-1.483c-0.331,0.913-0.41,1.403-0.41,1.713
					c0.171,0.238,0.548,0.377,1.084,0.569l-0.251,0.685h-0.571c-0.981-0.41-1.461-0.89-0.696-3l-0.878-0.31l0.217-0.536H527.303z
					 M533.673,151.902c1.05,0,1.438,0.696,1.438,1.77v4.074h-0.937v-4.154c0-0.582-0.193-0.811-0.696-0.811h-1.951v1.131
					c0,1.209,0.08,2.03,0.263,2.922l-0.331,0.912h-1.724v-0.649l1.176-0.286c-0.229-0.891-0.319-1.688-0.319-2.898l0.297-1.13
					l-0.937-0.263l0.218-0.616L533.673,151.902L533.673,151.902z M536.971,151.902c0.662,0.148,0.936,0.229,0.936,0.891v4.496
					l-0.171,0.457h-0.799v-4.953l-0.799-0.285l0.228-0.741L536.971,151.902z M544.982,153.568c-0.159,2.865-0.936,4.166-3.721,4.178
					h-0.422l-0.708-0.285l0.012-0.022l-0.811-4.394l-0.319-0.902l0.639-0.239h0.251l0.31,0.901l0.331,1.939
					c0.364-0.377,0.548-1.117,0.845-1.883l0.308-0.8l0.274-0.272l0.707,0.33v0.058l-0.365,0.98
					c-0.319,0.868-0.707,1.906-1.644,2.283l0.252,1.449h0.318c2.021,0,2.604-0.707,2.785-3.47l0.079-1.176l0.183-0.423l0.776,0.298
					L544.982,153.568z M551.216,156.901l-0.229,0.845h-2.431v-0.594l0.799-0.297h0.913c-0.068-0.719-0.104-1.164-0.104-2.1
					c0-1.438-0.146-1.952-1.301-1.965l-1.004-0.011c-0.445,1.644-0.411,3.505-0.469,4.966h-0.582l-0.376-0.138
					c0.067-1.771,0.217-3.321,0.376-4.007l0.331-0.811h-0.022l-0.98-0.239l0.263-0.662l1.038,0.058l1.507-0.035
					c1.495-0.033,2.181,0.879,2.157,2.819C551.09,155.531,551.146,156.216,551.216,156.901z"/>
				<g clip-path="url(#SVGID_18_)">
					<g>
						<defs>
							<rect id="SVGID_21_" x="0" width="560.809" height="174.839"/>
						</defs>
						<clipPath id="SVGID_22_">
							<use xlink:href="#SVGID_21_"  overflow="visible"/>
						</clipPath>
						<g clip-path="url(#SVGID_22_)">
							<path fill="#333333" d="M473.879,162.267h2.769c0.94,0,1.669,0.339,2.188,1.015c0.463,0.609,0.693,1.392,0.693,2.345
								c0,0.734-0.137,1.399-0.41,1.994c-0.479,1.049-1.308,1.574-2.479,1.574h-2.76L473.879,162.267L473.879,162.267z
								 M476.464,168.393c0.31,0,0.564-0.033,0.765-0.099c0.356-0.123,0.648-0.358,0.876-0.709c0.182-0.278,0.312-0.638,0.393-1.074
								c0.047-0.262,0.069-0.504,0.069-0.727c0-0.857-0.167-1.524-0.501-2c-0.333-0.475-0.87-0.712-1.611-0.712h-1.628v5.319
								L476.464,168.393L476.464,168.393z"/>
							<path fill="#333333" d="M483.816,164.283c0.334,0.168,0.589,0.387,0.764,0.653c0.169,0.254,0.281,0.552,0.339,0.892
								c0.05,0.231,0.073,0.604,0.073,1.112h-3.673c0.017,0.515,0.136,0.927,0.36,1.236c0.224,0.31,0.571,0.466,1.043,0.466
								c0.439,0,0.791-0.146,1.053-0.439c0.146-0.172,0.251-0.369,0.312-0.593h0.835c-0.022,0.185-0.096,0.392-0.22,0.62
								c-0.125,0.229-0.264,0.414-0.416,0.559c-0.256,0.252-0.571,0.422-0.949,0.51c-0.203,0.051-0.433,0.074-0.688,0.074
								c-0.625,0-1.154-0.229-1.589-0.686s-0.651-1.098-0.651-1.922c0-0.811,0.22-1.471,0.656-1.977
								c0.438-0.506,1.009-0.76,1.715-0.76C483.137,164.03,483.481,164.115,483.816,164.283z M484.12,166.266
								c-0.033-0.367-0.112-0.661-0.237-0.882c-0.23-0.408-0.616-0.612-1.155-0.612c-0.387,0-0.711,0.142-0.973,0.422
								c-0.263,0.281-0.4,0.64-0.416,1.072H484.12z"/>
							<path fill="#333333" d="M486.572,167.61c0.025,0.282,0.099,0.499,0.217,0.65c0.219,0.272,0.598,0.409,1.137,0.409
								c0.32,0,0.604-0.067,0.847-0.205c0.244-0.137,0.366-0.349,0.366-0.635c0-0.217-0.099-0.382-0.292-0.494
								c-0.125-0.068-0.371-0.148-0.738-0.24l-0.686-0.17c-0.438-0.106-0.762-0.227-0.969-0.358
								c-0.371-0.229-0.556-0.547-0.556-0.952c0-0.478,0.174-0.863,0.522-1.16c0.35-0.295,0.817-0.442,1.407-0.442
								c0.771,0,1.326,0.224,1.667,0.67c0.215,0.282,0.317,0.588,0.312,0.915h-0.802c-0.018-0.191-0.087-0.364-0.208-0.521
								c-0.199-0.223-0.545-0.332-1.038-0.332c-0.328,0-0.576,0.061-0.745,0.183s-0.254,0.284-0.254,0.483
								c0,0.219,0.11,0.396,0.333,0.526c0.128,0.078,0.316,0.147,0.566,0.207l0.571,0.137c0.622,0.147,1.038,0.291,1.249,0.429
								c0.331,0.218,0.496,0.56,0.496,1.023c0,0.449-0.173,0.838-0.52,1.165c-0.346,0.327-0.87,0.49-1.577,0.49
								c-0.762,0-1.3-0.171-1.616-0.513c-0.316-0.34-0.486-0.763-0.508-1.266L486.572,167.61L486.572,167.61z"/>
							<path fill="#333333" d="M494.233,164.414c0.356,0.275,0.571,0.752,0.645,1.428h-0.825c-0.052-0.312-0.165-0.569-0.345-0.775
								c-0.18-0.205-0.468-0.309-0.862-0.309c-0.541,0-0.929,0.264-1.16,0.791c-0.151,0.343-0.228,0.765-0.228,1.268
								c0,0.505,0.106,0.932,0.32,1.275c0.214,0.346,0.551,0.519,1.01,0.519c0.353,0,0.632-0.106,0.838-0.321
								c0.205-0.215,0.348-0.509,0.427-0.881h0.825c-0.096,0.67-0.33,1.159-0.707,1.469c-0.378,0.311-0.86,0.465-1.448,0.465
								c-0.66,0-1.188-0.24-1.579-0.725c-0.395-0.481-0.59-1.085-0.59-1.808c0-0.888,0.215-1.577,0.646-2.07
								c0.432-0.493,0.979-0.739,1.646-0.739C493.413,163.998,493.876,164.136,494.233,164.414z"/>
							<path fill="#333333" d="M498.845,164.283c0.334,0.168,0.589,0.387,0.764,0.653c0.169,0.254,0.281,0.552,0.338,0.892
								c0.05,0.231,0.074,0.604,0.074,1.112h-3.673c0.016,0.515,0.136,0.927,0.359,1.236c0.225,0.31,0.572,0.466,1.043,0.466
								c0.44,0,0.791-0.146,1.054-0.439c0.146-0.172,0.251-0.369,0.312-0.593h0.835c-0.021,0.185-0.095,0.392-0.219,0.62
								c-0.125,0.229-0.264,0.414-0.416,0.559c-0.256,0.252-0.572,0.422-0.95,0.51c-0.203,0.051-0.432,0.074-0.688,0.074
								c-0.625,0-1.154-0.229-1.589-0.686c-0.436-0.457-0.651-1.098-0.651-1.922c0-0.811,0.219-1.471,0.656-1.977
								c0.437-0.506,1.009-0.76,1.715-0.76C498.165,164.03,498.51,164.115,498.845,164.283z M499.148,166.266
								c-0.034-0.367-0.113-0.661-0.238-0.882c-0.229-0.408-0.615-0.612-1.154-0.612c-0.388,0-0.711,0.142-0.974,0.422
								c-0.262,0.281-0.399,0.64-0.416,1.072H499.148z"/>
							<path fill="#333333" d="M501.096,164.144h0.807v0.717c0.239-0.295,0.492-0.508,0.76-0.637s0.563-0.193,0.892-0.193
								c0.717,0,1.201,0.25,1.453,0.75c0.138,0.273,0.207,0.665,0.207,1.176v3.238h-0.863v-3.183c0-0.31-0.045-0.558-0.137-0.745
								c-0.15-0.314-0.425-0.473-0.82-0.473c-0.201,0-0.366,0.021-0.495,0.062c-0.232,0.069-0.437,0.208-0.613,0.415
								c-0.142,0.167-0.232,0.339-0.274,0.518c-0.043,0.178-0.063,0.432-0.063,0.762v2.646h-0.85v-5.052H501.096z"/>
							<path fill="#333333" d="M509.243,164.3c0.15,0.094,0.32,0.259,0.513,0.494v-2.551h0.815v6.95h-0.765v-0.702
								c-0.197,0.312-0.431,0.535-0.7,0.674c-0.269,0.14-0.577,0.207-0.925,0.207c-0.562,0-1.046-0.235-1.456-0.709
								c-0.411-0.474-0.616-1.103-0.616-1.889c0-0.736,0.188-1.373,0.562-1.912s0.908-0.809,1.604-0.809
								C508.66,164.055,508.983,164.136,509.243,164.3z M507.349,168.085c0.228,0.365,0.594,0.547,1.098,0.547
								c0.392,0,0.712-0.168,0.964-0.506s0.378-0.822,0.378-1.455c0-0.639-0.13-1.11-0.39-1.418c-0.26-0.306-0.58-0.459-0.962-0.459
								c-0.425,0-0.771,0.164-1.034,0.49c-0.265,0.327-0.396,0.809-0.396,1.443C507.007,167.269,507.12,167.722,507.349,168.085z"/>
							<path fill="#333333" d="M514.96,164.283c0.334,0.168,0.589,0.387,0.764,0.653c0.169,0.254,0.281,0.552,0.338,0.892
								c0.05,0.231,0.074,0.604,0.074,1.112h-3.673c0.016,0.515,0.136,0.927,0.359,1.236c0.225,0.31,0.572,0.466,1.043,0.466
								c0.44,0,0.791-0.146,1.054-0.439c0.146-0.172,0.25-0.369,0.312-0.593h0.835c-0.021,0.185-0.095,0.392-0.219,0.62
								c-0.125,0.229-0.264,0.414-0.416,0.559c-0.256,0.252-0.572,0.422-0.95,0.51c-0.203,0.051-0.432,0.074-0.688,0.074
								c-0.625,0-1.153-0.229-1.589-0.686c-0.435-0.457-0.65-1.098-0.65-1.922c0-0.811,0.219-1.471,0.655-1.977
								c0.438-0.506,1.01-0.76,1.716-0.76C514.279,164.03,514.624,164.115,514.96,164.283z M515.263,166.266
								c-0.034-0.367-0.113-0.661-0.238-0.882c-0.229-0.408-0.616-0.612-1.155-0.612c-0.387,0-0.711,0.142-0.973,0.422
								c-0.262,0.281-0.4,0.64-0.416,1.072H515.263z"/>
							<path fill="#333333" d="M517.234,164.144h0.806v0.873c0.066-0.17,0.229-0.377,0.486-0.62
								c0.258-0.244,0.555-0.366,0.892-0.366c0.016,0,0.043,0.002,0.079,0.006c0.038,0.002,0.104,0.01,0.193,0.02v0.896
								c-0.05-0.011-0.097-0.017-0.139-0.02c-0.043-0.003-0.089-0.005-0.141-0.005c-0.427,0-0.756,0.138-0.984,0.411
								c-0.229,0.275-0.344,0.593-0.344,0.951v2.904h-0.85L517.234,164.144L517.234,164.144z"/>
						</g>
					</g>
				</g>
				<path clip-path="url(#SVGID_18_)" fill="#333333" d="M527.931,163.351c1.05,0,1.438,0.695,1.438,1.77v4.074h-0.937v-4.154
					c0-0.582-0.193-0.812-0.696-0.812h-1.951v1.131c0,1.209,0.08,2.031,0.264,2.922l-0.331,0.913h-1.725v-0.65l1.177-0.285
					c-0.229-0.891-0.319-1.689-0.319-2.898l0.296-1.131l-0.936-0.262l0.217-0.616L527.931,163.351L527.931,163.351z
					 M531.023,163.351c0.651,0.125,0.948,0.342,0.948,1.004v1.632l-0.274,0.754h-0.662v-2.466l-0.741-0.263l0.263-0.753
					L531.023,163.351z M537.449,169.194h-4.417v-0.879h2.899v-3.276c0-0.582-0.194-0.811-0.696-0.811h-1.507l-0.787-0.285
					l0.229-0.593h2.306c1.05,0,1.427,0.694,1.427,1.769v2.442l-0.273,0.754h0.021l0.799,0.251L537.449,169.194L537.449,169.194z
					 M540.726,163.351c1.05,0,1.438,0.695,1.438,1.77v3.617l-0.172,0.457h-0.765v-4.154c0-0.582-0.194-0.812-0.696-0.812h-1.883
					l-0.788-0.285l0.229-0.593H540.726L540.726,163.351z M548.053,164.366c-0.138,4.166-0.879,4.291-3.973,5.136l-0.251,0.068
					h-0.434l-0.148-0.74l0.536-0.148c0.399-0.114,0.754-0.194,1.062-0.286c-0.251-1.335-0.812-3.104-1.483-4.714l0.582-0.33h0.309
					c0.604,1.529,1.085,3.275,1.21,3.926l0.022,0.936c1.268-0.409,1.495-0.946,1.62-3.846l0.023-0.514l0.171-0.502h0.787
					L548.053,164.366z"/>
				<rect x="0" clip-path="url(#SVGID_18_)" fill="none" width="560.809" height="174.839"/>
			</g>
		</g>
	</g>
</g>
</svg>
