<?xml version="1.0" encoding="utf-8"?>
<!-- Generator: Adobe Illustrator 16.0.0, SVG Export Plug-In . SVG Version: 6.00 Build 0)  -->
<!DOCTYPE svg PUBLIC "-//W3C//DTD SVG 1.1//EN" "http://www.w3.org/Graphics/SVG/1.1/DTD/svg11.dtd">
<svg version="1.1" id="Layer_1" xmlns="http://www.w3.org/2000/svg" xmlns:xlink="http://www.w3.org/1999/xlink" x="0px" y="0px"
	 width="560.808px" height="174.839px" viewBox="0 0 560.808 174.839" enable-background="new 0 0 560.808 174.839"
	 xml:space="preserve">
<g>
	<defs>
		<rect id="SVGID_1_" width="560.808" height="174.839"/>
	</defs>
	<clipPath id="SVGID_2_">
		<use xlink:href="#SVGID_1_"  overflow="visible"/>
	</clipPath>
	
		<line clip-path="url(#SVGID_2_)" fill="none" stroke="#AEDAF3" stroke-width="0.439" x1="0" y1="166.557" x2="464.658" y2="166.557"/>
	
		<line clip-path="url(#SVGID_2_)" fill="none" stroke="#AEDAF3" stroke-width="0.439" x1="0" y1="123.817" x2="464.658" y2="123.817"/>
	
		<line clip-path="url(#SVGID_2_)" fill="none" stroke="#AEDAF3" stroke-width="0.439" x1="0" y1="155.083" x2="464.658" y2="155.083"/>
	
		<line clip-path="url(#SVGID_2_)" fill="none" stroke="#AEDAF3" stroke-width="0.439" x1="0" y1="14.515" x2="464.658" y2="14.515"/>
</g>
<line fill="none" stroke="#AEDAF3" stroke-width="0.4593" x1="0" y1="110.916" x2="464.658" y2="110.916"/>
<g>
	<defs>
		<rect id="SVGID_3_" width="560.808" height="174.839"/>
	</defs>
	<clipPath id="SVGID_4_">
		<use xlink:href="#SVGID_3_"  overflow="visible"/>
	</clipPath>
	
		<line clip-path="url(#SVGID_4_)" fill="none" stroke="#AEDAF3" stroke-width="0.439" x1="0" y1="52.143" x2="464.702" y2="52.143"/>
	
		<line clip-path="url(#SVGID_4_)" fill="none" stroke="#AEDAF3" stroke-width="0.439" x1="0" y1="39.186" x2="464.702" y2="39.186"/>
	<g clip-path="url(#SVGID_4_)">
		<g>
			<defs>
				<rect id="SVGID_5_" x="248.842" y="1.578" width="300.981" height="165.944"/>
			</defs>
			<clipPath id="SVGID_6_">
				<use xlink:href="#SVGID_5_"  overflow="visible"/>
			</clipPath>
			<path clip-path="url(#SVGID_6_)" d="M272.177,100.451c0-16.641,0-32.458,2.801-47.946h0.165l-12.852-4.119l3.625-10.874
				l9.227,1.812c8.402,1.648,12.852,4.614,11.863,14.17c-1.648,15.158-1.318,29.658-1.318,45.97v45.64l-3.625,9.886h-9.886V100.451z
				 M368.894,123.683H305.13v-12.687h41.851V63.709c0-8.403-2.801-11.698-10.051-11.698h-21.749l-11.369-4.119l3.296-8.568h33.282
				c15.158,0,20.595,10.051,20.595,25.539v35.26l-3.953,10.874h0.329l11.533,3.625V123.683z M410.582,103.088
				c10.71-15.817,14.829-24.55,14.829-48.771v-2.307h-44.486l-2.142-5.767l-1.482-23.396V17.08l7.414-2.471h5.271l1.483,24.714
				h35.919c8.238,0,11.204,6.426,11.204,13.182v3.131c0,23.726-3.955,33.776-16.477,53.383l-9.392,14.664h-11.039v-7.414
				L410.582,103.088z"/>
		</g>
	</g>
	<g clip-path="url(#SVGID_4_)">
		<g>
			<defs>
				<rect id="SVGID_7_" x="7.139" y="1.576" width="357.497" height="165.944"/>
			</defs>
			<clipPath id="SVGID_8_">
				<use xlink:href="#SVGID_7_"  overflow="visible"/>
			</clipPath>
			<path clip-path="url(#SVGID_8_)" d="M54.694,123.682c-7.084,0-19.607,1.317-19.607,15.652c0,8.732,7.085,15.652,26.692,15.652
				h8.568l2.636,7.579l-10.38,3.954c-27.516,0-40.367-11.203-40.367-27.186c0-14.005,9.721-27.187,28.999-27.187H81.88
				c-2.801-7.249-4.614-16.641-5.767-24.879C73.477,68.155,64.745,61.4,53.706,61.4c-8.568,0-12.028,3.131-12.028,3.131
				l-2.966,8.073l-10.709-3.79l3.46-9.886c0,0,6.426-9.062,22.737-9.062c20.266,0,30.976,14.993,34.271,37.401
				c0.989,6.591,3.295,18.783,5.767,24.879l-4.448,11.534H54.694z M125.215,123.682h-12.852V15.431l9.557-3.46l3.295,8.897V123.682z
				 M191.288,123.682h-11.534l-12.522-4.449c-1.647,23.891-11.204,32.953-22.573,35.754h-11.534l-2.471-6.92l10.545-3.79
				c4.943-1.812,10.215-5.272,12.357-11.368c0.988-5.438,0.988-13.346,0.988-25.539V58.435l3.131-8.567l9.721,3.46v58.82h23.891
				V123.682z M233.305,112.147l-4.119,11.534h-42.839v-11.534h34.106v-58.82l9.556-3.46l3.295,8.732V112.147z M223.254,142.3
				c0,3.954-3.295,7.249-7.414,7.249c-3.79,0-7.085-3.295-7.085-7.249c0-4.119,3.295-7.25,7.085-7.25
				C219.959,135.05,223.254,138.181,223.254,142.3z"/>
		</g>
	</g>
</g>
<g>
	<path d="M475.856,9.72h1.06l2.515,6.928h-1.028l-0.724-2.075h-2.718l-0.751,2.075h-0.962L475.856,9.72z M477.413,13.809
		l-1.066-3.061l-1.108,3.061H477.413z"/>
	<path d="M480.668,15.063c0.025,0.282,0.098,0.499,0.217,0.65c0.218,0.273,0.597,0.41,1.136,0.41c0.321,0,0.604-0.068,0.847-0.205
		c0.244-0.137,0.366-0.349,0.366-0.635c0-0.217-0.098-0.382-0.292-0.495c-0.125-0.068-0.371-0.148-0.738-0.24l-0.686-0.17
		c-0.438-0.106-0.761-0.226-0.968-0.358c-0.371-0.229-0.556-0.547-0.556-0.952c0-0.478,0.174-0.864,0.522-1.16
		c0.35-0.296,0.818-0.443,1.408-0.443c0.771,0,1.326,0.224,1.667,0.67c0.214,0.283,0.317,0.588,0.312,0.915h-0.802
		c-0.017-0.191-0.086-0.364-0.208-0.521c-0.199-0.223-0.545-0.333-1.038-0.333c-0.328,0-0.576,0.061-0.745,0.183
		s-0.254,0.284-0.254,0.484c0,0.219,0.111,0.395,0.333,0.526c0.128,0.078,0.317,0.147,0.567,0.207l0.571,0.137
		c0.622,0.147,1.038,0.291,1.249,0.429c0.331,0.217,0.496,0.559,0.496,1.023c0,0.449-0.173,0.838-0.519,1.165
		s-0.871,0.49-1.578,0.49c-0.761,0-1.299-0.171-1.616-0.512c-0.316-0.341-0.486-0.763-0.508-1.266H480.668z"/>
	<path d="M488.329,11.866c0.356,0.276,0.571,0.753,0.644,1.429h-0.825c-0.051-0.312-0.165-0.57-0.345-0.776
		c-0.179-0.205-0.467-0.309-0.862-0.309c-0.541,0-0.928,0.264-1.16,0.791c-0.151,0.343-0.227,0.765-0.227,1.268
		c0,0.505,0.106,0.931,0.32,1.276c0.214,0.345,0.551,0.518,1.01,0.518c0.352,0,0.631-0.107,0.837-0.321
		c0.206-0.215,0.348-0.509,0.427-0.881h0.825c-0.095,0.67-0.33,1.159-0.707,1.469c-0.378,0.31-0.86,0.465-1.448,0.465
		c-0.66,0-1.187-0.241-1.579-0.725c-0.394-0.482-0.59-1.085-0.59-1.808c0-0.887,0.215-1.577,0.646-2.07
		c0.431-0.494,0.979-0.74,1.646-0.74C487.509,11.451,487.972,11.589,488.329,11.866z"/>
	<path d="M492.941,11.736c0.334,0.168,0.589,0.386,0.764,0.653c0.169,0.254,0.281,0.552,0.338,0.891
		c0.05,0.232,0.074,0.604,0.074,1.113h-3.673c0.016,0.514,0.136,0.926,0.36,1.236s0.572,0.466,1.043,0.466
		c0.44,0,0.791-0.146,1.053-0.44c0.146-0.171,0.251-0.368,0.312-0.592h0.835c-0.022,0.185-0.095,0.392-0.219,0.62
		c-0.125,0.228-0.264,0.414-0.416,0.559c-0.256,0.251-0.572,0.421-0.95,0.509c-0.203,0.051-0.432,0.075-0.688,0.075
		c-0.625,0-1.154-0.229-1.589-0.686s-0.651-1.098-0.651-1.922c0-0.811,0.219-1.47,0.656-1.976s1.009-0.76,1.715-0.76
		C492.262,11.483,492.606,11.568,492.941,11.736z M493.245,13.719c-0.034-0.367-0.113-0.661-0.238-0.882
		c-0.23-0.408-0.616-0.612-1.155-0.612c-0.387,0-0.711,0.141-0.973,0.422s-0.4,0.639-0.416,1.072H493.245z"/>
	<path d="M495.192,11.597h0.807v0.717c0.239-0.295,0.492-0.508,0.76-0.637c0.267-0.129,0.563-0.193,0.891-0.193
		c0.717,0,1.201,0.25,1.453,0.75c0.138,0.273,0.207,0.665,0.207,1.175v3.239h-0.863v-3.183c0-0.309-0.045-0.557-0.137-0.745
		c-0.15-0.314-0.424-0.472-0.82-0.472c-0.201,0-0.366,0.021-0.495,0.061c-0.232,0.069-0.437,0.208-0.613,0.415
		c-0.142,0.167-0.233,0.339-0.275,0.517c-0.043,0.178-0.063,0.432-0.063,0.762v2.646h-0.85V11.597z"/>
	<path d="M503.339,11.753c0.15,0.094,0.32,0.259,0.512,0.495V9.696h0.816v6.951h-0.765v-0.702c-0.197,0.311-0.431,0.535-0.7,0.674
		c-0.269,0.139-0.577,0.207-0.925,0.207c-0.561,0-1.046-0.236-1.456-0.709c-0.411-0.474-0.616-1.103-0.616-1.889
		c0-0.736,0.188-1.373,0.562-1.912s0.909-0.809,1.604-0.809C502.756,11.508,503.079,11.589,503.339,11.753z M501.444,15.539
		c0.228,0.365,0.594,0.547,1.098,0.547c0.391,0,0.712-0.169,0.964-0.507s0.378-0.822,0.378-1.454c0-0.639-0.13-1.111-0.39-1.418
		c-0.26-0.306-0.58-0.459-0.962-0.459c-0.425,0-0.771,0.163-1.034,0.49c-0.265,0.327-0.396,0.808-0.396,1.443
		C501.102,14.722,501.216,15.175,501.444,15.539z"/>
	<path d="M509.055,11.736c0.334,0.168,0.589,0.386,0.764,0.653c0.169,0.254,0.281,0.552,0.338,0.891
		c0.05,0.232,0.074,0.604,0.074,1.113h-3.673c0.016,0.514,0.136,0.926,0.36,1.236s0.572,0.466,1.043,0.466
		c0.44,0,0.791-0.146,1.053-0.44c0.146-0.171,0.251-0.368,0.312-0.592h0.835c-0.022,0.185-0.095,0.392-0.219,0.62
		c-0.125,0.228-0.264,0.414-0.416,0.559c-0.256,0.251-0.572,0.421-0.95,0.509c-0.203,0.051-0.432,0.075-0.688,0.075
		c-0.625,0-1.154-0.229-1.589-0.686s-0.651-1.098-0.651-1.922c0-0.811,0.219-1.47,0.656-1.976s1.009-0.76,1.715-0.76
		C508.375,11.483,508.72,11.568,509.055,11.736z M509.358,13.719c-0.034-0.367-0.113-0.661-0.238-0.882
		c-0.23-0.408-0.616-0.612-1.155-0.612c-0.387,0-0.711,0.141-0.973,0.422s-0.4,0.639-0.416,1.072H509.358z"/>
	<path d="M511.33,11.597h0.806v0.873c0.066-0.17,0.229-0.377,0.486-0.62c0.258-0.244,0.555-0.366,0.891-0.366
		c0.016,0,0.043,0.002,0.08,0.005c0.038,0.003,0.103,0.01,0.193,0.02v0.896c-0.05-0.01-0.097-0.016-0.139-0.019
		c-0.043-0.003-0.089-0.005-0.14-0.005c-0.427,0-0.756,0.138-0.985,0.412c-0.229,0.275-0.344,0.592-0.344,0.95v2.905h-0.849V11.597z
		"/>
</g>
<path d="M521.399,10.804c1.05,0,1.438,0.695,1.438,1.769v5.536l-0.263,0.707h-0.673v-6.323c0-0.582-0.194-0.811-0.696-0.811h-1.483
	c-0.331,0.913-0.411,1.404-0.411,1.713c0.171,0.239,0.548,0.376,1.084,0.57l-0.251,0.685h-0.57c-0.981-0.411-1.461-0.89-0.696-3.002
	l-0.879-0.308l0.217-0.536H521.399z M527.768,10.804c1.051,0,1.438,0.695,1.438,1.769v4.075h-0.936v-4.155
	c0-0.582-0.194-0.811-0.696-0.811h-1.952v1.13c0,1.21,0.08,2.032,0.263,2.922l-0.331,0.914h-1.724v-0.651l1.176-0.285
	c-0.229-0.89-0.319-1.689-0.319-2.899l0.297-1.13l-0.937-0.262l0.217-0.616H527.768z M531.066,10.804
	c0.662,0.147,0.936,0.228,0.936,0.89v4.497l-0.171,0.457h-0.799v-4.954l-0.799-0.285l0.229-0.742L531.066,10.804z M539.079,12.47
	c-0.16,2.864-0.937,4.166-3.722,4.178h-0.422l-0.708-0.286l0.012-0.022l-0.811-4.395l-0.319-0.901l0.639-0.239H534l0.308,0.901
	l0.331,1.94c0.365-0.377,0.548-1.119,0.845-1.884l0.309-0.799l0.273-0.273l0.708,0.331v0.057l-0.365,0.981
	c-0.32,0.867-0.708,1.906-1.644,2.283l0.251,1.449h0.319c2.021,0,2.603-0.708,2.785-3.47l0.08-1.176l0.183-0.422l0.775,0.297
	L539.079,12.47z M545.311,15.803l-0.229,0.845h-2.431v-0.594l0.799-0.297h0.913c-0.068-0.719-0.103-1.164-0.103-2.101
	c0-1.438-0.148-1.951-1.302-1.963l-1.004-0.012c-0.445,1.644-0.411,3.505-0.468,4.966h-0.582l-0.377-0.138
	c0.068-1.769,0.217-3.321,0.377-4.006l0.331-0.811h-0.023l-0.981-0.239l0.263-0.662l1.038,0.057l1.507-0.034
	c1.495-0.034,2.18,0.879,2.157,2.819C545.185,14.433,545.242,15.117,545.311,15.803z"/>
<path d="M515.59,35.925c1.05,0,1.438,0.696,1.438,1.769v4.075h-0.936v-4.154c0-0.583-0.194-0.811-0.696-0.811h-1.952v1.13
	c0,1.21,0.08,2.031,0.263,2.922l-0.331,0.913h-1.723v-0.65l1.175-0.286c-0.228-0.89-0.319-1.688-0.319-2.898l0.297-1.13
	l-0.936-0.263l0.217-0.616H515.59z M518.683,35.925c0.65,0.125,0.947,0.342,0.947,1.004v1.633l-0.273,0.753h-0.662v-2.466
	l-0.742-0.262l0.263-0.754L518.683,35.925z M523.316,35.925c1.05,0,1.438,0.696,1.438,1.769v3.618l-0.172,0.457h-0.765v-4.154
	c0-0.583-0.193-0.811-0.696-0.811h-1.883l-0.788-0.285l0.229-0.594H523.316z M530.37,41.769h-4.417V40.89h2.898v-3.275
	c0-0.583-0.193-0.811-0.695-0.811h-1.507l-0.788-0.285l0.229-0.594h2.306c1.05,0,1.427,0.696,1.427,1.769v2.442l-0.274,0.754h0.023
	l0.799,0.251V41.769z M536.043,36.94c-0.137,4.166-0.879,4.291-3.973,5.136l-0.251,0.068h-0.434l-0.148-0.741l0.537-0.148
	c0.399-0.114,0.753-0.194,1.062-0.285c-0.252-1.336-0.811-3.104-1.484-4.714l0.582-0.331h0.309c0.604,1.529,1.084,3.275,1.21,3.926
	l0.022,0.937c1.267-0.411,1.495-0.947,1.621-3.847l0.022-0.514l0.171-0.502h0.788L536.043,36.94z"/>
<g>
	<path d="M473.241,36.72h1.099l1.16,1.778l1.174-1.778l1.033,0.023l-1.702,2.438l1.777,2.589h-1.085l-1.254-1.896l-1.217,1.896
		h-1.075l1.778-2.589L473.241,36.72z"/>
	<path d="M478.329,38.644h2.368v0.873h-2.368V38.644z"/>
	<path d="M481.767,34.819h0.85v2.584c0.201-0.254,0.382-0.434,0.542-0.537c0.273-0.18,0.614-0.269,1.023-0.269
		c0.732,0,1.229,0.256,1.49,0.769c0.142,0.279,0.212,0.668,0.212,1.165v3.239h-0.872v-3.183c0-0.371-0.048-0.644-0.142-0.816
		c-0.154-0.276-0.443-0.415-0.868-0.415c-0.352,0-0.671,0.121-0.957,0.363s-0.429,0.699-0.429,1.372v2.679h-0.85V34.819z"/>
	<path d="M490.258,36.859c0.334,0.168,0.589,0.386,0.764,0.653c0.169,0.254,0.281,0.552,0.338,0.891
		c0.05,0.232,0.074,0.604,0.074,1.113h-3.673c0.016,0.514,0.136,0.926,0.36,1.236s0.572,0.466,1.043,0.466
		c0.44,0,0.791-0.146,1.053-0.44c0.146-0.171,0.251-0.368,0.312-0.592h0.835c-0.022,0.185-0.095,0.392-0.219,0.62
		c-0.125,0.228-0.264,0.414-0.416,0.559c-0.256,0.251-0.572,0.421-0.95,0.509c-0.203,0.051-0.432,0.075-0.688,0.075
		c-0.625,0-1.154-0.229-1.589-0.686s-0.651-1.098-0.651-1.922c0-0.811,0.219-1.47,0.656-1.976s1.009-0.76,1.715-0.76
		C489.578,36.606,489.923,36.691,490.258,36.859z M490.562,38.842c-0.034-0.367-0.113-0.661-0.238-0.882
		c-0.23-0.408-0.616-0.612-1.155-0.612c-0.387,0-0.711,0.141-0.973,0.422s-0.4,0.639-0.416,1.072H490.562z"/>
	<path d="M492.509,34.843h0.863v0.963h-0.863V34.843z M492.509,36.743h0.863v5.027h-0.863V36.743z"/>
	<path d="M497.463,36.923c0.159,0.11,0.322,0.271,0.488,0.48v-0.636h0.782v4.593c0,0.642-0.094,1.147-0.281,1.519
		c-0.352,0.686-1.014,1.027-1.988,1.027c-0.542,0-0.998-0.121-1.368-0.365c-0.369-0.243-0.576-0.625-0.62-1.144h0.863
		c0.04,0.227,0.121,0.401,0.243,0.523c0.191,0.188,0.491,0.283,0.9,0.283c0.647,0,1.071-0.229,1.271-0.688
		c0.119-0.271,0.174-0.753,0.164-1.447c-0.169,0.258-0.373,0.449-0.61,0.575c-0.238,0.125-0.553,0.188-0.944,0.188
		c-0.545,0-1.021-0.194-1.431-0.583c-0.408-0.388-0.612-1.03-0.612-1.926c0-0.846,0.205-1.506,0.617-1.98s0.909-0.712,1.491-0.712
		C496.823,36.631,497.168,36.728,497.463,36.923z M497.566,37.833c-0.257-0.302-0.583-0.453-0.98-0.453
		c-0.595,0-1.001,0.28-1.22,0.84c-0.116,0.299-0.174,0.69-0.174,1.174c0,0.569,0.115,1.002,0.345,1.3
		c0.229,0.297,0.539,0.445,0.927,0.445c0.606,0,1.033-0.275,1.28-0.825c0.138-0.312,0.207-0.675,0.207-1.09
		C497.951,38.599,497.822,38.135,497.566,37.833z"/>
	<path d="M500.025,34.819h0.85v2.584c0.201-0.254,0.382-0.434,0.542-0.537c0.273-0.18,0.614-0.269,1.023-0.269
		c0.732,0,1.229,0.256,1.49,0.769c0.142,0.279,0.212,0.668,0.212,1.165v3.239h-0.872v-3.183c0-0.371-0.048-0.644-0.142-0.816
		c-0.154-0.276-0.443-0.415-0.868-0.415c-0.352,0-0.671,0.121-0.957,0.363s-0.429,0.699-0.429,1.372v2.679h-0.85V34.819z"/>
	<path d="M505.566,35.31h0.858v1.41h0.807v0.693h-0.807v3.297c0,0.176,0.06,0.294,0.18,0.354c0.065,0.034,0.176,0.052,0.33,0.052
		c0.04,0,0.085-0.001,0.132-0.003s0.102-0.008,0.165-0.017v0.675c-0.098,0.028-0.199,0.049-0.305,0.062s-0.219,0.019-0.342,0.019
		c-0.396,0-0.665-0.102-0.806-0.304c-0.142-0.203-0.213-0.467-0.213-0.79v-3.344h-0.684V36.72h0.684V35.31z"/>
</g>
<path d="M515.585,48.868c1.05,0,1.438,0.696,1.438,1.77v4.074h-0.936v-4.154c0-0.582-0.194-0.811-0.697-0.811h-1.951v1.13
	c0,1.21,0.08,2.032,0.263,2.922l-0.331,0.913h-1.724v-0.65l1.176-0.285c-0.229-0.891-0.319-1.689-0.319-2.899l0.297-1.13
	l-0.937-0.263l0.217-0.616H515.585z M518.678,48.868c0.651,0.126,0.948,0.343,0.948,1.005v1.632l-0.274,0.753h-0.662v-2.465
	l-0.742-0.263l0.263-0.753L518.678,48.868z M525.104,54.712h-4.417v-0.879h2.899v-3.275c0-0.582-0.194-0.811-0.696-0.811h-1.507
	l-0.787-0.285l0.229-0.594h2.306c1.05,0,1.427,0.696,1.427,1.77v2.442l-0.274,0.753h0.022l0.799,0.251V54.712z M528.38,48.868
	c1.05,0,1.438,0.696,1.438,1.77v3.618l-0.172,0.456h-0.765v-4.154c0-0.582-0.194-0.811-0.696-0.811h-1.883l-0.788-0.285l0.229-0.594
	H528.38z M535.707,49.884c-0.137,4.166-0.879,4.292-3.972,5.137l-0.251,0.068h-0.434l-0.148-0.742l0.536-0.148
	c0.399-0.114,0.754-0.193,1.062-0.285c-0.251-1.335-0.811-3.104-1.483-4.714l0.582-0.331h0.308c0.605,1.529,1.085,3.276,1.21,3.927
	l0.023,0.936c1.267-0.411,1.495-0.947,1.62-3.847l0.023-0.513l0.171-0.503h0.787L535.707,49.884z"/>
<g>
	<path d="M473.241,49.661h1.099l1.16,1.778l1.174-1.778l1.033,0.023l-1.702,2.438l1.777,2.589h-1.085l-1.254-1.896l-1.217,1.896
		h-1.075l1.778-2.589L473.241,49.661z"/>
	<path d="M478.329,51.585h2.368v0.873h-2.368V51.585z"/>
	<path d="M481.767,47.761h0.85v2.584c0.201-0.254,0.382-0.434,0.542-0.537c0.273-0.18,0.614-0.269,1.023-0.269
		c0.732,0,1.229,0.256,1.49,0.769c0.142,0.279,0.212,0.668,0.212,1.165v3.239h-0.872v-3.183c0-0.371-0.048-0.644-0.142-0.816
		c-0.154-0.276-0.443-0.415-0.868-0.415c-0.352,0-0.671,0.121-0.957,0.363s-0.429,0.699-0.429,1.372v2.679h-0.85V47.761z"/>
	<path d="M490.258,49.801c0.334,0.168,0.589,0.386,0.764,0.653c0.169,0.254,0.281,0.552,0.338,0.891
		c0.05,0.232,0.074,0.604,0.074,1.113h-3.673c0.016,0.514,0.136,0.926,0.36,1.236s0.572,0.466,1.043,0.466
		c0.44,0,0.791-0.146,1.053-0.44c0.146-0.171,0.251-0.368,0.312-0.592h0.835c-0.022,0.185-0.095,0.392-0.219,0.62
		c-0.125,0.228-0.264,0.414-0.416,0.559c-0.256,0.251-0.572,0.421-0.95,0.509c-0.203,0.051-0.432,0.075-0.688,0.075
		c-0.625,0-1.154-0.229-1.589-0.686s-0.651-1.098-0.651-1.922c0-0.811,0.219-1.47,0.656-1.976s1.009-0.76,1.715-0.76
		C489.578,49.548,489.923,49.633,490.258,49.801z M490.562,51.783c-0.034-0.367-0.113-0.661-0.238-0.882
		c-0.23-0.408-0.616-0.612-1.155-0.612c-0.387,0-0.711,0.141-0.973,0.422s-0.4,0.639-0.416,1.072H490.562z"/>
	<path d="M492.509,47.784h0.863v0.963h-0.863V47.784z M492.509,49.685h0.863v5.027h-0.863V49.685z"/>
	<path d="M497.463,49.864c0.159,0.11,0.322,0.271,0.488,0.48v-0.636h0.782v4.593c0,0.642-0.094,1.147-0.281,1.519
		c-0.352,0.686-1.014,1.027-1.988,1.027c-0.542,0-0.998-0.121-1.368-0.365c-0.369-0.243-0.576-0.625-0.62-1.144h0.863
		c0.04,0.227,0.121,0.401,0.243,0.523c0.191,0.188,0.491,0.283,0.9,0.283c0.647,0,1.071-0.229,1.271-0.688
		c0.119-0.271,0.174-0.753,0.164-1.447c-0.169,0.258-0.373,0.449-0.61,0.575c-0.238,0.125-0.553,0.188-0.944,0.188
		c-0.545,0-1.021-0.194-1.431-0.583c-0.408-0.388-0.612-1.03-0.612-1.926c0-0.846,0.205-1.506,0.617-1.98s0.909-0.712,1.491-0.712
		C496.823,49.572,497.168,49.669,497.463,49.864z M497.566,50.774c-0.257-0.302-0.583-0.453-0.98-0.453
		c-0.595,0-1.001,0.28-1.22,0.84c-0.116,0.299-0.174,0.69-0.174,1.174c0,0.569,0.115,1.002,0.345,1.3
		c0.229,0.297,0.539,0.445,0.927,0.445c0.606,0,1.033-0.275,1.28-0.825c0.138-0.312,0.207-0.675,0.207-1.09
		C497.951,51.54,497.822,51.076,497.566,50.774z"/>
	<path d="M500.025,47.761h0.85v2.584c0.201-0.254,0.382-0.434,0.542-0.537c0.273-0.18,0.614-0.269,1.023-0.269
		c0.732,0,1.229,0.256,1.49,0.769c0.142,0.279,0.212,0.668,0.212,1.165v3.239h-0.872v-3.183c0-0.371-0.048-0.644-0.142-0.816
		c-0.154-0.276-0.443-0.415-0.868-0.415c-0.352,0-0.671,0.121-0.957,0.363s-0.429,0.699-0.429,1.372v2.679h-0.85V47.761z"/>
	<path d="M505.566,48.251h0.858v1.41h0.807v0.693h-0.807v3.297c0,0.176,0.06,0.294,0.18,0.354c0.065,0.034,0.176,0.052,0.33,0.052
		c0.04,0,0.085-0.001,0.132-0.003s0.102-0.008,0.165-0.017v0.675c-0.098,0.028-0.199,0.049-0.305,0.062s-0.219,0.019-0.342,0.019
		c-0.396,0-0.665-0.102-0.806-0.304c-0.142-0.203-0.213-0.467-0.213-0.79v-3.344h-0.684v-0.693h0.684V48.251z"/>
</g>
<g>
	<path d="M473.812,120.651h2.995c0.816,0,1.397,0.242,1.742,0.727c0.202,0.286,0.304,0.616,0.304,0.99
		c0,0.438-0.124,0.796-0.372,1.075c-0.129,0.147-0.314,0.283-0.557,0.405c0.355,0.136,0.621,0.288,0.797,0.458
		c0.312,0.302,0.467,0.718,0.467,1.249c0,0.447-0.141,0.851-0.422,1.212c-0.421,0.541-1.09,0.812-2.008,0.812h-2.946V120.651z
		 M476.456,123.58c0.4,0,0.712-0.055,0.934-0.165c0.35-0.173,0.524-0.484,0.524-0.934c0-0.453-0.186-0.758-0.558-0.915
		c-0.209-0.088-0.521-0.132-0.934-0.132h-1.691v2.146H476.456z M476.773,126.777c0.581,0,0.995-0.166,1.242-0.5
		c0.155-0.21,0.233-0.465,0.233-0.764c0-0.503-0.227-0.846-0.681-1.028c-0.241-0.097-0.561-0.146-0.957-0.146h-1.88v2.438H476.773z"
		/>
	<path d="M482.87,124.522c0.195-0.025,0.325-0.106,0.392-0.244c0.038-0.076,0.057-0.186,0.057-0.327c0-0.29-0.103-0.501-0.309-0.632
		c-0.205-0.131-0.499-0.196-0.882-0.196c-0.442,0-0.757,0.12-0.941,0.36c-0.104,0.133-0.171,0.33-0.202,0.592h-0.793
		c0.016-0.624,0.218-1.059,0.605-1.303s0.838-0.366,1.35-0.366c0.594,0,1.075,0.113,1.446,0.339
		c0.367,0.227,0.551,0.579,0.551,1.057v2.91c0,0.088,0.018,0.158,0.054,0.212s0.113,0.08,0.229,0.08c0.037,0,0.08-0.003,0.127-0.007
		c0.047-0.005,0.098-0.012,0.151-0.021v0.627c-0.133,0.038-0.233,0.062-0.302,0.071c-0.069,0.009-0.164,0.014-0.283,0.014
		c-0.293,0-0.505-0.104-0.637-0.312c-0.069-0.109-0.118-0.266-0.146-0.467c-0.173,0.227-0.421,0.423-0.745,0.59
		c-0.323,0.167-0.681,0.25-1.07,0.25c-0.469,0-0.851-0.143-1.148-0.427c-0.297-0.284-0.445-0.64-0.445-1.066
		c0-0.468,0.146-0.83,0.438-1.088s0.676-0.416,1.15-0.476L482.87,124.522z M481.083,126.815c0.18,0.142,0.392,0.212,0.637,0.212
		c0.299,0,0.588-0.069,0.867-0.207c0.472-0.229,0.708-0.604,0.708-1.125v-0.683c-0.104,0.065-0.237,0.121-0.4,0.165
		s-0.323,0.076-0.479,0.095l-0.514,0.065c-0.308,0.041-0.538,0.105-0.693,0.193c-0.263,0.147-0.394,0.383-0.394,0.706
		C480.814,126.481,480.904,126.675,481.083,126.815z"/>
	<path d="M486.039,125.995c0.025,0.282,0.098,0.499,0.217,0.65c0.218,0.273,0.597,0.41,1.136,0.41c0.321,0,0.604-0.068,0.847-0.205
		c0.244-0.137,0.366-0.349,0.366-0.635c0-0.217-0.098-0.382-0.292-0.495c-0.125-0.068-0.371-0.148-0.738-0.24l-0.686-0.17
		c-0.438-0.106-0.761-0.226-0.968-0.358c-0.371-0.229-0.556-0.547-0.556-0.952c0-0.478,0.174-0.864,0.522-1.16
		c0.35-0.296,0.818-0.443,1.408-0.443c0.771,0,1.326,0.224,1.667,0.67c0.214,0.283,0.317,0.588,0.312,0.915h-0.802
		c-0.017-0.191-0.086-0.364-0.208-0.521c-0.199-0.223-0.545-0.333-1.038-0.333c-0.328,0-0.576,0.061-0.745,0.183
		s-0.254,0.284-0.254,0.484c0,0.219,0.111,0.395,0.333,0.526c0.128,0.078,0.317,0.147,0.567,0.207l0.571,0.137
		c0.622,0.147,1.038,0.291,1.249,0.429c0.331,0.217,0.496,0.559,0.496,1.023c0,0.449-0.173,0.838-0.519,1.165
		s-0.871,0.49-1.578,0.49c-0.761,0-1.299-0.171-1.616-0.512c-0.316-0.341-0.486-0.763-0.508-1.266H486.039z"/>
	<path d="M493.483,122.668c0.334,0.168,0.589,0.386,0.764,0.653c0.169,0.254,0.281,0.552,0.338,0.891
		c0.05,0.232,0.074,0.604,0.074,1.113h-3.673c0.016,0.514,0.136,0.926,0.36,1.236s0.572,0.466,1.043,0.466
		c0.44,0,0.791-0.146,1.053-0.44c0.146-0.171,0.251-0.368,0.312-0.592h0.835c-0.022,0.185-0.095,0.392-0.219,0.62
		c-0.125,0.228-0.264,0.414-0.416,0.559c-0.256,0.251-0.572,0.421-0.95,0.509c-0.203,0.051-0.432,0.075-0.688,0.075
		c-0.625,0-1.154-0.229-1.589-0.686s-0.651-1.098-0.651-1.922c0-0.811,0.219-1.47,0.656-1.976s1.009-0.76,1.715-0.76
		C492.804,122.415,493.148,122.5,493.483,122.668z M493.787,124.65c-0.034-0.367-0.113-0.661-0.238-0.882
		c-0.23-0.408-0.616-0.612-1.155-0.612c-0.387,0-0.711,0.141-0.973,0.422s-0.4,0.639-0.416,1.072H493.787z"/>
	<path d="M495.759,120.651h0.849v6.928h-0.849V120.651z"/>
	<path d="M497.88,120.651h0.863v0.963h-0.863V120.651z M497.88,122.552h0.863v5.027h-0.863V122.552z"/>
	<path d="M500.025,122.528h0.807v0.717c0.239-0.295,0.492-0.508,0.76-0.637c0.267-0.129,0.563-0.193,0.891-0.193
		c0.717,0,1.201,0.25,1.453,0.75c0.138,0.273,0.207,0.665,0.207,1.175v3.239h-0.863v-3.183c0-0.309-0.045-0.557-0.137-0.745
		c-0.15-0.314-0.424-0.472-0.82-0.472c-0.201,0-0.366,0.021-0.495,0.061c-0.232,0.069-0.437,0.208-0.613,0.415
		c-0.142,0.167-0.233,0.339-0.275,0.517c-0.043,0.178-0.063,0.432-0.063,0.762v2.646h-0.85V122.528z"/>
	<path d="M508.517,122.668c0.334,0.168,0.589,0.386,0.764,0.653c0.169,0.254,0.281,0.552,0.338,0.891
		c0.05,0.232,0.074,0.604,0.074,1.113h-3.673c0.016,0.514,0.136,0.926,0.36,1.236s0.572,0.466,1.043,0.466
		c0.44,0,0.791-0.146,1.053-0.44c0.146-0.171,0.251-0.368,0.312-0.592h0.835c-0.022,0.185-0.095,0.392-0.219,0.62
		c-0.125,0.228-0.264,0.414-0.416,0.559c-0.256,0.251-0.572,0.421-0.95,0.509c-0.203,0.051-0.432,0.075-0.688,0.075
		c-0.625,0-1.154-0.229-1.589-0.686s-0.651-1.098-0.651-1.922c0-0.811,0.219-1.47,0.656-1.976s1.009-0.76,1.715-0.76
		C507.837,122.415,508.182,122.5,508.517,122.668z M508.82,124.65c-0.034-0.367-0.113-0.661-0.238-0.882
		c-0.23-0.408-0.616-0.612-1.155-0.612c-0.387,0-0.711,0.141-0.973,0.422s-0.4,0.639-0.416,1.072H508.82z"/>
</g>
<path d="M527.303,151.902c1.051,0,1.438,0.696,1.438,1.769v5.536l-0.263,0.707h-0.673v-6.322c0-0.583-0.194-0.811-0.696-0.811
	h-1.484c-0.331,0.913-0.41,1.403-0.41,1.712c0.171,0.239,0.548,0.377,1.084,0.57l-0.251,0.685h-0.571
	c-0.981-0.41-1.461-0.89-0.696-3.001l-0.878-0.309l0.217-0.536H527.303z M533.672,151.902c1.05,0,1.438,0.696,1.438,1.769v4.075
	h-0.937v-4.154c0-0.583-0.193-0.811-0.696-0.811h-1.951v1.13c0,1.21,0.08,2.031,0.263,2.922l-0.331,0.913h-1.724v-0.65l1.176-0.286
	c-0.229-0.89-0.32-1.688-0.32-2.898l0.297-1.13l-0.936-0.263l0.217-0.616H533.672z M536.971,151.902
	c0.662,0.148,0.936,0.229,0.936,0.89v4.497l-0.171,0.457h-0.799v-4.954l-0.799-0.285l0.228-0.741L536.971,151.902z M544.982,153.568
	c-0.159,2.865-0.936,4.166-3.721,4.178h-0.422l-0.708-0.285l0.012-0.023l-0.811-4.394l-0.319-0.902l0.639-0.239h0.251l0.309,0.901
	l0.331,1.94c0.365-0.377,0.548-1.118,0.845-1.883l0.308-0.8l0.274-0.273l0.707,0.331v0.057l-0.365,0.981
	c-0.319,0.868-0.707,1.906-1.644,2.283l0.252,1.449h0.319c2.021,0,2.603-0.707,2.785-3.47l0.079-1.176l0.183-0.422l0.776,0.297
	L544.982,153.568z M551.215,156.901l-0.229,0.845h-2.431v-0.594l0.799-0.297h0.913c-0.068-0.719-0.104-1.164-0.104-2.1
	c0-1.438-0.147-1.952-1.301-1.964l-1.004-0.011c-0.445,1.644-0.411,3.504-0.469,4.965h-0.582l-0.376-0.137
	c0.068-1.77,0.217-3.322,0.376-4.007l0.331-0.811h-0.022l-0.981-0.239l0.263-0.662l1.038,0.058l1.507-0.035
	c1.495-0.034,2.18,0.879,2.157,2.819C551.089,155.531,551.146,156.217,551.215,156.901z"/>
<g>
	<path d="M473.878,150.818h2.769c0.94,0,1.669,0.339,2.188,1.015c0.462,0.609,0.693,1.391,0.693,2.344c0,0.735-0.137,1.4-0.41,1.994
		c-0.48,1.05-1.308,1.575-2.479,1.575h-2.76V150.818z M476.463,156.944c0.31,0,0.565-0.033,0.765-0.099
		c0.356-0.123,0.648-0.358,0.876-0.708c0.182-0.279,0.312-0.638,0.393-1.075c0.046-0.261,0.069-0.503,0.069-0.726
		c0-0.858-0.167-1.525-0.501-2c-0.333-0.475-0.87-0.712-1.611-0.712h-1.628v5.319H476.463z"/>
	<path d="M483.816,152.835c0.334,0.168,0.589,0.386,0.764,0.653c0.169,0.254,0.281,0.552,0.338,0.891
		c0.05,0.232,0.074,0.604,0.074,1.113h-3.673c0.016,0.514,0.136,0.926,0.36,1.236s0.572,0.466,1.043,0.466
		c0.44,0,0.791-0.146,1.053-0.44c0.146-0.171,0.251-0.368,0.312-0.592h0.835c-0.022,0.185-0.095,0.392-0.219,0.62
		c-0.125,0.228-0.264,0.414-0.416,0.559c-0.256,0.251-0.572,0.421-0.95,0.509c-0.203,0.051-0.432,0.075-0.688,0.075
		c-0.625,0-1.154-0.229-1.589-0.686s-0.651-1.098-0.651-1.922c0-0.811,0.219-1.47,0.656-1.976s1.009-0.76,1.715-0.76
		C483.137,152.582,483.481,152.667,483.816,152.835z M484.12,154.817c-0.034-0.367-0.113-0.661-0.238-0.882
		c-0.23-0.408-0.616-0.612-1.155-0.612c-0.387,0-0.711,0.141-0.973,0.422s-0.4,0.639-0.416,1.072H484.12z"/>
	<path d="M486.572,156.162c0.025,0.282,0.098,0.499,0.217,0.65c0.218,0.273,0.597,0.41,1.136,0.41c0.321,0,0.604-0.068,0.847-0.205
		c0.244-0.137,0.366-0.349,0.366-0.635c0-0.217-0.098-0.382-0.292-0.495c-0.125-0.068-0.371-0.148-0.738-0.24l-0.686-0.17
		c-0.438-0.106-0.761-0.226-0.968-0.358c-0.371-0.229-0.556-0.547-0.556-0.952c0-0.478,0.174-0.864,0.522-1.16
		c0.35-0.296,0.818-0.443,1.408-0.443c0.771,0,1.326,0.224,1.667,0.67c0.214,0.283,0.317,0.588,0.312,0.915h-0.802
		c-0.017-0.191-0.086-0.364-0.208-0.521c-0.199-0.223-0.545-0.333-1.038-0.333c-0.328,0-0.576,0.061-0.745,0.183
		s-0.254,0.284-0.254,0.484c0,0.219,0.111,0.395,0.333,0.526c0.128,0.078,0.317,0.147,0.567,0.207l0.571,0.137
		c0.622,0.147,1.038,0.291,1.249,0.429c0.331,0.217,0.496,0.559,0.496,1.023c0,0.449-0.173,0.838-0.519,1.165
		s-0.871,0.49-1.578,0.49c-0.761,0-1.299-0.171-1.616-0.512c-0.316-0.341-0.486-0.763-0.508-1.266H486.572z"/>
	<path d="M494.233,152.965c0.356,0.276,0.571,0.753,0.644,1.429h-0.825c-0.051-0.312-0.165-0.57-0.345-0.776
		c-0.179-0.205-0.467-0.309-0.862-0.309c-0.541,0-0.928,0.264-1.16,0.791c-0.151,0.343-0.227,0.765-0.227,1.268
		c0,0.505,0.106,0.931,0.32,1.276c0.214,0.345,0.551,0.518,1.01,0.518c0.352,0,0.631-0.107,0.837-0.321
		c0.206-0.215,0.348-0.509,0.427-0.881h0.825c-0.095,0.67-0.33,1.159-0.707,1.469c-0.378,0.31-0.86,0.465-1.448,0.465
		c-0.66,0-1.187-0.241-1.579-0.725c-0.394-0.482-0.59-1.085-0.59-1.808c0-0.887,0.215-1.577,0.646-2.07
		c0.431-0.494,0.979-0.74,1.646-0.74C493.413,152.55,493.876,152.688,494.233,152.965z"/>
	<path d="M498.845,152.835c0.334,0.168,0.589,0.386,0.764,0.653c0.169,0.254,0.281,0.552,0.338,0.891
		c0.05,0.232,0.074,0.604,0.074,1.113h-3.673c0.016,0.514,0.136,0.926,0.36,1.236s0.572,0.466,1.043,0.466
		c0.44,0,0.791-0.146,1.053-0.44c0.146-0.171,0.251-0.368,0.312-0.592h0.835c-0.022,0.185-0.095,0.392-0.219,0.62
		c-0.125,0.228-0.264,0.414-0.416,0.559c-0.256,0.251-0.572,0.421-0.95,0.509c-0.203,0.051-0.432,0.075-0.688,0.075
		c-0.625,0-1.154-0.229-1.589-0.686s-0.651-1.098-0.651-1.922c0-0.811,0.219-1.47,0.656-1.976s1.009-0.76,1.715-0.76
		C498.165,152.582,498.51,152.667,498.845,152.835z M499.148,154.817c-0.034-0.367-0.113-0.661-0.238-0.882
		c-0.23-0.408-0.616-0.612-1.155-0.612c-0.387,0-0.711,0.141-0.973,0.422s-0.4,0.639-0.416,1.072H499.148z"/>
	<path d="M501.096,152.695h0.807v0.717c0.239-0.295,0.492-0.508,0.76-0.637c0.267-0.129,0.563-0.193,0.891-0.193
		c0.717,0,1.201,0.25,1.453,0.75c0.138,0.273,0.207,0.665,0.207,1.175v3.239h-0.863v-3.183c0-0.309-0.045-0.557-0.137-0.745
		c-0.15-0.314-0.424-0.472-0.82-0.472c-0.201,0-0.366,0.021-0.495,0.061c-0.232,0.069-0.437,0.208-0.613,0.415
		c-0.142,0.167-0.233,0.339-0.275,0.517c-0.043,0.178-0.063,0.432-0.063,0.762v2.646h-0.85V152.695z"/>
	<path d="M509.243,152.852c0.15,0.094,0.32,0.259,0.512,0.495v-2.552h0.816v6.951h-0.765v-0.702c-0.197,0.311-0.431,0.535-0.7,0.674
		c-0.269,0.139-0.577,0.207-0.925,0.207c-0.561,0-1.046-0.236-1.456-0.709c-0.411-0.474-0.616-1.103-0.616-1.889
		c0-0.736,0.188-1.373,0.562-1.912s0.909-0.809,1.604-0.809C508.66,152.606,508.983,152.688,509.243,152.852z M507.349,156.638
		c0.228,0.365,0.594,0.547,1.098,0.547c0.391,0,0.712-0.169,0.964-0.507s0.378-0.822,0.378-1.454c0-0.639-0.13-1.111-0.39-1.418
		c-0.26-0.306-0.58-0.459-0.962-0.459c-0.425,0-0.771,0.163-1.034,0.49c-0.265,0.327-0.396,0.808-0.396,1.443
		C507.006,155.82,507.12,156.273,507.349,156.638z"/>
	<path d="M514.959,152.835c0.334,0.168,0.589,0.386,0.764,0.653c0.169,0.254,0.281,0.552,0.338,0.891
		c0.05,0.232,0.074,0.604,0.074,1.113h-3.673c0.016,0.514,0.136,0.926,0.36,1.236s0.572,0.466,1.043,0.466
		c0.44,0,0.791-0.146,1.053-0.44c0.146-0.171,0.251-0.368,0.312-0.592h0.835c-0.022,0.185-0.095,0.392-0.219,0.62
		c-0.125,0.228-0.264,0.414-0.416,0.559c-0.256,0.251-0.572,0.421-0.95,0.509c-0.203,0.051-0.432,0.075-0.688,0.075
		c-0.625,0-1.154-0.229-1.589-0.686s-0.651-1.098-0.651-1.922c0-0.811,0.219-1.47,0.656-1.976s1.009-0.76,1.715-0.76
		C514.279,152.582,514.624,152.667,514.959,152.835z M515.263,154.817c-0.034-0.367-0.113-0.661-0.238-0.882
		c-0.23-0.408-0.616-0.612-1.155-0.612c-0.387,0-0.711,0.141-0.973,0.422s-0.4,0.639-0.416,1.072H515.263z"/>
	<path d="M517.234,152.695h0.806v0.873c0.066-0.17,0.229-0.377,0.486-0.62c0.258-0.244,0.555-0.366,0.891-0.366
		c0.016,0,0.043,0.002,0.08,0.005c0.038,0.003,0.103,0.01,0.193,0.02v0.896c-0.05-0.01-0.097-0.016-0.139-0.019
		c-0.043-0.003-0.089-0.005-0.14-0.005c-0.427,0-0.756,0.138-0.985,0.412c-0.229,0.275-0.344,0.592-0.344,0.95v2.905h-0.849V152.695
		z"/>
</g>
<path d="M527.931,163.351c1.05,0,1.438,0.695,1.438,1.769v4.075h-0.937v-4.155c0-0.582-0.193-0.811-0.696-0.811h-1.951v1.131
	c0,1.209,0.08,2.031,0.263,2.922l-0.331,0.913h-1.724v-0.651l1.176-0.285c-0.229-0.89-0.319-1.689-0.319-2.898l0.296-1.131
	l-0.936-0.262l0.217-0.616H527.931z M531.023,163.351c0.651,0.125,0.948,0.342,0.948,1.004v1.632l-0.274,0.754h-0.662v-2.466
	l-0.742-0.263l0.263-0.753L531.023,163.351z M537.449,169.194h-4.417v-0.879h2.899v-3.276c0-0.582-0.194-0.811-0.696-0.811h-1.507
	l-0.787-0.285l0.229-0.593h2.306c1.05,0,1.427,0.695,1.427,1.769v2.442l-0.274,0.754h0.022l0.799,0.251V169.194z M540.726,163.351
	c1.05,0,1.438,0.695,1.438,1.769v3.618l-0.172,0.457h-0.765v-4.155c0-0.582-0.194-0.811-0.696-0.811h-1.883l-0.788-0.285
	l0.229-0.593H540.726z M548.053,164.366c-0.137,4.166-0.879,4.291-3.972,5.136l-0.251,0.068h-0.434l-0.148-0.741l0.536-0.148
	c0.399-0.114,0.754-0.194,1.062-0.286c-0.251-1.335-0.811-3.104-1.483-4.714l0.582-0.33h0.308c0.605,1.529,1.085,3.275,1.21,3.926
	l0.023,0.936c1.267-0.41,1.495-0.947,1.62-3.846l0.023-0.514l0.171-0.502h0.787L548.053,164.366z"/>
<g>
	<defs>
		<rect id="SVGID_9_" width="560.808" height="174.839"/>
	</defs>
	<clipPath id="SVGID_10_">
		<use xlink:href="#SVGID_9_"  overflow="visible"/>
	</clipPath>
	<g clip-path="url(#SVGID_10_)">
		<path d="M473.878,162.267h2.769c0.94,0,1.669,0.339,2.188,1.015c0.462,0.609,0.693,1.391,0.693,2.344
			c0,0.735-0.137,1.4-0.41,1.994c-0.48,1.05-1.308,1.575-2.479,1.575h-2.76V162.267z M476.463,168.393
			c0.31,0,0.565-0.033,0.765-0.099c0.356-0.123,0.648-0.358,0.876-0.708c0.182-0.279,0.312-0.638,0.393-1.075
			c0.046-0.261,0.069-0.503,0.069-0.726c0-0.858-0.167-1.525-0.501-2c-0.333-0.475-0.87-0.712-1.611-0.712h-1.628v5.319H476.463z"/>
		<path d="M483.816,164.283c0.334,0.168,0.589,0.386,0.764,0.653c0.169,0.254,0.281,0.552,0.338,0.891
			c0.05,0.232,0.074,0.604,0.074,1.113h-3.673c0.016,0.514,0.136,0.926,0.36,1.236s0.572,0.466,1.043,0.466
			c0.44,0,0.791-0.146,1.053-0.44c0.146-0.171,0.251-0.368,0.312-0.592h0.835c-0.022,0.185-0.095,0.392-0.219,0.62
			c-0.125,0.228-0.264,0.414-0.416,0.559c-0.256,0.251-0.572,0.421-0.95,0.509c-0.203,0.051-0.432,0.075-0.688,0.075
			c-0.625,0-1.154-0.229-1.589-0.686s-0.651-1.098-0.651-1.922c0-0.811,0.219-1.47,0.656-1.976s1.009-0.76,1.715-0.76
			C483.137,164.03,483.481,164.115,483.816,164.283z M484.12,166.266c-0.034-0.367-0.113-0.661-0.238-0.882
			c-0.23-0.408-0.616-0.612-1.155-0.612c-0.387,0-0.711,0.141-0.973,0.422s-0.4,0.639-0.416,1.072H484.12z"/>
		<path d="M486.572,167.61c0.025,0.282,0.098,0.499,0.217,0.65c0.218,0.273,0.597,0.41,1.136,0.41c0.321,0,0.604-0.068,0.847-0.205
			c0.244-0.137,0.366-0.349,0.366-0.635c0-0.217-0.098-0.382-0.292-0.495c-0.125-0.068-0.371-0.148-0.738-0.24l-0.686-0.17
			c-0.438-0.106-0.761-0.226-0.968-0.358c-0.371-0.229-0.556-0.547-0.556-0.952c0-0.478,0.174-0.864,0.522-1.16
			c0.35-0.296,0.818-0.443,1.408-0.443c0.771,0,1.326,0.224,1.667,0.67c0.214,0.283,0.317,0.588,0.312,0.915h-0.802
			c-0.017-0.191-0.086-0.364-0.208-0.521c-0.199-0.223-0.545-0.333-1.038-0.333c-0.328,0-0.576,0.061-0.745,0.183
			s-0.254,0.284-0.254,0.484c0,0.219,0.111,0.395,0.333,0.526c0.128,0.078,0.317,0.147,0.567,0.207l0.571,0.137
			c0.622,0.147,1.038,0.291,1.249,0.429c0.331,0.217,0.496,0.559,0.496,1.023c0,0.449-0.173,0.838-0.519,1.165
			s-0.871,0.49-1.578,0.49c-0.761,0-1.299-0.171-1.616-0.512c-0.316-0.341-0.486-0.763-0.508-1.266H486.572z"/>
		<path d="M494.233,164.413c0.356,0.276,0.571,0.753,0.644,1.429h-0.825c-0.051-0.312-0.165-0.57-0.345-0.776
			c-0.179-0.205-0.467-0.309-0.862-0.309c-0.541,0-0.928,0.264-1.16,0.791c-0.151,0.343-0.227,0.765-0.227,1.268
			c0,0.505,0.106,0.931,0.32,1.276c0.214,0.345,0.551,0.518,1.01,0.518c0.352,0,0.631-0.107,0.837-0.321
			c0.206-0.215,0.348-0.509,0.427-0.881h0.825c-0.095,0.67-0.33,1.159-0.707,1.469c-0.378,0.31-0.86,0.465-1.448,0.465
			c-0.66,0-1.187-0.241-1.579-0.725c-0.394-0.482-0.59-1.085-0.59-1.808c0-0.887,0.215-1.577,0.646-2.07
			c0.431-0.494,0.979-0.74,1.646-0.74C493.413,163.998,493.876,164.136,494.233,164.413z"/>
		<path d="M498.845,164.283c0.334,0.168,0.589,0.386,0.764,0.653c0.169,0.254,0.281,0.552,0.338,0.891
			c0.05,0.232,0.074,0.604,0.074,1.113h-3.673c0.016,0.514,0.136,0.926,0.36,1.236s0.572,0.466,1.043,0.466
			c0.44,0,0.791-0.146,1.053-0.44c0.146-0.171,0.251-0.368,0.312-0.592h0.835c-0.022,0.185-0.095,0.392-0.219,0.62
			c-0.125,0.228-0.264,0.414-0.416,0.559c-0.256,0.251-0.572,0.421-0.95,0.509c-0.203,0.051-0.432,0.075-0.688,0.075
			c-0.625,0-1.154-0.229-1.589-0.686s-0.651-1.098-0.651-1.922c0-0.811,0.219-1.47,0.656-1.976s1.009-0.76,1.715-0.76
			C498.165,164.03,498.51,164.115,498.845,164.283z M499.148,166.266c-0.034-0.367-0.113-0.661-0.238-0.882
			c-0.23-0.408-0.616-0.612-1.155-0.612c-0.387,0-0.711,0.141-0.973,0.422s-0.4,0.639-0.416,1.072H499.148z"/>
		<path d="M501.096,164.144h0.807v0.717c0.239-0.295,0.492-0.508,0.76-0.637c0.267-0.129,0.563-0.193,0.891-0.193
			c0.717,0,1.201,0.25,1.453,0.75c0.138,0.273,0.207,0.665,0.207,1.175v3.239h-0.863v-3.183c0-0.309-0.045-0.557-0.137-0.745
			c-0.15-0.314-0.424-0.472-0.82-0.472c-0.201,0-0.366,0.021-0.495,0.061c-0.232,0.069-0.437,0.208-0.613,0.415
			c-0.142,0.167-0.233,0.339-0.275,0.517c-0.043,0.178-0.063,0.432-0.063,0.762v2.646h-0.85V164.144z"/>
		<path d="M509.243,164.3c0.15,0.094,0.32,0.259,0.512,0.495v-2.552h0.816v6.951h-0.765v-0.702c-0.197,0.311-0.431,0.535-0.7,0.674
			c-0.269,0.139-0.577,0.207-0.925,0.207c-0.561,0-1.046-0.236-1.456-0.709c-0.411-0.474-0.616-1.103-0.616-1.889
			c0-0.736,0.188-1.373,0.562-1.912s0.909-0.809,1.604-0.809C508.66,164.055,508.983,164.136,509.243,164.3z M507.349,168.086
			c0.228,0.365,0.594,0.547,1.098,0.547c0.391,0,0.712-0.169,0.964-0.507s0.378-0.822,0.378-1.454c0-0.639-0.13-1.111-0.39-1.418
			c-0.26-0.306-0.58-0.459-0.962-0.459c-0.425,0-0.771,0.163-1.034,0.49c-0.265,0.327-0.396,0.808-0.396,1.443
			C507.006,167.269,507.12,167.722,507.349,168.086z"/>
		<path d="M514.959,164.283c0.334,0.168,0.589,0.386,0.764,0.653c0.169,0.254,0.281,0.552,0.338,0.891
			c0.05,0.232,0.074,0.604,0.074,1.113h-3.673c0.016,0.514,0.136,0.926,0.36,1.236s0.572,0.466,1.043,0.466
			c0.44,0,0.791-0.146,1.053-0.44c0.146-0.171,0.251-0.368,0.312-0.592h0.835c-0.022,0.185-0.095,0.392-0.219,0.62
			c-0.125,0.228-0.264,0.414-0.416,0.559c-0.256,0.251-0.572,0.421-0.95,0.509c-0.203,0.051-0.432,0.075-0.688,0.075
			c-0.625,0-1.154-0.229-1.589-0.686s-0.651-1.098-0.651-1.922c0-0.811,0.219-1.47,0.656-1.976s1.009-0.76,1.715-0.76
			C514.279,164.03,514.624,164.115,514.959,164.283z M515.263,166.266c-0.034-0.367-0.113-0.661-0.238-0.882
			c-0.23-0.408-0.616-0.612-1.155-0.612c-0.387,0-0.711,0.141-0.973,0.422s-0.4,0.639-0.416,1.072H515.263z"/>
		<path d="M517.234,164.144h0.806v0.873c0.066-0.17,0.229-0.377,0.486-0.62c0.258-0.244,0.555-0.366,0.891-0.366
			c0.016,0,0.043,0.002,0.08,0.005c0.038,0.003,0.103,0.01,0.193,0.02v0.896c-0.05-0.01-0.097-0.016-0.139-0.019
			c-0.043-0.003-0.089-0.005-0.14-0.005c-0.427,0-0.756,0.138-0.985,0.412c-0.229,0.275-0.344,0.592-0.344,0.95v2.905h-0.849
			V164.144z"/>
	</g>
</g>
<rect fill="none" width="560.808" height="174.839"/>
</svg>
