<?xml version="1.0" encoding="utf-8"?>
<!-- Generator: Adobe Illustrator 16.0.0, SVG Export Plug-In . SVG Version: 6.00 Build 0)  -->
<!DOCTYPE svg PUBLIC "-//W3C//DTD SVG 1.1//EN" "http://www.w3.org/Graphics/SVG/1.1/DTD/svg11.dtd">
<svg version="1.1" id="Layer_1" xmlns="http://www.w3.org/2000/svg" xmlns:xlink="http://www.w3.org/1999/xlink" x="0px" y="0px"
	 width="31.917px" height="5.789px" viewBox="2.378 0 31.917 5.789" enable-background="new 2.378 0 31.917 5.789"
	 xml:space="preserve">
<path fill="#43B7E8" d="M30.823,4.576h-6.197c-0.828,0-1.5-0.672-1.5-1.5c0-0.829,0.672-1.5,1.5-1.5h6.197
	c0.829,0,1.5,0.671,1.5,1.5C32.323,3.904,31.652,4.576,30.823,4.576z"/>
<path fill="#FF8EA2" d="M12.362,4.576H6.166c-0.829,0-1.5-0.672-1.5-1.5c0-0.829,0.671-1.5,1.5-1.5h6.197c0.829,0,1.5,0.671,1.5,1.5
	C13.862,3.904,13.191,4.576,12.362,4.576z"/>
</svg>
