<?xml version="1.0" encoding="utf-8"?>
<!-- Generator: Adobe Illustrator 16.0.0, SVG Export Plug-In . SVG Version: 6.00 Build 0)  -->
<!DOCTYPE svg PUBLIC "-//W3C//DTD SVG 1.1//EN" "http://www.w3.org/Graphics/SVG/1.1/DTD/svg11.dtd">
<svg version="1.1" id="Layer_1" xmlns="http://www.w3.org/2000/svg" xmlns:xlink="http://www.w3.org/1999/xlink" x="0px" y="0px"
	 width="31.917px" height="5.789px" viewBox="0 0 31.917 5.789" enable-background="new 0 0 31.917 5.789" xml:space="preserve">
<path fill="#43B7E8" d="M31.122,3.872h-7.597c-0.439,0-0.797-0.356-0.797-0.796c0-0.44,0.357-0.796,0.797-0.796h7.597
	c0.439,0,0.796,0.356,0.796,0.796C31.917,3.516,31.561,3.872,31.122,3.872z"/>
<path fill="#FF8EA2" d="M12.667,3.872H5.125c-0.44,0-0.796-0.356-0.796-0.796c0-0.44,0.356-0.796,0.796-0.796h7.542
	c0.44,0,0.796,0.356,0.796,0.796C13.464,3.516,13.107,3.872,12.667,3.872z"/>
</svg>
