<?xml version="1.0" encoding="utf-8"?>
<!-- Generator: Adobe Illustrator 16.0.0, SVG Export Plug-In . SVG Version: 6.00 Build 0)  -->
<!DOCTYPE svg PUBLIC "-//W3C//DTD SVG 1.1//EN" "http://www.w3.org/Graphics/SVG/1.1/DTD/svg11.dtd">
<svg version="1.1" id="Layer_1" xmlns="http://www.w3.org/2000/svg" xmlns:xlink="http://www.w3.org/1999/xlink" x="0px" y="0px"
	 width="743.135px" height="207.314px" viewBox="0 0 743.135 207.314" enable-background="new 0 0 743.135 207.314"
	 xml:space="preserve">
<path fill="#333333" d="M518.919,25.198c5.728,0,10.309-4.581,10.309-10.078c0-5.729-4.581-10.08-10.309-10.08
	c-5.27,0-9.852,4.354-9.852,10.08C509.069,20.617,513.651,25.198,518.919,25.198z"/>
<polygon fill="#333333" points="250.589,17.868 246.007,5.498 232.721,10.309 232.721,160.813 250.589,160.813 "/>
<path fill="#333333" d="M19.661,43.524l-9.394-1.832L5,56.812l14.89,5.271v49.479h13.287l5.498-15.12V63.684
	C38.675,50.397,32.718,46.045,19.661,43.524z"/>
<path fill="#333333" d="M74.661,43.524L62.52,40.775l-4.581,14.892l16.035,5.728v99.421H90.01l3.436-9.164V61.393
	C93.446,48.106,87.948,46.503,74.661,43.524z"/>
<path fill="#333333" d="M126.89,70.098v68.037c0,16.951,0,27.946-1.375,35.507c-2.978,8.478-10.308,13.286-17.181,15.808
	l-14.661,5.27l3.437,9.62h16.035c17.183-4.354,31.613-18.783,31.613-59.562v-81.78l-13.516-4.812L126.89,70.098z"/>
<path fill="#333333" d="M184.845,43.524l-12.829-2.521l-5.039,15.12l17.868,5.728h-0.229c-3.896,21.533-3.896,43.524-3.896,66.661
	v75.824h13.745l5.04-13.743v-63.455c0-22.68-0.458-42.839,1.832-63.913C202.713,49.938,196.528,45.815,184.845,43.524z"/>
<path fill="#333333" d="M596.771,43.296c5.727,0,10.309-4.581,10.309-10.079c0-5.728-4.581-10.079-10.309-10.079
	c-5.271,0-9.851,4.354-9.851,10.079C586.921,38.715,591.502,43.296,596.771,43.296z"/>
<path fill="#333333" d="M674.489,43.066c5.729,0,10.311-4.581,10.311-10.078c0-5.728-4.582-10.079-10.311-10.079
	c-5.27,0-9.851,4.354-9.851,10.079C664.639,38.485,669.22,43.066,674.489,43.066z"/>
<path fill="#333333" d="M646.77,43.066c5.729,0,10.309-4.581,10.309-10.078c0-5.728-4.58-10.079-10.309-10.079
	c-5.269,0-9.851,4.354-9.851,10.079C636.92,38.485,641.502,43.066,646.77,43.066z"/>
<polygon fill="#333333" points="607.078,70.327 602.496,58.186 589.212,62.997 589.212,144.777 551.412,144.777 551.412,160.813 
	601.353,160.813 603.644,154.628 621.053,160.813 625.699,160.813 625.699,144.777 607.078,144.777 "/>
<path fill="#333333" d="M463.255,22.679c-5.271,0-9.852,4.354-9.852,10.08c0,5.496,4.581,10.078,9.852,10.078
	c5.728,0,10.31-4.582,10.31-10.078C473.564,27.031,468.982,22.679,463.255,22.679z"/>
<path fill="#333333" d="M455.008,70.098v68.037c0,16.951,0,27.946-1.374,35.507c-2.979,8.478-10.311,13.286-17.183,15.808
	l-14.66,5.27l3.438,9.62h16.035c17.182-4.354,31.613-18.783,31.613-59.562v-81.78l-13.518-4.812L455.008,70.098z"/>
<path fill="#333333" d="M243.259,194.717c-4.124-2.979-5.04-6.186-5.04-8.704c0-2.979,2.291-5.498,7.101-5.498h4.812v-4.811
	l-7.104-2.521c-8.703,0-12.599,7.103-12.599,11.912c0,3.665,1.375,8.019,6.872,11.911l-8.934,3.437v6.872h4.124l19.93-7.56v-6.644
	h-4.812L243.259,194.717z"/>
<polygon fill="#333333" points="723.158,7.331 719.266,17.868 719.266,144.777 670.365,144.777 670.365,70.327 665.782,58.186 
	652.496,62.997 652.496,144.777 624.026,144.777 624.026,160.813 664.639,160.813 666.93,154.628 684.339,160.813 731.406,160.813 
	737.134,144.777 737.134,7.331 "/>
<path fill="#333333" d="M514.567,43.524l-12.142-2.749l-4.582,14.892l16.036,5.728v99.421h16.033l3.438-9.164V61.393
	C533.351,48.106,527.853,46.503,514.567,43.524z"/>
<polygon fill="#333333" points="284.948,10.309 284.948,160.813 302.816,160.813 302.816,17.868 298.234,5.498 "/>
<polygon fill="#333333" points="337.13,34.591 337.13,160.813 354.996,160.813 354.996,42.15 350.414,29.781 "/>
<path fill="#333333" d="M410.182,61.164h17.181l1.374-3.438V44.671l-2.979-1.146h-47.419l-4.354,11.454l22.222,6.187
	c-8.247,15.578-7.103,36.882-4.354,52.459l8.477,47.189h16.036l2.062-5.728l-8.245-43.983
	C408.807,103.772,405.141,77.2,410.182,61.164z"/>
<path fill="#333333" d="M354.996,7.331h-18.556c-7.559,0-10.995,2.749-10.995,10.079v4.812l6.872,2.521l2.749-7.331h18.555
	c7.562,0,10.996-2.749,10.996-9.852V2.291L357.745,0L354.996,7.331z"/>
</svg>
