<?xml version="1.0" encoding="utf-8"?>
<!-- Generator: Adobe Illustrator 16.0.0, SVG Export Plug-In . SVG Version: 6.00 Build 0)  -->
<!DOCTYPE svg PUBLIC "-//W3C//DTD SVG 1.1//EN" "http://www.w3.org/Graphics/SVG/1.1/DTD/svg11.dtd">
<svg version="1.1" id="Layer_1" xmlns="http://www.w3.org/2000/svg" xmlns:xlink="http://www.w3.org/1999/xlink" x="0px" y="0px"
	 width="743.135px" height="207.315px" viewBox="0 0 743.135 207.315" enable-background="new 0 0 743.135 207.315"
	 xml:space="preserve">
<g>
	<path d="M513.919,25.199c5.728,0,10.309-4.582,10.309-10.079c0-5.728-4.581-10.08-10.309-10.08c-5.268,0-9.85,4.353-9.85,10.08
		C504.069,20.617,508.651,25.199,513.919,25.199z"/>
	<polygon points="245.589,17.868 241.007,5.498 227.721,10.309 227.721,160.813 245.589,160.813 	"/>
	<path d="M14.661,43.524l-9.392-1.832L0,56.812l14.89,5.27v49.48h13.287l5.498-15.12V63.684
		C33.675,50.397,27.718,46.045,14.661,43.524z"/>
	<path d="M69.661,43.524L57.52,40.775l-4.581,14.891l16.035,5.727v99.421H85.01l3.436-9.164V61.393
		C88.446,48.106,82.948,46.503,69.661,43.524z"/>
	<path d="M121.89,70.098v68.037c0,16.952,0,27.947-1.375,35.507c-2.978,8.477-10.308,13.286-17.181,15.807l-14.661,5.269
		l3.437,9.621h16.035c17.181-4.353,31.613-18.784,31.613-59.561v-81.78l-13.516-4.812L121.89,70.098z"/>
	<path d="M179.845,43.524l-12.829-2.52l-5.039,15.12l17.868,5.727h-0.229c-3.895,21.533-3.895,43.525-3.895,66.661v75.825h13.745
		l5.04-13.744v-63.455c0-22.679-0.458-42.838,1.832-63.913C197.713,49.938,191.528,45.815,179.845,43.524z"/>
	<path d="M591.771,43.296c5.727,0,10.309-4.581,10.309-10.079c0-5.727-4.582-10.08-10.309-10.08c-5.27,0-9.851,4.354-9.851,10.08
		C581.921,38.715,586.502,43.296,591.771,43.296z"/>
	<path d="M680.49,43.066c5.727,0,10.309-4.581,10.309-10.078c0-5.728-4.582-10.08-10.309-10.08c-5.27,0-9.851,4.353-9.851,10.08
		C670.64,38.485,675.221,43.066,680.49,43.066z"/>
	<path d="M652.771,43.066c5.728,0,10.309-4.581,10.309-10.078c0-5.728-4.581-10.08-10.309-10.08c-5.269,0-9.851,4.353-9.851,10.08
		C642.921,38.485,647.503,43.066,652.771,43.066z"/>
	<polygon points="602.08,70.327 597.498,58.186 584.212,62.997 584.212,144.777 546.414,144.777 546.414,160.813 596.353,160.813 
		598.644,154.628 616.053,160.813 620.701,160.813 620.701,144.777 602.08,144.777 	"/>
	<path d="M458.255,22.679c-5.269,0-9.85,4.354-9.85,10.08c0,5.497,4.581,10.079,9.85,10.079c5.728,0,10.31-4.582,10.31-10.079
		C468.564,27.032,463.982,22.679,458.255,22.679z"/>
	<path d="M450.008,70.098v68.037c0,16.952,0,27.947-1.374,35.507c-2.978,8.477-10.309,13.286-17.181,15.807l-14.661,5.269
		l3.437,9.621h16.035c17.182-4.353,31.613-18.784,31.613-59.561v-81.78l-13.516-4.812L450.008,70.098z"/>
	<path d="M238.259,194.717c-4.124-2.978-5.04-6.185-5.04-8.705c0-2.978,2.291-5.498,7.101-5.498h4.811v-4.81l-7.102-2.521
		c-8.705,0-12.599,7.102-12.599,11.912c0,3.665,1.375,8.019,6.872,11.912l-8.934,3.436v6.872h4.124l19.93-7.559v-6.643h-4.811
		L238.259,194.717z"/>
	<polygon points="729.161,7.331 725.267,17.868 725.267,144.777 676.367,144.777 676.367,70.327 671.785,58.186 658.499,62.997 
		658.499,144.777 630.027,144.777 630.027,160.813 670.64,160.813 672.931,154.628 690.34,160.813 737.408,160.813 743.135,144.777 
		743.135,7.331 	"/>
	<path d="M509.567,43.524l-12.142-2.749l-4.582,14.891l16.036,5.727v99.421h16.035l3.436-9.164V61.393
		C528.351,48.106,522.853,46.503,509.567,43.524z"/>
	<polygon points="279.948,10.309 279.948,160.813 297.816,160.813 297.816,17.868 293.234,5.498 	"/>
	<polygon points="332.13,34.591 332.13,160.813 349.998,160.813 349.998,42.15 345.416,29.781 	"/>
	<path d="M405.182,61.164h17.181l1.374-3.437V44.671l-2.979-1.146h-47.419l-4.353,11.454l22.221,6.186
		c-8.247,15.578-7.102,36.882-4.354,52.459l8.477,47.19h16.036l2.061-5.727l-8.245-43.984
		C403.807,103.772,400.141,77.2,405.182,61.164z"/>
	<path d="M349.998,7.331h-18.556c-7.559,0-10.995,2.749-10.995,10.079v4.811l6.872,2.521l2.749-7.331h18.555
		c7.56,0,10.996-2.749,10.996-9.851V2.291L352.747,0L349.998,7.331z"/>
</g>
</svg>
