<?xml version="1.0" encoding="utf-8"?>
<!-- Generator: Adobe Illustrator 16.0.0, SVG Export Plug-In . SVG Version: 6.00 Build 0)  -->
<!DOCTYPE svg PUBLIC "-//W3C//DTD SVG 1.1//EN" "http://www.w3.org/Graphics/SVG/1.1/DTD/svg11.dtd">
<svg version="1.1" id="Layer_1" xmlns="http://www.w3.org/2000/svg" xmlns:xlink="http://www.w3.org/1999/xlink" x="0px" y="0px"
	 width="153px" height="279.884px" viewBox="0 0 153 279.884" enable-background="new 0 0 153 279.884" xml:space="preserve">
<path fill="#FF8EA2" d="M29.576,115.018l-7.683,20.808v144.059h22.089l4.162-11.525V115.018H29.576z M13.89,55.154L7.487,71.801
	l22.089,8.003h92.837v4.481c0,47.059-8.003,64.025-28.811,94.757l-17.287,25.611v14.405h21.448l18.248-28.491
	c24.328-38.095,32.012-57.623,32.012-103.721v-6.083c0-13.125-5.762-25.61-21.768-25.61H13.89z"/>
<path fill="#43B7E8" d="M147.377,23.461l-8.322-21.449l-23.049,7.363v3.842l6.402,16.967V196.65H60.303
	c-20.488,0-32.333-14.405-32.333-33.612c0-21.449,1.601-27.211,5.763-45.139l-18.888-7.043L4.92,139.667
	C3.641,145.75,3,152.152,3,163.038c0,33.293,21.449,56.021,60.505,56.021h75.871l8.002-22.409V23.461z"/>
<path fill="#43B7E8" d="M58.702,103.394l36.495-13.563V77.843h-8.645l-8.002,3.154c-7.684-5.678-9.285-11.356-9.285-15.772
	c0-5.361,4.162-10.094,13.125-10.094h8.645v-8.517L78.23,41.882c-15.686,0-23.049,12.933-23.049,21.45
	c0,6.625,2.24,14.511,12.485,21.766l-16.327,5.994v12.302H58.702z"/>
</svg>
