<?xml version="1.0" encoding="utf-8"?>
<!-- Generator: Adobe Illustrator 16.0.0, SVG Export Plug-In . SVG Version: 6.00 Build 0)  -->
<!DOCTYPE svg PUBLIC "-//W3C//DTD SVG 1.1//EN" "http://www.w3.org/Graphics/SVG/1.1/DTD/svg11.dtd">
<svg version="1.1" id="Layer_1" xmlns="http://www.w3.org/2000/svg" xmlns:xlink="http://www.w3.org/1999/xlink" x="0px" y="0px"
	 width="153px" height="279.885px" viewBox="0 0 153 279.885" enable-background="new 0 0 153 279.885" xml:space="preserve">
<path fill="#43B7E8" d="M147.377,23.461l-8.322-21.448l-23.049,7.362v3.842l6.402,16.968V196.65H60.303
	c-20.488,0-32.333-14.404-32.333-33.611c0-21.449,1.601-27.211,5.763-45.14l-18.888-7.043L4.92,139.667
	C3.641,145.75,3,152.152,3,163.038c0,33.293,21.449,56.021,60.505,56.021h75.871l8.002-22.409L147.377,23.461L147.377,23.461z"/>
<path fill="#43B7E8" d="M58.702,103.394l36.495-13.562V77.844h-8.645l-8.004,3.153c-7.684-5.679-9.285-11.355-9.285-15.771
	c0-5.361,4.162-10.095,13.125-10.095h8.646v-8.518L78.23,41.882c-15.688,0-23.049,12.934-23.049,21.45
	c0,6.625,2.24,14.512,12.485,21.767l-16.327,5.993v12.303L58.702,103.394L58.702,103.394z"/>
</svg>
