<?xml version="1.0" encoding="utf-8"?>
<!-- Generator: Adobe Illustrator 16.0.0, SVG Export Plug-In . SVG Version: 6.00 Build 0)  -->
<!DOCTYPE svg PUBLIC "-//W3C//DTD SVG 1.1//EN" "http://www.w3.org/Graphics/SVG/1.1/DTD/svg11.dtd">
<svg version="1.1" id="Layer_1" xmlns="http://www.w3.org/2000/svg" xmlns:xlink="http://www.w3.org/1999/xlink" x="0px" y="0px"
	 width="508.25px" height="263.971px" viewBox="0 0 508.25 263.971" enable-background="new 0 0 508.25 263.971"
	 xml:space="preserve">
<g>
	<g>
		<defs>
			<rect id="SVGID_1_" x="0" y="0" width="508.25" height="263.971"/>
		</defs>
		<clipPath id="SVGID_2_">
			<use xlink:href="#SVGID_1_"  overflow="visible"/>
		</clipPath>
		<g clip-path="url(#SVGID_2_)">
			<g>
				<g>
					<defs>
						<rect id="SVGID_3_" x="-9" y="-8" width="526.25" height="272.971"/>
					</defs>
					<clipPath id="SVGID_4_">
						<use xlink:href="#SVGID_3_"  overflow="visible"/>
					</clipPath>
					<path clip-path="url(#SVGID_4_)" fill="#333333" d="M508.25,76.088l-22.692-8.677l-5.34,12.347l-2.336,34.373
						c-5.339,80.76-22.359,101.451-81.428,101.451h-9.344l-7.343-42.384c27.365-11.012,38.712-41.381,48.056-66.742l10.681-28.7
						v-1.668l-20.691-9.678l-8.009,8.009l-9.01,23.359c-8.678,22.358-14.018,44.052-24.696,55.063l-9.677-56.731l-9.012-26.363
						h-7.342l-18.688,7.008l9.344,26.364l23.694,128.479l-0.334,0.668l20.69,8.343h12.349
						c81.427-0.333,104.119-38.377,108.791-122.141L508.25,76.088z M297.009,119.805l-11.013-30.369l-23.693,8.678v4.006
						l8.676,25.027v86.768c-16.686,5.34-34.039,5.673-50.391-0.334V112.463l-20.357-7.342l-5.673,14.684v94.775
						c-17.02,6.675-33.706,6.007-51.059,0.334v-82.429l-6.674-18.021l-19.356,7.008V240.61H59.736
						c-21.357,0-33.706-15.018-33.706-35.04c0-22.358,1.67-28.365,6.008-47.055l-19.689-7.342L2.003,181.209
						C0.667,187.549,0,194.224,0,205.57c0,34.707,22.358,58.4,63.072,58.4h70.081l9.345-26.029
						c22.358,7.343,43.049,7.008,65.741-6.676c25.029,14.686,55.398,14.686,80.427,0l8.343-23.359V119.805L297.009,119.805z
						 M212.579,54.396c0,8.009,6.674,14.684,14.35,14.684c8.342,0,15.017-6.675,15.017-14.684c0-8.344-6.675-14.685-15.017-14.685
						C219.253,39.712,212.579,46.053,212.579,54.396 M186.549,69.079c8.343,0,15.017-6.675,15.017-14.684
						c0-8.344-6.674-14.685-15.017-14.685c-7.676,0-14.351,6.341-14.351,14.685C172.199,62.405,178.873,69.079,186.549,69.079
						 M206.238,29.367c8.344,0,15.018-6.675,15.018-14.686C221.255,6.34,214.581,0,206.238,0c-7.676,0-14.35,6.34-14.35,14.683
						C191.888,22.693,198.562,29.367,206.238,29.367"/>
				</g>
			</g>
		</g>
	</g>
</g>
</svg>
