<?xml version="1.0" encoding="utf-8"?>
<!-- Generator: Adobe Illustrator 16.0.0, SVG Export Plug-In . SVG Version: 6.00 Build 0)  -->
<!DOCTYPE svg PUBLIC "-//W3C//DTD SVG 1.1//EN" "http://www.w3.org/Graphics/SVG/1.1/DTD/svg11.dtd">
<svg version="1.1" id="Layer_1" xmlns="http://www.w3.org/2000/svg" xmlns:xlink="http://www.w3.org/1999/xlink" x="0px" y="0px"
	 width="91px" height="50px" viewBox="0 0 91 50" enable-background="new 0 0 91 50" xml:space="preserve">
<path fill="#FFFFFF" d="M88.285,16.022l-3.809-1.455l-0.896,2.071l-0.392,5.769C82.293,35.958,79.438,39.43,69.525,39.43h-1.567
	l-1.231-7.111c4.592-1.849,6.495-6.944,8.063-11.199l1.791-4.816v-0.28l-3.472-1.624l-1.344,1.345l-1.512,3.92
	c-1.456,3.752-2.352,7.391-4.145,9.239l-1.623-9.52l-1.512-4.424h-1.232l-3.137,1.176l1.568,4.424l3.977,21.56l-0.057,0.111
	l3.473,1.4h2.071c13.663-0.056,17.472-6.44,18.255-20.495L88.285,16.022z M52.839,23.359l-1.849-5.097l-3.975,1.456v0.672l1.455,4.2
	v14.559c-2.8,0.896-5.712,0.952-8.456-0.056V22.127l-3.416-1.232l-0.952,2.465v15.902c-2.856,1.12-5.656,1.008-8.568,0.057V25.486
	l-1.12-3.023l-3.248,1.176V43.63h-9.687c-3.584,0-5.656-2.52-5.656-5.88c0-3.752,0.28-4.76,1.008-7.896l-3.304-1.231l-1.736,5.04
	C3.112,34.726,3,35.846,3,37.75c0,5.824,3.752,9.8,10.584,9.8h11.759l1.568-4.368c3.752,1.232,7.224,1.176,11.032-1.12
	c4.2,2.465,9.295,2.465,13.497,0l1.399-3.92V23.359z M38.671,12.383c0,1.344,1.12,2.464,2.408,2.464c1.4,0,2.52-1.12,2.52-2.464
	c0-1.4-1.12-2.464-2.52-2.464C39.791,9.919,38.671,10.982,38.671,12.383 M34.303,14.847c1.4,0,2.52-1.12,2.52-2.464
	c0-1.4-1.12-2.464-2.52-2.464c-1.288,0-2.408,1.063-2.408,2.464C31.895,13.727,33.015,14.847,34.303,14.847 M37.607,8.183
	c1.4,0,2.52-1.12,2.52-2.464c0-1.399-1.12-2.464-2.52-2.464c-1.288,0-2.408,1.064-2.408,2.464
	C35.199,7.062,36.319,8.183,37.607,8.183"/>
</svg>
