<?xml version="1.0" encoding="utf-8"?>
<!-- Generator: Adobe Illustrator 16.0.0, SVG Export Plug-In . SVG Version: 6.00 Build 0)  -->
<!DOCTYPE svg PUBLIC "-//W3C//DTD SVG 1.1//EN" "http://www.w3.org/Graphics/SVG/1.1/DTD/svg11.dtd">
<svg version="1.1" id="Layer_1" xmlns="http://www.w3.org/2000/svg" xmlns:xlink="http://www.w3.org/1999/xlink" x="0px" y="0px"
	 width="2476.754px" height="71.049px" viewBox="0 0 2476.754 71.049" enable-background="new 0 0 2476.754 71.049"
	 xml:space="preserve">
<g>
	<path fill="#333333" d="M223.72,52.218h-4.417l-5.504-1.955l-0.724,1.955h-15.787v-5.069h11.949V21.296l4.2-1.521l1.449,3.839
		v23.535h8.835V52.218z M208.512,11.881c0-1.811,1.448-3.187,3.114-3.187c1.81,0,3.259,1.376,3.259,3.187
		c0,1.738-1.449,3.187-3.259,3.187C209.96,15.067,208.512,13.619,208.512,11.881z M249.707,52.218h-4.417l-5.504-1.955l-0.724,1.955
		h-15.787v-5.069h11.949V21.296l4.201-1.521l1.448,3.839v23.535h8.835V52.218z M230.298,11.809c0-1.811,1.448-3.187,3.114-3.187
		c1.81,0,3.259,1.376,3.259,3.187c0,1.738-1.449,3.187-3.259,3.187C231.747,14.995,230.298,13.547,230.298,11.809z M239.061,11.809
		c0-1.811,1.448-3.187,3.114-3.187c1.811,0,3.259,1.376,3.259,3.187c0,1.738-1.449,3.187-3.259,3.187
		C240.509,14.995,239.061,13.547,239.061,11.809z M275.346,52.218h-4.417l-5.504-1.955l-0.724,1.955h-15.787v-5.069h11.949V21.296
		l4.2-1.521l1.449,3.839v23.535h8.835V52.218z M255.938,11.809c0-1.811,1.448-3.187,3.114-3.187c1.81,0,3.259,1.376,3.259,3.187
		c0,1.738-1.449,3.187-3.259,3.187C257.386,14.995,255.938,13.547,255.938,11.809z M260.21,3.191c0-1.811,1.448-3.187,3.114-3.187
		c1.811,0,3.259,1.376,3.259,3.187c0,1.737-1.448,3.186-3.259,3.186C261.659,6.377,260.21,4.929,260.21,3.191z M267.814,8.622
		c1.811,0,3.259,1.376,3.259,3.187c0,1.738-1.448,3.187-3.259,3.187c-1.666,0-3.114-1.448-3.114-3.187
		C264.7,9.998,266.148,8.622,267.814,8.622z M289.181,47.148l-1.811,5.069h-12.818v-5.069h8.98V7.029l1.231-3.331h4.417V47.148z"/>
	<path fill="#333333" d="M331.271,52.218l-1.811,5.069h-18.25c-8.835,0-13.687-5.142-13.687-12.673c0-2.462,0.145-3.91,0.435-5.286
		l2.245-6.519l4.272,1.594c-0.941,4.056-1.303,5.358-1.303,10.211c0,4.345,2.679,7.604,7.314,7.604h15.136V7.029l1.231-3.331h4.417
		V52.218z"/>
	<path fill="#333333" d="M4.635,15.14c4.127,0.797,6.011,2.173,6.011,6.373v10.355l-1.738,4.78h-4.2V21.006L0,19.34l1.666-4.779
		L4.635,15.14z M22.023,15.14c4.2,0.941,5.938,1.448,5.938,5.649v28.532l-1.086,2.896h-5.069V20.789l-5.069-1.811l1.448-4.708
		L22.023,15.14z M32.989,33.679c0-1.737,1.376-3.113,2.969-3.113c1.811,0,3.187,1.376,3.187,3.113c0,1.666-1.376,3.114-3.187,3.114
		C34.365,36.793,32.989,35.345,32.989,33.679z M41.245,15.14c4.2,0.941,5.938,1.448,5.938,5.649v28.532l-1.086,2.896h-5.069V20.789
		l-5.069-1.811l1.448-4.708L41.245,15.14z M64.956,47.148c0,12.891-4.562,17.453-9.994,18.829h-5.069l-1.086-3.042l4.635-1.665
		c2.172-0.797,4.49-2.317,5.432-4.997c0.434-2.39,0.434-5.866,0.434-11.225V23.54l1.376-3.766l4.273,1.521V47.148z M75.422,42.007
		c0-7.313,0-14.266,1.231-21.073h0.072l-5.649-1.811l1.593-4.779l4.056,0.796c3.693,0.725,5.648,2.028,5.214,6.229
		c-0.724,6.662-0.579,13.035-0.579,20.204v20.061l-1.593,4.345h-4.345V42.007z M98.091,64.529l-6.3,2.39h-1.304v-2.173l2.824-1.086
		c-1.738-1.231-2.172-2.607-2.172-3.766c0-1.521,1.231-3.766,3.983-3.766l2.245,0.797v1.521h-1.521
		c-1.521,0-2.245,0.797-2.245,1.738c0,0.796,0.29,1.81,1.593,2.751l1.376-0.507h1.521V64.529z M91.863,52.218V4.64l4.2-1.521
		l1.448,3.911v45.188H91.863z M112.938,52.218h-5.648V4.64l4.2-1.521l1.448,3.911V52.218z M130.32,11.52l-6.3,2.39h-1.303v-2.173
		l2.824-1.086c-1.738-1.231-2.173-2.607-2.173-3.766c0-1.521,1.231-3.767,3.983-3.767l2.245,0.797v1.521h-1.521
		c-1.521,0-2.245,0.797-2.245,1.738c0,0.797,0.29,1.811,1.593,2.752l1.376-0.507h1.521V11.52z M129.596,18.761v33.457h-5.648v-35.05
		l4.562-1.594L129.596,18.761z M154.032,19.63l-0.435,1.086h-5.431c-1.593,5.069-0.435,13.47,0,15.787l2.607,13.904l-0.652,1.811
		h-5.069L142.373,37.3c-0.869-4.924-1.231-11.659,1.376-16.584l-7.025-1.955l1.376-3.621h14.991l0.941,0.362V19.63z M169.583,47.148
		c0,12.891-4.562,17.453-9.994,18.829h-5.069l-1.086-3.042l4.635-1.665c2.172-0.797,4.49-2.317,5.431-4.997
		c0.435-2.39,0.435-5.866,0.435-11.225V23.54l1.376-3.766l4.272,1.521V47.148z M163.427,11.736c0-1.811,1.448-3.187,3.114-3.187
		c1.811,0,3.259,1.376,3.259,3.187c0,1.738-1.448,3.187-3.259,3.187C164.875,14.923,163.427,13.475,163.427,11.736z M183.127,15.14
		c4.2,0.941,5.938,1.448,5.938,5.649v28.532l-1.086,2.896h-5.069V20.789l-5.069-1.811l1.449-4.708L183.127,15.14z M181.39,6.16
		c0-1.811,1.448-3.187,3.114-3.187c1.811,0,3.259,1.376,3.259,3.187c0,1.738-1.448,3.187-3.259,3.187
		C182.838,9.347,181.39,7.898,181.39,6.16z"/>
	<path fill="#333333" d="M2476.754,26.072l-2.463-6.301l-5.069,1.521v0.869l1.883,5.432v18.83
		c-3.621,1.159-7.388,1.231-10.937-0.072V24.406l-4.418-1.593L2454.519,26v20.568c-3.838,1.449-7.531,1.305-11.442-0.071V28.896
		l-1.086-3.186l-4.563,1.593v19.845h-8.111v5.069h11.949l0.58-1.593c5.215,2.027,10.43,2.68,15.645-0.436
		c5.432,3.188,12.021,3.188,17.453,0l1.812-5.068V26.072z M2432.568,47.148h-1.086l-4.347-1.594l0.146-0.434V26.072l-2.463-6.301
		l-5.069,1.521v0.869l1.883,5.432v18.83c-3.621,1.159-7.387,1.231-10.937-0.072V24.406l-4.418-1.593L2405.045,26v20.568
		c-3.838,1.449-7.532,1.305-11.443-0.071V28.896l-1.086-3.186l-4.562,1.593v19.845h-8.112v5.069h11.951l0.579-1.593
		c5.215,2.027,10.429,2.68,15.644-0.436c5.287,3.115,11.733,3.188,17.092,0.219l4.854,1.81h2.607V47.148z M2408.74,11.805
		c0,1.738,1.449,3.188,3.113,3.188c1.812,0,3.261-1.449,3.261-3.188c0-1.811-1.449-3.187-3.261-3.187
		C2410.189,8.618,2408.74,9.994,2408.74,11.805 M2403.09,14.992c1.812,0,3.259-1.449,3.259-3.188c0-1.811-1.447-3.187-3.259-3.187
		c-1.666,0-3.114,1.376-3.114,3.187C2399.976,13.543,2401.424,14.992,2403.09,14.992 M2407.364,6.373
		c1.811,0,3.259-1.449,3.259-3.188c0-1.81-1.448-3.186-3.259-3.186c-1.666,0-3.114,1.376-3.114,3.186
		C2404.25,4.924,2405.698,6.373,2407.364,6.373"/>
	<path fill="#333333" d="M2377.411,16.512l-4.925-1.883l-1.158,2.681l-0.507,7.46c-1.159,17.526-4.854,22.017-17.673,22.017h-2.027
		l-1.593-9.198c5.938-2.39,8.4-8.98,10.429-14.484l2.316-6.229v-0.362l-4.489-2.1l-1.738,1.738l-1.956,5.069
		c-1.883,4.853-3.041,9.561-5.359,11.95l-2.1-12.312l-1.956-5.723h-1.594l-4.056,1.521l2.028,5.722l5.143,27.884l-0.073,0.145
		l4.491,1.811h2.68c17.672-0.071,22.596-8.329,23.61-26.508L2377.411,16.512z M2307.782,40.702c0-4.345,2.39-6.156,5.142-6.156
		c1.448,0,2.68,0.436,3.404,0.942c0.29,0.796,0.507,2.245,0.507,4.128v7.532h-7.17C2309.665,47.148,2307.782,45.193,2307.782,40.702
		 M2306.043,25.565h3.838c0,0,2.97-0.941,8.329-0.941c8.329,0,11.516,6.156,11.516,10.429v12.096h-9.487l1.666-4.346l-0.073-4.562
		c-0.072-5.432-3.693-8.185-8.401-8.185c-6.011,0-10.429,5.07-10.429,10.503c0,4.055,2.1,6.59,2.1,6.59h-8.763v5.069h37.154
		l1.811-5.069V35.343c0-7.531-4.708-15.716-17.093-15.716c-8.111,0-12.167,2.897-12.167,2.897V25.565z M2299.816,47.148h-7.315
		v-5.287c0-7.749-9.053-17.744-17.962-21.655h-2.68l19.628-7.098l-1.449-3.549h-3.331l-18.977,6.952l-1.375,4.491v0.507
		c10.937,4.78,17.455,12.675,20.496,17.671v7.968h-22.959v5.069h26.797l0.725-1.955l5.505,1.955h2.897V47.148z M2266.348,47.148
		h-1.811c-8.256,0-9.198-8.111-9.198-12.529V3.693h-4.635l-1.014,2.752v20.424c0,13.109-3.767,17.889-10.357,20.497v-5.505
		c-0.725-4.418-4.418-16.947-7.46-25.928h-2.245l-3.476,1.304c2.462,7.097,7.749,21.437,9.56,31.287
		c-2.245,0.651-4.78,1.159-7.46,1.738l-3.331,0.725l0.579,4.056l1.955,0.725l2.897-0.652c10.863-2.462,18.83-4.635,22.597-13.543
		l0.073-0.797h0.071l0.073,0.869c0.941,5.576,3.331,10.573,9.85,10.573h3.331V47.148z M2225.21,13.47l5.722-2.172V9.415h-1.376
		l-1.23,0.507c-1.159-0.941-1.449-1.884-1.449-2.535c0-0.868,0.652-1.594,2.028-1.594h1.376V4.417l-2.028-0.724
		c-2.462,0-3.621,2.027-3.621,3.403c0,1.015,0.362,2.318,2.028,3.404l-2.608,1.014v1.955H2225.21z M2216.665,3.693h-4.563
		l-1.086,2.606v21.004c0,13.762-3.621,18.034-10.356,20.352v-5.794c-0.724-4.418-6.519-24.335-9.561-33.316h-2.245l-3.477,1.305
		c2.463,7.17,9.271,27.812,11.589,38.819c-2.246,0.507-4.708,1.015-7.388,1.594l-3.331,0.725l0.579,4.056l1.955,0.725l2.896-0.652
		c15.355-3.477,24.987-5.939,24.987-27.812V3.693z M2160.456,60.982l-1.231,0.507c-1.158-0.942-1.449-1.884-1.449-2.535
		c0-0.869,0.652-1.594,2.028-1.594h1.376v-1.376l-2.027-0.725c-2.463,0-3.621,2.028-3.621,3.404c0,1.014,0.361,2.318,2.027,3.404
		l-2.606,1.014v1.955h1.157l5.723-2.172v-1.883H2160.456z M2176.678,3.693h-4.562L2171.03,6.3v21.004
		c0,13.762-3.621,18.034-10.357,20.352v-5.794c-0.724-4.418-6.518-24.335-9.56-33.316h-2.245l-3.478,1.305
		c2.463,7.17,9.271,27.812,11.588,38.819c-2.244,0.507-4.707,1.015-7.387,1.594l-3.332,0.725l0.58,4.056l1.955,0.725l2.896-0.652
		c15.355-3.477,24.987-5.939,24.987-27.812V3.693z M2141.023,15.136h-4.996l-1.086,3.188l-0.146,3.259
		c-0.797,18.396-2.246,21.8-10.285,24.407l-0.145-5.938c-0.796-4.129-3.838-15.21-7.677-24.915h-1.955l-3.694,2.102
		c4.272,10.212,7.822,21.437,9.415,29.911c-1.955,0.58-4.2,1.087-6.735,1.811l-3.403,0.941l0.94,4.708h2.752l1.595-0.435
		c19.627-5.359,24.334-6.156,25.203-32.592L2141.023,15.136z M2104.92,47.076l-7.896-9.053c2.028-0.942,4.057-2.971,4.926-6.084
		c1.158-4.057,1.521-7.099,2.027-15.717l-4.707-1.594l-1.377,2.971c-0.65,7.17-1.014,12.095-2.244,15.57l-0.797,2.318
		l-17.744-20.353h-1.955l-1.666,4.636l5.722,6.591c-3.26,3.839-3.767,8.764-4.274,13.978l-1.157,11.878h5.358l0.652-1.811
		l1.014-10.139c0.362-3.694,0.579-7.099,1.448-10.285l19.121,22.234h1.666L2104.92,47.076z M2062.407,31.866
		c1.159-3.477,2.246-7.025,2.753-15.644l-4.563-1.811l-1.304,3.476c-0.796,7.171-1.666,11.951-2.824,15.572l-0.725,2.317
		c-6.229-7.604-10.574-13.109-15.499-20.642h-2.317l-1.521,4.491c6.518,10.212,13.688,18.323,21.51,27.015h-16.368l-4.49,1.521
		v4.056h25.493l2.173-5.576l-7.098-8.547C2059.583,37.081,2061.321,34.981,2062.407,31.866 M2021.892,35.053
		c1.521-3.331,2.681-5.648,6.303-15.499l-0.363-3.693l-3.838-1.376l-8.764,23.466c-2.173-5.577-4.562-11.226-7.75-18.758
		l-3.766-4.057h-1.811l-1.738,4.708l3.983,4.853c4.708,12.458,8.69,21.945,15.354,41.645l4.201-1.666l0.651-1.593
		c-3.113-9.198-5.432-15.716-7.821-21.945C2018.49,40.051,2020.517,38.023,2021.892,35.053 M1984.124,25.203
		c2.462,0,5.07,0.58,7.025,1.232l1.158,3.259l3.042-1.087V23.32c-3.332-2.028-6.011-3.549-11.226-3.549
		c-9.85,0-14.63,7.314-14.63,15.427c0,4.635,1.593,9.705,3.982,13.544c-3.548,2.245-5.214,6.518-5.214,9.994
		c0,7.46,5.433,12.312,18.468,12.312l4.563-1.737l-1.159-3.332h-3.766c-9.126,0-12.457-3.188-12.457-7.243
		c0-5.576,3.621-6.519,6.736-6.519h9.56l3.693-1.376l-1.304-3.693h-13.471c-0.725,0-1.449,0.072-2.101,0.218l0.941-2.318
		c-1.521-2.752-2.535-5.794-2.535-9.922c0-3.26,0.29-5.143,1.015-7.533C1978.04,26.29,1981.154,25.203,1984.124,25.203
		 M1965.482,45.12h-2.897l-7.024,1.304c-7.822-4.779-9.271-9.487-9.271-12.747c0-4.489,2.463-8.329,9.488-8.329h8.546v-2.896
		l-5.794-2.245h-3.26c-10.429,0-14.63,6.591-14.63,13.181c0,3.261,2.101,9.562,8.909,14.123l-11.371,2.028v4.056h5.649l21.655-3.91
		V45.12z M1934.101,50.842l-1.305-3.693h-20.061l0.869-2.101c-0.942-2.752-1.305-5.142-1.305-9.56c0-3.259,0.29-5.505,1.015-7.896
		c1.593-1.303,4.708-2.39,7.677-2.39c2.463,0,5.359,0.58,7.314,1.232l1.159,3.259l3.042-1.087V23.32
		c-3.332-2.028-6.301-3.549-11.516-3.549c-9.851,0-14.63,7.678-14.63,15.789c0,4.2,0.724,8.184,2.173,11.588h-8.908v5.069h30.78
		L1934.101,50.842z"/>
	<path fill="#333333" d="M1361.721,40.702c0-4.345,2.39-6.156,5.142-6.156c1.449,0,2.681,0.436,3.404,0.942
		c0.29,0.796,0.507,2.245,0.507,4.128v7.532h-7.17C1363.604,47.148,1361.721,45.193,1361.721,40.702 M1359.983,25.565h3.839
		c0,0,2.97-0.941,8.328-0.941c8.329,0,11.517,6.156,11.517,10.429v12.096h-9.488l1.666-4.346l-0.072-4.562
		c-0.072-5.432-3.693-8.185-8.401-8.185c-6.012,0-10.43,5.07-10.43,10.503c0,4.055,2.101,6.59,2.101,6.59h-8.763v5.069h37.153
		l1.812-5.069V35.343c0-7.531-4.708-15.716-17.094-15.716c-8.11,0-12.167,2.897-12.167,2.897V25.565z M1332.838,24.841
		c6.084,0,8.763,4.563,8.763,12.096c0,4.562-0.145,7.604-0.724,10.502c-9.851-1.015-15.789-4.49-15.789-12.676
		C1325.088,28.462,1328.854,24.841,1332.838,24.841 M1353.625,47.148h-7.46c0.435-2.462,1.014-4.707,0.941-10.212
		c-0.145-10.501-4.925-17.165-14.341-17.165c-7.894,0-13.326,7.098-13.326,14.848c0,6.373,2.825,10.501,7.678,13.109l-13.326-0.58
		h-0.725c-4.636,0-7.314-3.26-7.314-7.604c0-4.853,0.361-6.157,1.303-10.212l-4.273-1.594l-2.244,6.518
		c-0.29,1.377-0.436,2.825-0.436,5.288c0,7.532,4.78,12.674,12.893,12.674h40.631V47.148z M1333.127,15.064
		c1.811,0,3.26-1.449,3.26-3.188c0-1.811-1.449-3.187-3.26-3.187c-1.665,0-3.114,1.376-3.114,3.187
		C1330.013,13.615,1331.462,15.064,1333.127,15.064 M1265.555,15.136l-1.376,3.404l5.577,1.956
		c-4.853,13.398-1.812,16.44,4.418,19.048h3.621l1.593-4.346c-3.404-1.231-5.794-2.101-6.88-3.621c0-1.956,0.507-5.07,2.606-10.864
		h9.416c3.187,0,4.418,1.448,4.418,5.143v40.124h4.273l1.665-4.49V26.362c0-6.809-2.462-11.227-9.125-11.227H1265.555z
		 M1262.015,25.928c-0.073-6.591-2.607-10.792-9.126-10.792h-20.641l-1.304,3.478l5.286,1.883
		c-3.839,11.733-0.797,14.63,5.143,17.092h4.346l1.448-3.982c-3.838-1.232-6.373-2.318-7.46-3.839c0-1.738,0.362-4.419,1.956-9.054
		h9.995c3.186,0,4.418,1.448,4.418,5.143c0,7.677,0,14.051-0.58,20.786h-21.583v5.576h25.276l2.101-5.794
		C1262.16,39.616,1262.015,33.605,1262.015,25.928 M1204.075,35.777c0-7.315,2.753-10.791,7.604-10.791
		c2.245,0,4.635,0.797,5.794,1.449c0.579,1.81,1.159,7.677,1.159,13.108c0,2.897-0.29,5.359-0.724,7.532
		C1207.406,46.642,1204.075,42.803,1204.075,35.777 M1211.462,19.771c-7.026,0-13.037,4.708-13.037,16.006
		c0,10.356,6.301,15.427,17.889,16.296c-2.824,6.229-7.749,8.329-11.081,9.778l-3.693,1.593l1.448,2.535h4.926l0.651-0.218
		c4.997-1.666,15.716-7.677,15.716-26.073C1224.281,24.914,1221.601,19.771,1211.462,19.771 M1195,24.696
		c-0.146-6.953-3.767-9.994-9.054-9.994c-5.793,0-7.388,3.693-9.414,9.27l-0.798,2.174v4.779h3.983l1.811-4.997
		c1.377-3.693,1.884-5.866,4.418-5.866c0.942,0,1.812,0,2.753,0.507c0.29,0.651,0.435,2.68,0.435,3.911
		c0,8.546,0.217,22.162-13.689,22.162h-4.056l-3.186-25.132l-2.173-6.374h-1.956l-3.839,1.521l2.317,6.374l3.694,27.376l4.49,1.811
		h4.707C1193.697,52.218,1195.217,36.212,1195,24.696 M1151.393,29.694c0,8.473-3.982,17.02-13.036,17.02h-1.521
		c-3.042-7.821-4.347-13.761-4.998-26.074h13.688c2.463,0,4.563,0.29,5.433,1.015c0.29,0.87,0.434,2.607,0.434,4.201V29.694z
		 M1124.379,15.064l-1.449,3.838l4.998,1.737H1128l-1.883,5.216c0.434,9.126,2.316,16.729,6.011,24.552l4.636,1.811h1.738
		c14.34,0,18.975-12.964,18.975-22.523V26.29c0-6.808-3.259-11.226-10.646-11.226H1124.379z M1105.042,47.148
		c-5.07,0-10.141-1.594-10.141-8.475c0-6.88,7.099-11.081,13.255-12.021l3.693-0.58v2.246c0,5.721,0.073,12.312,0.652,18.83
		H1105.042z M1117.426,19.264l-3.187-1.157h-2.391v2.823l-4.562,0.798c-8.329,1.447-17.89,7.314-17.89,16.729
		c0,9.416,6.88,13.761,15.499,13.761h11.517l1.666-4.489c-0.798-7.533-0.652-15.065-0.652-22.091V19.264z M1078.099,47.148h-3.621
		c-7.677,0-13.108-2.317-13.254-9.851v-0.289c0-7.532,2.173-12.168,9.126-12.168c6.88,0,8.763,7.605,8.039,18.034L1078.099,47.148z
		 M1070.35,19.771c-9.923,0-14.558,6.881-14.558,17.31v0.217v1.666c0,4.418-1.666,8.185-6.301,8.185h-2.897v5.069h3.478
		c5.358,0,8.546-2.606,10.066-6.591l1.231,3.404c3.113,2.101,6.88,3.187,12.022,3.187h8.401l1.811-5.069l0.289-4.273
		C1084.763,30.346,1081.865,19.771,1070.35,19.771 M1034.906,45.482c-2.391,2.101-4.926,2.173-7.388,2.173
		c-6.229,0-9.561-3.114-9.705-10.357v-0.289c0-7.098,2.317-12.168,9.271-12.168s8.69,4.057,8.69,13.762
		C1035.774,40.485,1035.557,43.382,1034.906,45.482 M1047.291,47.148h-3.839l-4.49-0.289c1.521-2.391,2.317-5.288,2.317-8.402
		c0-11.66-2.607-18.686-14.195-18.686c-9.922,0-14.485,7.025-14.485,17.31v1.883c0,4.418-1.738,8.185-6.374,8.185h-2.752v5.069
		h3.332c4.997,0,8.039-2.317,9.633-5.865l0.506,1.521c1.739,3.621,5.867,4.853,10.647,4.853c3.477,0,6.373-1.015,8.619-2.753
		l6.228,2.245h4.854V47.148z M985.012,44.541c-5.577-3.259-8.257-9.415-8.402-19.265h9.634c3.113,0,5.722,0.651,6.808,1.376
		c0.362,0.869,0.507,2.969,0.507,4.707C993.558,36.937,990.226,42.078,985.012,44.541 M1004.205,52.218v-5.069h-10.067
		c-1.376,0-2.824-0.072-4.055-0.362c5.214-3.476,9.053-9.343,9.053-15.644c0-6.592-2.825-10.937-12.385-10.937h-15.789l-1.304,3.549
		l3.332,1.159l-1.231,3.476c0,7.461,3.187,14.559,7.967,18.252c-1.594,0.361-3.26,0.507-4.853,0.507h-10.357v5.069h10.357
		c3.187,0,6.591-0.797,9.705-2.173c2.896,1.449,6.084,2.173,9.56,2.173H1004.205z M946.055,44.541
		c-5.577-3.259-8.257-9.415-8.401-19.265h9.633c3.113,0,5.722,0.651,6.808,1.376c0.362,0.869,0.507,2.969,0.507,4.707
		C954.601,36.937,951.269,42.078,946.055,44.541 M965.248,52.218v-5.069H955.18c-1.376,0-2.824-0.072-4.055-0.362
		c5.214-3.476,9.053-9.343,9.053-15.644c0-6.592-2.825-10.937-12.385-10.937h-15.789l-1.304,3.549l3.332,1.159l-1.231,3.476
		c0,7.461,3.188,14.559,7.967,18.252c-1.594,0.361-3.26,0.507-4.853,0.507h-10.357v5.069h10.357c3.187,0,6.591-0.797,9.705-2.173
		c2.896,1.449,6.084,2.173,9.56,2.173H965.248z M944.968,15.064c1.811,0,3.259-1.449,3.259-3.188c0-1.811-1.448-3.187-3.259-3.187
		c-1.666,0-3.114,1.376-3.114,3.187C941.854,13.615,943.302,15.064,944.968,15.064 M899.275,32.953c0-5.36,2.754-8.112,6.736-8.112
		c6.084,0,9.126,5.649,9.126,12.24c0,3.114-0.218,6.663-0.942,9.415c-1.158-0.289-2.39-0.579-3.693-1.014
		C903.622,43.165,899.275,38.964,899.275,32.953 M919.121,47.076c1.086-2.825,1.521-7.605,1.447-10.864
		c-0.217-8.764-5.214-16.44-14.629-16.44c-7.895,0-12.312,6.229-12.312,13.037c0,7.531,5.577,12.602,11.371,14.774l-8.112-0.435
		H886.24v5.069h29.187h0.435h0.725l0.724-1.304l6.809,1.304h2.173v-5.069C923.683,47.148,921.366,47.148,919.121,47.076
		 M905.794,15.064c1.81,0,3.259-1.449,3.259-3.188c0-1.811-1.449-3.187-3.259-3.187c-1.666,0-3.115,1.376-3.115,3.187
		C902.679,13.615,904.128,15.064,905.794,15.064 M859.957,32.953c0-5.36,2.752-8.112,6.734-8.112c6.084,0,9.126,5.649,9.126,12.24
		c0,3.114-0.217,6.663-0.94,9.415c-1.159-0.289-2.391-0.579-3.694-1.014C864.301,43.165,859.957,38.964,859.957,32.953
		 M879.801,47.076c1.086-2.825,1.521-7.605,1.448-10.864c-0.217-8.764-5.215-16.44-14.63-16.44c-7.895,0-12.312,6.229-12.312,13.037
		c0,7.531,5.577,12.602,11.371,14.774l-8.112-0.435h-10.646v5.069h29.188h0.435h0.725l0.725-1.304l6.808,1.304h2.173v-5.069
		C884.363,47.148,882.046,47.148,879.801,47.076 M871.038,15.064c1.811,0,3.259-1.449,3.259-3.188c0-1.811-1.448-3.187-3.259-3.187
		c-1.666,0-3.114,1.376-3.114,3.187C867.923,13.615,869.372,15.064,871.038,15.064 M862.274,15.064c1.811,0,3.26-1.449,3.26-3.188
		c0-1.811-1.449-3.187-3.26-3.187c-1.666,0-3.114,1.376-3.114,3.187C859.16,13.615,860.608,15.064,862.274,15.064 M829.256,47.148
		h-0.942c-5.069,0-10.14-1.594-10.14-8.475c0-6.88,7.098-11.081,13.254-12.021l3.694-0.58v2.246c0,5.068,0.071,10.791,0.507,16.513
		L829.256,47.148z M847.652,47.148h-6.373c-0.725-7.315-0.579-14.63-0.579-21.511v-6.374l-3.188-1.157h-2.39v2.823l-4.563,0.798
		c-8.329,1.447-17.889,7.314-17.889,16.729c0,9.416,6.88,13.761,15.499,13.761h1.087l7.17-2.606l0.651,2.606h10.574V47.148z
		 M801.374,47.148h-3.549c-7.749,0-13.472-2.391-13.472-10.14c0-7.17,2.391-12.168,9.344-12.168c6.808,0,8.763,6.591,7.967,18.034
		L801.374,47.148z M793.697,19.771c-9.923,0-14.775,7.242-14.775,17.31c0,8.184-3.477,12.675-12.023,15.065v3.91h4.057
		c4.925-1.448,8.401-4.129,10.646-10.067c3.114,4.201,8.619,6.229,15.499,6.229h7.967l1.811-5.069l0.29-4.273
		C808.109,29.332,805.139,19.771,793.697,19.771 M756.934,46.642H738.9V20.713h12.167c4.636,0,5.867,2.969,5.867,8.112V46.642z
		 M731.223,15.136l-1.449,3.84l4.997,1.81l-1.81,4.998v26.435h27.811l2.102-5.648V29.259c0-8.256-2.463-14.123-10.575-14.123
		H731.223z M718.694,33.315v13.833H690.23c4.78-13.762,10.864-22.308,22.814-22.308c2.101,0,4.201,0.436,5.577,1.087L718.694,33.315
		z M713.189,19.771c-12.095,0-19.771,7.75-22.74,17.237l-1.812,6.229l0.652-5.359V27.159l-4.201-1.376l-0.869,2.317v19.048h-8.836
		v5.069h11.66l0.797-2.39l6.736,2.39h27.956l1.811-5.069V32.229C724.343,24.407,722.967,19.771,713.189,19.771 M664.259,47.148
		h-24.48c4.057-14.269,12.675-22.308,18.976-22.308c2.391,0,4.056,0.362,5.432,0.942L664.259,47.148z M653.105,14.558
		c1.812,0,3.26-1.449,3.26-3.188c0-1.811-1.448-3.187-3.26-3.187c-1.666,0-3.113,1.376-3.113,3.187
		C649.992,13.108,651.439,14.558,653.105,14.558 M677.585,47.148h-7.677V31.939c0-7.822-1.376-12.168-11.154-12.168
		c-3.838,0-11.66,2.824-17.816,13.108l0.796-3.041V9.197l-2.244-6.084l-4.707,1.739v0.868l1.883,4.997v31.434
		c-0.58,1.593-1.087,3.259-1.521,4.997h-9.777v5.069h42.73l0.942-2.606v0.579l5.648,2.027h2.897V47.148z M613.967,47.148h-24.479
		c4.056-14.269,12.674-22.308,18.975-22.308c2.39,0,4.056,0.362,5.432,0.942L613.967,47.148z M626.062,47.148h-6.445V31.939
		c0-7.822-1.376-12.168-11.154-12.168c-3.838,0-11.66,2.824-17.816,13.108l0.796-3.041V9.197l-2.245-6.084l-4.707,1.739v0.868
		l1.883,4.997v31.434c-0.579,1.593-1.086,3.259-1.521,4.997h-5.142l-0.941,2.68l6.809,2.39h32.229l0.58-1.737l4.78,1.737h2.896
		V47.148z M573.077,33.098c0.145-12.312-4.201-18.106-13.689-17.889l-9.56,0.217l-6.59-0.361l-1.666,4.199l6.228,1.521h0.145
		l-2.1,5.143c-1.014,4.346-1.956,14.195-2.39,25.422l2.39,0.868h3.694c0.361-9.27,0.144-21.075,2.969-31.505l6.374,0.072
		c7.313,0.073,8.256,3.332,8.256,12.458c0,5.938,0.217,8.763,0.652,13.326h-5.794l-5.07,1.883v3.766h15.427l1.448-5.358
		C573.367,42.513,573.004,38.167,573.077,33.098 M502.824,15.136l-1.376,3.911l5.938,1.666l-1.883,7.17
		c0,7.678,0.579,12.747,2.028,18.396l-7.46,1.811v4.128h10.936l2.101-5.794c-1.158-5.648-1.666-10.863-1.666-18.541v-7.17h12.386
		c3.186,0,4.418,1.448,4.418,5.143v26.362h5.938V26.362c0-6.809-2.462-11.227-9.125-11.227H502.824z M475.165,20.206l-1.812,5.07
		v21.872h-12.602c-4.635,0-7.315-3.26-7.315-7.604c0-4.853,0.363-6.157,1.305-10.212l-4.273-1.594l-2.245,6.518
		c-0.29,1.377-0.435,2.825-0.435,5.288c0,7.532,4.853,12.674,13.688,12.674h15.716l1.812-5.069V25.276
		c6.735,0,11.443,3.042,11.443,13.108v13.833h4.056l1.593-4.345v-9.706c0-13.036-7.46-17.961-16.729-17.961H475.165z M415.776,28.68
		l-1.739,4.707v32.593h4.999l0.94-2.607V28.68H415.776z M412.227,15.136l-1.449,3.767l4.998,1.811h21.002v1.015
		c0,10.646-1.811,14.484-6.518,21.438l-3.911,5.794v3.259h4.853l4.128-6.445c5.505-8.618,7.243-13.036,7.243-23.467V20.93
		c0-2.969-1.305-5.794-4.926-5.794H412.227z M389.34,48.959v3.259h4.853l4.128-6.445c5.504-8.618,7.243-13.036,7.243-23.467V20.93
		c0-2.969-1.304-5.794-4.925-5.794H384.85l-0.652-10.863h-2.318l-3.259,1.087v2.535l0.652,10.283l0.942,2.535h19.555v1.015
		c0,10.646-1.811,14.484-6.519,21.438L389.34,48.959z M352.896,25.855l8.257-3.114v-2.752h-1.956l-1.811,0.724
		c-1.738-1.304-2.1-2.606-2.1-3.621c0-1.231,0.942-2.317,2.97-2.317h1.955v-1.955l-2.897-1.087c-3.549,0-5.215,2.97-5.215,4.925
		c0,1.521,0.507,3.332,2.825,4.997l-3.694,1.377v2.824H352.896z M372.958,7.966l-1.883-4.853l-5.215,1.666v0.869l1.449,3.839v37.661
		h-14.051c-4.635,0-7.315-3.26-7.315-7.604c0-4.853,0.362-6.157,1.304-10.212l-4.273-1.594l-2.245,6.518
		c-0.29,1.377-0.435,2.825-0.435,5.288c0,7.532,4.853,12.674,13.689,12.674h17.164l1.811-5.069V7.966z"/>
	<path fill="#333333" d="M1876.995,63.589c1.81,0,3.259-1.448,3.259-3.187c0-1.812-1.449-3.188-3.259-3.188
		c-1.666,0-3.115,1.376-3.115,3.188C1873.879,62.141,1875.329,63.589,1876.995,63.589 M1893.217,47.148V23.683l-1.448-3.911
		l-4.2,1.521v25.856h-17.311c-4.635,0-7.314-3.259-7.314-7.605c0-4.852,0.361-6.155,1.304-10.212l-4.273-1.593l-2.245,6.518
		c-0.29,1.376-0.435,2.825-0.435,5.287c0,7.533,4.852,12.675,13.688,12.675h20.425L1893.217,47.148z M1827.045,15.136l-1.449,3.767
		l4.998,1.811h14.919V38.24c0,8.256-2.39,8.401-7.822,8.401h-11.298v5.576h10.791c9.778,0,14.269-2.244,14.269-15.064V22.379
		c0-4.708-1.159-7.243-6.373-7.243H1827.045z M1820.914,48.234l-5.069-1.593h-0.145l1.737-4.78V26.362
		c0-6.808-2.39-11.227-9.053-11.227h-14.63l-1.449,3.767l4.998,1.811h9.561c3.187,0,4.418,1.448,4.418,5.143v20.786h-18.396v5.576
		h28.028V48.234z M1770.544,57.144c-1.665,0-3.114,1.376-3.114,3.187c0,1.738,1.449,3.187,3.114,3.187
		c1.811,0,3.259-1.448,3.259-3.187C1773.803,58.52,1772.355,57.144,1770.544,57.144 M1784.378,36.212
		c-1.449-9.85-6.157-16.44-15.064-16.44c-7.171,0-9.995,3.983-9.995,3.983l-1.521,4.346l4.708,1.666l1.304-3.55
		c0,0,1.521-1.376,5.287-1.376c4.853,0,8.691,2.97,9.851,11.371c0.507,3.621,1.303,7.749,2.533,10.937h-28.534v5.069h32.156
		l1.811-5.069C1785.827,44.468,1784.812,39.109,1784.378,36.212 M1753.676,47.148h-4.997c-1.086-2.681-2.1-8.039-2.535-10.937
		c-1.447-9.85-6.155-16.44-15.063-16.44c-7.171,0-9.995,3.983-9.995,3.983l-1.521,4.346l4.709,1.666l1.303-3.55
		c0,0,1.521-1.376,5.287-1.376c4.853,0,8.69,2.97,9.85,11.371c0.507,3.621,1.304,7.749,2.535,10.937h-13.471
		c-8.475,0-12.747,5.794-12.747,11.95c0,7.025,5.648,11.95,17.743,11.95l4.563-1.738l-1.159-3.331h-3.766
		c-8.619,0-11.733-3.042-11.733-6.881c0-6.302,5.505-6.881,8.619-6.881h22.379V47.148z M1711.477,22.379
		c0-4.708-0.797-7.243-6.012-7.243h-9.125l-1.449,3.767l4.997,1.811h5.939v1.666c0,2.97,0.072,6.809,0.29,10.937l-4.636,3.838
		l-9.343,13.398l3.983,2.391l2.463-1.883l8.039-12.023c0.507,4.274,1.23,8.764,2.462,13.182h2.101l3.331-1.304
		C1711.839,39.833,1711.549,33.677,1711.477,22.379 M1686.574,24.263c-0.29-4.637-1.015-7.026-5.504-8.112l-7.315-1.738
		l-1.739,4.997l8.619,2.607v3.549c0,5.505-0.145,13.182,1.231,21.076h-11.227v5.576h14.92l2.101-5.794
		c-1.086-7.895-1.086-15.716-1.086-21.004V24.263z M1662.785,36.212c-1.448-9.85-6.156-16.44-15.065-16.44
		c-7.17,0-9.994,3.983-9.994,3.983l-1.521,4.346l4.708,1.666l1.303-3.55c0,0,1.521-1.376,5.287-1.376
		c4.853,0,8.691,2.97,9.85,11.371c0.507,3.621,1.305,7.749,2.535,10.937h-28.536v5.069h32.157l1.812-5.069
		C1664.234,44.468,1663.219,39.109,1662.785,36.212 M1632.084,47.148h-5.794l0.289-2.462c0.941-7.896-4.635-18.977-17.961-24.118
		l-0.942-0.362h-4.78l0.146,3.477l2.752,1.158c12.24,5.143,16.079,13.037,15.354,19.7l-0.289,2.607h-17.238l-4.055,1.449v3.62
		h24.913l0.579-1.521l4.201,1.521h2.825V47.148z M1575.654,20.206h-4.78l0.145,3.477l2.752,1.158
		c12.24,5.143,16.078,13.037,15.354,19.7l-0.29,2.607h-17.237l-4.056,1.449v3.62h24.915l1.81-5.069l0.29-2.462
		c0.942-7.896-4.635-18.977-17.962-24.118L1575.654,20.206z M1574.929,14.701c1.811,0,3.26-1.448,3.26-3.186
		c0-1.812-1.449-3.188-3.26-3.188c-1.666,0-3.115,1.376-3.115,3.188C1571.814,13.253,1573.263,14.701,1574.929,14.701
		 M1546.852,48.959v3.259h4.853l4.129-6.445c5.504-8.619,7.242-13.037,7.242-23.466v-1.376c0-2.97-1.305-5.795-4.926-5.795h-15.788
		l-0.652-10.863h-2.317l-3.259,1.087v2.534l0.652,10.285l0.94,2.534h19.556v1.015c0,10.646-1.812,14.484-6.519,21.438
		L1546.852,48.959z M1506.797,15.136l-1.449,3.767l4.997,1.811h11.951c3.186,0,4.418,1.448,4.418,5.143v26.362h4.852l1.087-2.896
		V26.362c0-6.808-2.462-11.227-9.125-11.227H1506.797z M1470.827,15.136l-1.449,3.767l4.998,1.811l-1.812,5.07v26.435h5.939V20.713
		h12.385c3.188,0,4.418,1.448,4.418,5.143v26.362h4.635l1.305-3.403V26.362c0-6.808-2.463-11.227-9.126-11.227H1470.827z
		 M1463.616,15.136h-29.261l-1.447,3.767l4.997,1.811h16.296l-1.738,4.853v26.652h5.07l1.086-2.896V20.713h0.145l4.853-1.811V15.136
		z M1406.648,49.321v-19.41h-4.418l-1.737,4.707v17.6h5.069L1406.648,49.321z M1399.986,15.136l-1.448,3.767l4.997,1.811h13.398
		c5.359,0,5.938,2.97,5.938,6.663v24.842h5.069l1.088-2.896V27.811c0-6.809-1.739-12.675-10.574-12.675H1399.986z"/>
</g>
</svg>
