<?xml version="1.0" encoding="utf-8"?>
<!-- Generator: Adobe Illustrator 16.0.0, SVG Export Plug-In . SVG Version: 6.00 Build 0)  -->
<!DOCTYPE svg PUBLIC "-//W3C//DTD SVG 1.1//EN" "http://www.w3.org/Graphics/SVG/1.1/DTD/svg11.dtd">
<svg version="1.1" id="Layer_1" xmlns="http://www.w3.org/2000/svg" xmlns:xlink="http://www.w3.org/1999/xlink" x="0px" y="0px"
	 width="213.804px" height="213.803px" viewBox="0 0 213.804 213.803" enable-background="new 0 0 213.804 213.803"
	 xml:space="preserve">
<path fill="#333333" d="M106.902,213.803c59.04,0,106.902-47.861,106.902-106.902C213.804,47.86,165.942,0,106.902,0
	C47.862,0,0,47.86,0,106.9C0,165.941,47.862,213.803,106.902,213.803"/>
<path fill="#FFFFFF" d="M150.161,121.384v-13.559h-3.086l-1.215,3.287v12.296h3.542L150.161,121.384z M145.506,97.503l-1.012,2.631
	l3.49,1.265h9.36c3.743,0,4.149,2.074,4.149,4.655v17.354h3.541l0.76-2.024v-15.027c0-4.756-1.215-8.854-7.387-8.854H145.506z
	 M140.345,98.464l-3.44-1.315l-0.81,1.872l-0.354,5.211c-0.809,12.245-3.39,15.381-12.345,15.381h-1.417l-1.113-6.425
	c4.149-1.67,5.869-6.273,7.286-10.119l1.619-4.352v-0.253l-3.138-1.467l-1.213,1.214l-1.366,3.542
	c-1.316,3.39-2.126,6.679-3.745,8.348l-1.467-8.601l-1.366-3.997h-1.113l-2.833,1.062l1.416,3.997l3.594,19.479l-0.052,0.101
	l3.138,1.266h1.871c12.346-0.051,15.787-5.818,16.494-18.519L140.345,98.464z M108.42,103.878c-0.203-3.238-0.708-4.908-3.845-5.667
	l-5.11-1.214l-1.215,3.49l6.021,1.822v2.479c0,3.845-0.101,9.208,0.86,14.723h-7.842v3.896h10.423l1.467-4.049
	c-0.759-5.514-0.759-10.979-0.759-14.672V103.878z M86.867,97.098l-1.164,3.34l3.289,1.163v10.929h2.934l1.214-3.339v-7.235
	c0-2.935-1.315-3.896-4.199-4.452L86.867,97.098z M75.533,97.098l-1.163,3.34l3.288,1.163v10.929h2.935l1.214-3.339v-7.235
	c0-2.935-1.315-3.896-4.199-4.452L75.533,97.098z M65.82,119.512H53.221v-18.113h8.5c3.238,0,4.099,2.074,4.099,5.667V119.512z
	 M47.858,97.503l-1.012,2.682l3.491,1.265l-1.265,3.491v18.468h19.429l1.467-3.946v-12.093c0-5.769-1.72-9.866-7.387-9.866H47.858z"
	/>
<path fill="#FFFFFF" d="M156.839,65.609c-0.101-4.857-2.631-6.982-6.323-6.982c-4.049,0-5.162,2.581-6.578,6.477l-0.557,1.519v3.339
	h2.783l1.264-3.491c0.963-2.581,1.316-4.098,3.088-4.098c0.657,0,1.264,0,1.922,0.354c0.203,0.455,0.304,1.872,0.304,2.732
	c0,5.97,0.151,15.481-9.563,15.481h-2.832l-2.227-17.557l-1.518-4.452h-1.367l-2.682,1.062l1.619,4.452l2.581,19.125l3.138,1.266
	h3.287C155.93,84.836,156.992,73.653,156.839,65.609 M119.803,58.323l-1.012,3.289l3.542,1.265v21.959h3.542l0.759-2.024V62.877
	c0-2.935-1.214-3.288-4.149-3.946L119.803,58.323z M123.446,54.883c1.266,0,2.277-1.012,2.277-2.227
	c0-1.265-1.012-2.226-2.277-2.226c-1.162,0-2.174,0.961-2.174,2.226C121.272,53.871,122.284,54.883,123.446,54.883 M115.25,82.053
	l-3.542-1.113h-0.101l1.215-3.339V66.772c0-4.756-1.67-7.842-6.325-7.842h-10.22l-1.012,2.631l3.491,1.265h6.678
	c2.227,0,3.087,1.013,3.087,3.593v14.521H95.669v3.896h19.581V82.053z M84.69,58.525l-1.163,3.34l3.288,1.163v10.93h2.935
	l1.214-3.34v-7.235c0-2.935-1.315-3.896-4.199-4.452L84.69,58.525z M74.978,80.939H62.378V62.826h8.5
	c3.238,0,4.099,2.074,4.099,5.667V80.939z M57.016,58.931l-1.012,2.682l3.491,1.265l-1.265,3.491v18.468h19.429l1.467-3.946V68.797
	c0-5.769-1.72-9.866-7.387-9.866H57.016z"/>
<path fill="#FFFFFF" d="M148.869,152.974c0.054-4.532-1.546-6.665-5.038-6.585l-3.521,0.08l-2.427-0.135l-0.612,1.548l2.293,0.56
	h0.053l-0.772,1.893c-0.373,1.601-0.721,5.227-0.881,9.358l0.881,0.32h1.359c0.133-3.412,0.053-7.759,1.094-11.599l2.346,0.027
	c2.693,0.026,3.04,1.226,3.04,4.586c0,2.187,0.079,3.227,0.239,4.906h-2.133l-1.867,0.692v1.387h5.681l0.532-1.974
	C148.976,156.44,148.842,154.841,148.869,152.974 M132.045,165.078h1.6l0.586-1.599v-7.386c0-2.641-0.053-4.986,0.214-7.439
	c0.16-1.546-0.56-2.025-1.92-2.293l-1.493-0.293l-0.587,1.759l2.08,0.667h-0.026c-0.453,2.506-0.453,5.066-0.453,7.76V165.078z
	 M121.06,143.375l-0.533-1.439l-1.546,0.56v17.518h2.079V143.375z M114.448,142.148h-1.627l-0.453,1.227v14.771h-3.306v1.866h4.719
	l0.667-1.866V142.148z M100.103,153.96c0-2.692,1.013-3.973,2.8-3.973c0.826,0,1.706,0.293,2.133,0.533
	c0.213,0.667,0.427,2.827,0.427,4.826c0,1.066-0.107,1.973-0.267,2.772C101.33,157.959,100.103,156.547,100.103,153.96
	 M109.862,160.013v-1.866h-2.56c0.16-0.827,0.24-1.733,0.24-2.746c0-5.44-0.986-7.333-4.719-7.333c-2.586,0-4.799,1.733-4.799,5.893
	c0,3.813,2.319,5.68,6.585,5.999c-1.04,2.293-2.853,3.066-4.079,3.601l-1.36,0.586l0.533,0.933h1.813l0.24-0.08
	c1.334-0.452,3.787-1.732,5.013-4.985H109.862z M94.504,143.375l-0.533-1.439l-1.546,0.56v17.518h2.079V143.375z M87.492,154.12
	c-0.533-3.626-2.266-6.053-5.546-6.053c-2.639,0-3.679,1.467-3.679,1.467l-0.56,1.601l1.733,0.612l0.48-1.307
	c0,0,0.56-0.506,1.946-0.506c1.787,0,3.2,1.093,3.626,4.186c0.187,1.333,0.48,2.854,0.934,4.026H75.92v1.866h11.839l0.666-1.866
	C88.025,157.159,87.652,155.187,87.492,154.12 M76.454,158.146h-2.133l0.107-0.907c0.346-2.906-1.707-6.984-6.613-8.878
	l-0.346-0.134h-1.76l0.053,1.28l1.013,0.427c4.506,1.893,5.92,4.799,5.653,7.252l-0.107,0.96h-6.346l-1.493,0.533v1.333h9.172
	l0.214-0.561l1.546,0.561h1.04V158.146z"/>
</svg>
