<?xml version="1.0" standalone="no"?>
<!DOCTYPE svg PUBLIC "-//W3C//DTD SVG 1.1//EN" "http://www.w3.org/Graphics/SVG/1.1/DTD/svg11.dtd" >
<svg xmlns="http://www.w3.org/2000/svg">
<metadata></metadata>
<defs>
<font id="almoni-tzar-light" horiz-adv-x="0" >
<font-face units-per-em="2048" ascent="1648" descent="-400" />
<missing-glyph horiz-adv-x="398" />
<glyph />
<glyph horiz-adv-x="2048" />
<glyph unicode=" "  horiz-adv-x="398" />
<glyph unicode="&#x09;" horiz-adv-x="398" />
<glyph unicode="&#xa0;" horiz-adv-x="398" />
<glyph unicode="!" horiz-adv-x="488" d="M171 1268h145v-408l-30 -424h-81l-34 424v408zM153 0h185v196h-185v-196z" />
<glyph unicode="&#x22;" horiz-adv-x="577" d="M51 964l97 476h107v-125l-149 -351h-55zM305 964l97 476h107v-125l-149 -351h-55z" />
<glyph unicode="#" horiz-adv-x="986" d="M941 565h-175l-99 -249h178l-24 -87h-185l-94 -229h-131l94 229h-186l-100 -229h-126l96 229h-178l22 87h185l101 249h-187l23 85h198l90 229h130l-90 -229h189l88 229h131l-89 -229h166zM536 316l99 249h-186l-101 -249h188z" />
<glyph unicode="$" horiz-adv-x="874" d="M779 331q0 -330 -297 -330v-155h-91v155q-147 0 -229 94.5t-82 247.5h136q4 -113 53.5 -182.5t121.5 -69.5v534q-69 39 -113.5 71t-84 74.5t-57.5 93.5t-18 116q0 289 273 289v168h91v-169q156 0 223.5 -79t67.5 -249v-5h-131q1 119 -34 181t-126 62v-449 q16 -10 47.5 -29.5t46.5 -29t41.5 -27.5t40 -30t34 -32t30.5 -37t23 -41t19 -49t10.5 -56.5t4.5 -66.5zM244 989q0 -69 34 -121.5t113 -99.5v410q-147 0 -147 -189zM482 91q50 0 85.5 19.5t53 53.5t25 69.5t7.5 77.5q0 183 -171 275v-495z" />
<glyph unicode="%" horiz-adv-x="1105" d="M258 0l705 1272h-125l-709 -1272h129zM823 652q84 0 137.5 -46t53.5 -134v-303q0 -88 -54 -134t-137 -46q-82 0 -135 46t-53 134v303q0 88 53 134t135 46zM895 190v270q0 54 -14 83t-58 29q-41 0 -55.5 -28t-14.5 -84v-270q0 -114 70 -114q44 0 58 29t14 85zM275 1290 q84 0 137.5 -46t53.5 -134v-303q0 -88 -54 -134t-137 -46q-82 0 -135 46t-53 134v303q0 88 53 134t135 46zM347 828v270q0 54 -14 83t-58 29q-41 0 -55.5 -28t-14.5 -84v-270q0 -114 70 -114q44 0 58 29t14 85z" />
<glyph unicode="'" horiz-adv-x="394" d="M59 958l109 481h121v-126l-168 -355h-62z" />
<glyph unicode="(" horiz-adv-x="570" d="M627 -257v-51q-21 -5 -81 -5q-61 0 -109.5 12.5t-86.5 41.5t-66 68.5t-48 101t-33 130t-20.5 164.5t-10.5 197t-3 234q0 134 3 235t10.5 197.5t20.5 165.5t33 130.5t48 101t66 68.5t86.5 42t109.5 13q47 0 81 -8v-51q-78 3 -132 -14.5t-91.5 -68.5t-58.5 -110.5t-32 -175 t-14 -227t-3 -298.5q0 -110 1 -186t4 -160t8 -139.5t14 -115.5t22 -97t31.5 -74t42.5 -57.5t55 -37t68.5 -22.5t84.5 -4z" />
<glyph unicode=")" horiz-adv-x="567" d="M-64 -308v51q47 -2 84.5 4t68.5 22.5t55 37t42.5 57.5t31.5 74t22 97t14 115.5t8 139.5t4 160t1 186q0 187 -3 298.5t-14 227t-32 175t-58.5 110.5t-91.5 68.5t-132 14.5v51q34 8 81 8q61 0 109.5 -13t86.5 -42t66 -68.5t48 -101t33 -130.5t20.5 -165.5t10.5 -197.5 t3 -235q0 -133 -3 -234t-10.5 -197t-20.5 -164.5t-33 -130t-48 -101t-66 -68.5t-86.5 -41.5t-109.5 -12.5q-60 0 -81 5z" />
<glyph unicode="*" horiz-adv-x="541" d="M24 1312l33 104q118 -42 179 -87q-22 148 -24 199h106q-3 -69 -26 -197q84 51 183 85l33 -104q-92 -29 -198 -37q58 -41 142 -142l-89 -64q-39 55 -100 173q-52 -114 -95 -173l-86 64q85 105 136 142q-104 13 -194 37z" />
<glyph unicode="+" horiz-adv-x="776" d="M714 685v-93h-287v-284h-93v284h-272v93h272v290h93v-290h287z" />
<glyph unicode="," horiz-adv-x="357" d="M34 -284l104 510h115v-134l-160 -376h-59z" />
<glyph unicode="-" horiz-adv-x="642" d="M82 683h498v-95h-498v95z" />
<glyph unicode="." horiz-adv-x="443" d="M331 0h-209v224h209v-224z" />
<glyph unicode="/" horiz-adv-x="549" d="M-35 -313h-115l652 1899h116z" />
<glyph unicode="0" horiz-adv-x="827" d="M407 1287q298 0 298 -313v-673q0 -313 -298 -313q-149 0 -217 79t-68 234v673q0 155 68 234t217 79zM572 235v803q0 65 -50 107.5t-115 42.5q-63 0 -108.5 -40.5t-45.5 -109.5v-803q0 -64 46 -108t108 -44q66 0 115.5 42.5t49.5 109.5z" />
<glyph unicode="1" horiz-adv-x="576" d="M100 968v83q64 0 112 22t71.5 54t38 64t17.5 55l3 22h84v-1268h-131v968h-195z" />
<glyph unicode="2" horiz-adv-x="801" d="M250 96h451v-96h-654q62 114 119.5 216.5t114.5 199t87.5 147t88.5 144.5t67 108q44 72 48.5 156.5t-38.5 146t-125 61.5q-65 0 -104 -14.5t-59 -50.5t-25.5 -80.5t-5.5 -120.5h-139q-11 183 66 276t267 93q146 0 227 -82t76 -218t-97 -286q-70 -113 -217 -356z" />
<glyph unicode="3" horiz-adv-x="773" d="M308 613v99q27 0 56 4.5t65 19t64 37t47.5 63.5t20.5 94q2 144 -36 200t-138 56q-41 0 -70.5 -12.5t-47 -33.5t-28.5 -57t-15.5 -73t-6.5 -92h-138q0 182 72 274.5t234 92.5q69 0 119 -14t90.5 -49t61.5 -98.5t23 -156.5q3 -266 -207 -305q107 -18 160.5 -99.5 t53.5 -214.5q0 -358 -301 -358q-161 0 -233.5 99.5t-72.5 289.5h143q4 -158 41.5 -226t121.5 -68q83 0 130 68.5t47 206.5q0 61 -17.5 107.5t-43.5 73t-62 43t-67.5 22.5t-65.5 7z" />
<glyph unicode="4" horiz-adv-x="809" d="M754 378v-96h-102v-282h-131v282h-503l364 986h141l-338 -890h336v318h131v-318h102z" />
<glyph unicode="5" horiz-adv-x="769" d="M399 872q146 0 214.5 -111t68.5 -309q0 -462 -291 -462q-146 0 -218.5 89t-72.5 258h130q1 -131 37.5 -190t124.5 -59q44 0 76 28.5t50 80.5t26 115.5t8 142.5q0 314 -166 314q-70 0 -114.5 -37.5t-51.5 -97.5h-118v634h576v-96h-446v-377q57 77 167 77z" />
<glyph unicode="6" horiz-adv-x="788" d="M497 669q103 -18 164 -106t61 -227q0 -149 -94 -246t-238 -97q-149 0 -249 90t-100 235q0 158 103 338l358 612h164l-392 -625q46 24 113 30t110 -4zM390 90q97 0 148.5 67t51.5 187q0 111 -51.5 173.5t-148.5 62.5q-96 0 -156 -66.5t-60 -169.5q0 -118 59 -186t157 -68z " />
<glyph unicode="7" horiz-adv-x="675" d="M308 0h-135l310 1172h-417v96h579z" />
<glyph unicode="8" horiz-adv-x="857" d="M555 668q91 -21 145 -109t54 -221q0 -169 -82 -257t-246 -88t-245.5 88t-81.5 257q0 132 57.5 225t144.5 105q-82 33 -136 107.5t-54 181.5q0 318 315 318q155 0 231.5 -77.5t76.5 -240.5q0 -110 -53 -184.5t-126 -104.5zM421 1181q-180 0 -180 -226q0 -107 49 -171.5 t131 -64.5q85 0 133.5 64t48.5 172q0 226 -182 226zM421 85q95 0 147.5 57.5t52.5 192.5q0 122 -50.5 193t-149.5 71t-147 -70.5t-48 -193.5q0 -136 50 -193t145 -57z" />
<glyph unicode="9" horiz-adv-x="825" d="M300 599q-102 18 -161 105.5t-59 227.5q0 149 92 246t235 97q147 0 241.5 -89t94.5 -236q0 -85 -17 -162.5t-73 -175.5l-358 -612h-164l392 625q-46 -24 -113 -30t-110 4zM407 1180q-96 0 -146.5 -67.5t-50.5 -188.5q0 -112 50.5 -175t146.5 -63t153.5 67.5t57.5 170.5 q0 119 -56.5 187.5t-154.5 68.5z" />
<glyph unicode=":" horiz-adv-x="504" d="M350 709h-209v224h209v-224zM353 0h-209v224h209v-224z" />
<glyph unicode=";" horiz-adv-x="524" d="M363 709h-209v224h209v-224zM73 -286l119 501h133v-132l-184 -369h-68z" />
<glyph unicode="&#x3c;" horiz-adv-x="567" d="M34 599v69l469 353v-149l-365 -236l365 -241v-146z" />
<glyph unicode="=" horiz-adv-x="586" d="M73 870h452v-95h-452v95zM73 488h452v-95h-452v95z" />
<glyph unicode="&#x3e;" horiz-adv-x="639" d="M586 662v-69l-469 -350v146l365 241l-365 236v149z" />
<glyph unicode="?" horiz-adv-x="711" d="M377 1278q69 0 119.5 -18t79.5 -46t46 -71.5t22 -84t5 -93.5q0 -68 -24 -124t-58 -94.5t-68 -73.5t-58 -78.5t-24 -92.5v-96h-107v96q0 68 21.5 121.5t52 88.5t61 68t52 79.5t21.5 104.5q0 124 -32 170.5t-109 46.5q-81 0 -123.5 -49t-42.5 -178v-32h-133v46q0 71 15 125 t41 88.5t64.5 56.5t82 31t96.5 9zM268 0h185v196h-185v-196z" />
<glyph unicode="[" horiz-adv-x="537" d="M553 1489h-237v-1702h237v-100h-362v1899h362v-97z" />
<glyph unicode="\" horiz-adv-x="531" d="M537 -313l-653 1899h116l652 -1899h-115z" />
<glyph unicode="]" horiz-adv-x="537" d="M-22 1489v97h362v-1899h-362v100h237v1702h-237z" />
<glyph unicode="_" horiz-adv-x="474" d="M0 96h475v-96h-475v96z" />
<glyph unicode="`" horiz-adv-x="394" d="M64 958l109 481h121v-126l-168 -355h-62z" />
<glyph unicode="{" horiz-adv-x="577" d="M399 862q0 -32 -2 -56t-10.5 -55t-24 -52t-44.5 -38.5t-69 -24.5q40 -6 69 -24t44.5 -38.5t24 -51.5t10.5 -55t2 -56v-257q0 -47 0.5 -78.5t3.5 -72t8.5 -67t15 -58t23 -51.5t34 -40.5t46 -32.5t60 -19.5t76.5 -8.5v-44q-31 -7 -86 -7q-156 0 -230.5 107t-74.5 353v298 q0 4 -0.5 10t-3.5 23.5t-9 33t-18.5 35t-29 33.5t-44 23.5t-60.5 9.5v66q33 0 60.5 9.5t44 24.5t29 33.5t18.5 37t9 33.5t3 25l1 9v299q0 246 74.5 353t230.5 107q55 0 86 -7v-44q-52 1 -93 -10.5t-68.5 -30t-47.5 -51t-31 -65t-17.5 -81t-8 -90t-1.5 -100.5v-257z" />
<glyph unicode="|" horiz-adv-x="472" d="M300 1647v-2048h-115v2048h115z" />
<glyph unicode="}" horiz-adv-x="573" d="M208 862v257q0 59 -1.5 100.5t-8 90t-17.5 81t-31 65t-47.5 51t-68.5 30t-93 10.5v44q31 7 86 7q156 0 230.5 -107t74.5 -353v-299q0 -7 1 -18.5t10 -41t24.5 -52.5t49.5 -41.5t80 -18.5v-66q-46 0 -80 -17.5t-49.5 -42t-24.5 -49t-10 -42.5l-1 -17v-298 q0 -246 -74.5 -353t-230.5 -107q-55 0 -86 7v44q42 1 76.5 8.5t60 19.5t46 32.5t34 40.5t23 51.5t15 58t8.5 67t3.5 72t0.5 78.5v257q0 32 2 56t10.5 55t24 51.5t44.5 38.5t69 24q-40 7 -69 24.5t-44.5 38.5t-24 52t-10.5 55t-2 56z" />
<glyph unicode="&#xab;" horiz-adv-x="573" d="M33 964l97 474h107v-124l-149 -350h-55zM314 964l97 474h107v-124l-149 -350h-55z" />
<glyph unicode="&#xad;" horiz-adv-x="642" d="M82 683h498v-95h-498v95z" />
<glyph unicode="&#xbb;" horiz-adv-x="573" d="M33 964l97 474h107v-124l-149 -350h-55zM314 964l97 474h107v-124l-149 -350h-55z" />
<glyph unicode="&#x5b0;" d="M-54 -183q0 23 16.5 39.5t39.5 16.5q24 0 41 -16.5t17 -39.5q0 -25 -17 -41.5t-41 -16.5q-23 0 -39.5 17t-16.5 41zM-54 -347q0 24 16.5 40.5t39.5 16.5q24 0 41 -16.5t17 -40.5t-17 -40.5t-41 -16.5q-23 0 -39.5 16.5t-16.5 40.5z" />
<glyph unicode="&#x5b1;" d="M107 -183q0 23 16.5 39.5t39.5 16.5q24 0 41 -16.5t17 -39.5q0 -25 -17 -41.5t-41 -16.5q-23 0 -39.5 17t-16.5 41zM107 -347q0 24 16.5 40.5t39.5 16.5q24 0 41 -16.5t17 -40.5t-17 -40.5t-41 -16.5q-23 0 -39.5 16.5t-16.5 40.5zM-260 -179q0 23 16.5 39.5t39.5 16.5 q24 0 41 -16.5t17 -39.5q0 -25 -17 -41.5t-41 -16.5q-23 0 -39.5 17t-16.5 41zM-170 -333q0 24 17 40.5t41 16.5q23 0 39.5 -16.5t16.5 -40.5t-16.5 -40.5t-39.5 -16.5q-24 0 -41 16.5t-17 40.5zM-83 -179q0 23 17 39.5t41 16.5q23 0 40 -16.5t17 -39.5q0 -24 -17 -41 t-40 -17q-24 0 -41 16.5t-17 41.5z" />
<glyph unicode="&#x5b2;" d="M107 -183q0 23 17 39.5t40 16.5t40.5 -16.5t17.5 -39.5q0 -24 -17 -41t-41 -17q-23 0 -40 17t-17 41zM107 -347q0 24 17 40.5t40 16.5q24 0 41 -16.5t17 -40.5t-17 -40.5t-41 -16.5q-23 0 -40 16.5t-17 40.5zM-281 -229h275v59h-275v-59z" />
<glyph unicode="&#x5b3;" d="M-154 -371h62v142h96v59h-255v-59h97v-142zM107 -183q0 23 17 39.5t40 16.5t40.5 -16.5t17.5 -39.5q0 -24 -17 -41t-41 -17q-23 0 -40 17t-17 41zM107 -347q0 24 17 40.5t40 16.5q24 0 41 -16.5t17 -40.5t-17 -40.5t-41 -16.5q-23 0 -40 16.5t-17 40.5z" />
<glyph unicode="&#x5b4;" d="M-58 -230q0 23 17.5 40.5t40.5 17.5t40.5 -17.5t17.5 -40.5t-17.5 -40.5t-40.5 -17.5t-40.5 17.5t-17.5 40.5z" />
<glyph unicode="&#x5b5;" d="M-150 -179q0 23 16.5 39.5t39.5 16.5q24 0 41 -16.5t17 -39.5q0 -25 -17 -41.5t-41 -16.5q-23 0 -39.5 17t-16.5 41zM27 -179q0 23 17 39.5t41 16.5q23 0 40 -16.5t17 -39.5q0 -24 -17 -41t-40 -17q-24 0 -41 16.5t-17 41.5z" />
<glyph unicode="&#x5b6;" d="M-150 -179q0 23 16.5 39.5t39.5 16.5q24 0 41 -16.5t17 -39.5q0 -25 -17 -41.5t-41 -16.5q-23 0 -39.5 17t-16.5 41zM-60 -333q0 24 17 40.5t41 16.5q23 0 39.5 -16.5t16.5 -40.5t-16.5 -40.5t-39.5 -16.5q-24 0 -41 16.5t-17 40.5zM27 -179q0 23 17 39.5t41 16.5 q23 0 40 -16.5t17 -39.5q0 -24 -17 -41t-40 -17q-24 0 -41 16.5t-17 41.5z" />
<glyph unicode="&#x5b7;" d="M124 -229h-275v59h275v-59z" />
<glyph unicode="&#x5b8;" d="M23 -371h-62v142h-97v59h255v-59h-96v-142z" />
<glyph unicode="&#x5b9;" d="M-54 1545q0 23 16.5 39.5t39.5 16.5q24 0 41 -16.5t17 -39.5q0 -25 -17 -41.5t-41 -16.5q-23 0 -39.5 17t-16.5 41z" />
<glyph unicode="&#x5bb;" d="M-59 -252q0 23 17.5 39.5t40.5 16.5t40.5 -16.5t17.5 -39.5q0 -24 -17.5 -41t-40.5 -17t-40.5 17t-17.5 41zM-207 -163q0 23 17.5 40t40.5 17t40.5 -17t17.5 -40q0 -24 -17.5 -41t-40.5 -17t-40.5 17t-17.5 41zM83 -344q0 23 17.5 39.5t40.5 16.5t40.5 -16.5t17.5 -39.5 q0 -24 -17.5 -41t-40.5 -17t-40.5 17t-17.5 41z" />
<glyph unicode="&#x5bc;" d="M-54 645q0 23 16.5 39.5t39.5 16.5q24 0 41 -16.5t17 -39.5q0 -25 -17 -41.5t-41 -16.5q-23 0 -39.5 17t-16.5 41z" />
<glyph unicode="&#x5bd;" d="M-28 -398v286h58v-286h-58z" />
<glyph unicode="&#x5be;" horiz-adv-x="418" d="M47 1268h323v-96h-323v96z" />
<glyph unicode="&#x5c0;" d="M37 0h-74v1268h74v-1268z" />
<glyph unicode="&#x5c1;" d="M-54 1545q0 23 16.5 39.5t39.5 16.5q24 0 41 -16.5t17 -39.5q0 -25 -17 -41.5t-41 -16.5q-23 0 -39.5 17t-16.5 41z" />
<glyph unicode="&#x5c2;" d="M-54 1545q0 23 16.5 39.5t39.5 16.5q24 0 41 -16.5t17 -39.5q0 -25 -17 -41.5t-41 -16.5q-23 0 -39.5 17t-16.5 41z" />
<glyph unicode="&#x5d0;" horiz-adv-x="976" d="M871 0h-142l-370 761q-103 -35 -103 -173v-588h-131v537q0 63 9 112t30 91.5t60 71.5t96 42l-194 414h138l315 -673q93 36 125 77.5t32 140.5v455h130v-422q0 -147 -50.5 -224t-187.5 -118z" />
<glyph unicode="&#x5d1;" horiz-adv-x="758" d="M713 96v-96h-634v96h379v1076h-373v96h503v-1172h125z" />
<glyph unicode="&#x5d2;" horiz-adv-x="647" d="M426 1268l140 -1268h-126l-34 305q-11 -124 -94 -214.5t-214 -90.5h-49v122h54q81 1 140 43t88 110.5t39 147t2 161.5l-62 588h-166v96h282z" />
<glyph unicode="&#x5d3;" horiz-adv-x="788" d="M459 0v1172h-413v96h668v-96h-120v-1172h-135z" />
<glyph unicode="&#x5d4;" horiz-adv-x="898" d="M135 0v783h133v-783h-133zM135 1268h623v-1268h-132v1172h-491v96z" />
<glyph unicode="&#x5d5;" horiz-adv-x="462" d="M164 1268h133v-1268h-133v1268z" />
<glyph unicode="&#x5d6;" horiz-adv-x="663" d="M353 0q-59 324 -100 542q-19 101 -27.5 186t-5.5 171t27.5 155.5t69.5 117.5h-254v96h539v-96h-170q-56 -62 -75.5 -163.5t-10.5 -205.5t38 -242l113 -561h-144z" />
<glyph unicode="&#x5d7;" horiz-adv-x="957" d="M144 1268h308q73 0 129 -14t95 -37t66.5 -63t43 -81t24 -103t11 -116.5t2.5 -133.5v-720h-133v826q0 170 -60 258t-191 88h-161v-1172h-134v1268z" />
<glyph unicode="&#x5d8;" horiz-adv-x="946" d="M812 1268v-852q0 -109 -20 -184.5t-67 -129t-126 -78t-195 -24.5h-202l-100 1268h139l91 -1172h99q90 0 141.5 29t80 110.5t28.5 227.5v709h-209v96h340z" />
<glyph unicode="&#x5d9;" horiz-adv-x="444" d="M156 1268h131v-668h-131v668z" />
<glyph unicode="&#x5da;" horiz-adv-x="667" d="M515 1268v-1579h-136v1483h-344v96h480z" />
<glyph unicode="&#x5db;" horiz-adv-x="719" d="M68 1268h185q105 0 173.5 -27.5t108.5 -90t55.5 -150.5t15.5 -222v-290q0 -134 -15.5 -222t-55.5 -150t-108.5 -89t-173.5 -27h-182v96h212q189 0 189 339v396q0 341 -189 341h-215v96z" />
<glyph unicode="&#x5dc;" horiz-adv-x="736" d="M654 1268l-302 -1268h-131l271 1172h-428v356h121v-260h469z" />
<glyph unicode="&#x5dd;" horiz-adv-x="890" d="M768 856v-856h-621v1268h297q116 0 184.5 -36.5t104 -127t35.5 -248.5zM638 96v862q0 120 -53.5 167t-142.5 47h-163v-1076h359z" />
<glyph unicode="&#x5de;" horiz-adv-x="938" d="M453 0v96h221v778q0 152 -51.5 225t-169.5 73h-69l-159 -1172h-141l170 1172h-166v96h363q104 0 174 -30.5t110 -95t56.5 -152t16.5 -213.5v-777h-355z" />
<glyph unicode="&#x5df;" horiz-adv-x="465" d="M166 1268h136v-1579h-136v1579z" />
<glyph unicode="&#x5e0;" horiz-adv-x="581" d="M49 96h101q87 0 116 47t29 156v873h-166v96h299v-911q0 -73 -5.5 -125t-21 -98t-42 -74t-70 -44t-103.5 -16h-137v96z" />
<glyph unicode="&#x5e1;" horiz-adv-x="939" d="M104 1268h715v-815q0 -224 -104 -338.5t-331 -114.5h-175zM689 468v704h-448l97 -1076h88q127 0 195 95t68 277z" />
<glyph unicode="&#x5e2;" horiz-adv-x="859" d="M589 1268h130v-660v-31q0 -78 -0.5 -113.5t-5 -91.5t-13.5 -81t-26.5 -63.5t-43.5 -58t-65 -46.5t-90.5 -46.5t-121.5 -41.5l-310 -95l-31 94l261 81l-136 1153h126l131 -1112q55 19 89.5 41t56.5 47t32.5 66.5t13.5 84t3 115.5v758z" />
<glyph unicode="&#x5e3;" horiz-adv-x="867" d="M751 813v-1124h-134v1196q0 73 -13.5 126.5t-34 83.5t-52.5 48t-62 23.5t-69 5.5h-130v-616h-131v712h247q214 0 296.5 -98.5t82.5 -356.5z" />
<glyph unicode="&#x5e4;" horiz-adv-x="881" d="M136 1268h252q209 0 291.5 -105.5t82.5 -364.5v-340q0 -257 -81.5 -357.5t-292.5 -100.5h-250v96h260q119 0 174.5 78t55.5 261v379q0 196 -50 277t-160 81h-152v-558h-130v654z" />
<glyph unicode="&#x5e5;" horiz-adv-x="799" d="M558 1268h130v-396q0 -205 -86.5 -308t-287.5 -110l101 -765h-127l-213 1579h121l106 -719q128 2 192 64.5t64 209.5v445z" />
<glyph unicode="&#x5e6;" horiz-adv-x="904" d="M89 0v96h509l-525 1172h142l280 -634q89 5 125 48.5t36 143.5v442h131v-429q0 -83 -16 -139.5t-51 -89t-78 -49t-108 -25.5l250 -536h-695z" />
<glyph unicode="&#x5e7;" horiz-adv-x="904" d="M140 -311v1119h132v-1119h-132zM140 1268h648v-753q0 -65 -2.5 -116.5t-10.5 -107t-21.5 -96.5t-36 -79.5t-54 -62.5t-76 -38.5t-100.5 -14.5h-49v96h51q47 0 80.5 26.5t51.5 76t26 110.5t8 140v723h-515v96z" />
<glyph unicode="&#x5e8;" horiz-adv-x="767" d="M67 1268h231q57 0 102.5 -9.5t79.5 -22.5t60 -42t43 -51.5t28.5 -68t17.5 -75.5t9 -90t3.5 -94.5t0.5 -104.5v-710h-135v824q0 47 -1 78.5t-6 71.5t-14 66t-25.5 53t-40 43t-58 26t-79.5 10h-216v96z" />
<glyph unicode="&#x5e9;" horiz-adv-x="1105" d="M863 1268h132v-728q0 -136 -20.5 -233.5t-55.5 -156.5t-93.5 -93t-121.5 -45.5t-152 -11.5h-354l-106 1268h136l104 -1172h209q64 0 107.5 7t87.5 30.5t69.5 66t41.5 116t16 178.5v774zM635 1268v-791h-134v791h134z" />
<glyph unicode="&#x5ea;" horiz-adv-x="918" d="M93 1268h350q73 0 129 -15t93.5 -36t63 -64.5t39 -80t20 -104.5t8 -115t1.5 -133v-720h-132v811q0 200 -44 280.5t-163 80.5h-113v-1172h-327v96h197v1076h-122v96z" />
<glyph unicode="&#x2000;" horiz-adv-x="823" />
<glyph unicode="&#x2001;" horiz-adv-x="1647" />
<glyph unicode="&#x2002;" horiz-adv-x="823" />
<glyph unicode="&#x2003;" horiz-adv-x="1647" />
<glyph unicode="&#x2004;" horiz-adv-x="549" />
<glyph unicode="&#x2005;" horiz-adv-x="411" />
<glyph unicode="&#x2006;" horiz-adv-x="274" />
<glyph unicode="&#x2007;" horiz-adv-x="274" />
<glyph unicode="&#x2008;" horiz-adv-x="205" />
<glyph unicode="&#x2009;" horiz-adv-x="329" />
<glyph unicode="&#x200a;" horiz-adv-x="91" />
<glyph unicode="&#x2010;" horiz-adv-x="642" d="M82 683h498v-95h-498v95z" />
<glyph unicode="&#x2011;" horiz-adv-x="642" d="M82 683h498v-95h-498v95z" />
<glyph unicode="&#x2012;" horiz-adv-x="642" d="M82 683h498v-95h-498v95z" />
<glyph unicode="&#x2013;" horiz-adv-x="943" d="M63 671h820v-74h-820v74z" />
<glyph unicode="&#x2014;" horiz-adv-x="1601" d="M44 671h1515v-73h-1515v73z" />
<glyph unicode="&#x2018;" horiz-adv-x="402" d="M64 958l109 481h121v-126l-168 -355h-62z" />
<glyph unicode="&#x2019;" horiz-adv-x="387" d="M64 958l109 481h121v-126l-168 -355h-62z" />
<glyph unicode="&#x201a;" horiz-adv-x="394" d="M64 958l109 481h121v-126l-168 -355h-62z" />
<glyph unicode="&#x201c;" horiz-adv-x="573" d="M33 964l97 474h107v-124l-149 -350h-55zM314 964l97 474h107v-124l-149 -350h-55z" />
<glyph unicode="&#x201d;" horiz-adv-x="577" d="M33 964l97 474h107v-124l-149 -350h-55zM314 964l97 474h107v-124l-149 -350h-55z" />
<glyph unicode="&#x201e;" horiz-adv-x="573" d="M33 964l97 474h107v-124l-149 -350h-55zM314 964l97 474h107v-124l-149 -350h-55z" />
<glyph unicode="&#x2026;" horiz-adv-x="1383" d="M333 0h-209v224h209v-224zM789 0h-209v224h209v-224zM1232 0h-209v224h209v-224z" />
<glyph unicode="&#x202f;" horiz-adv-x="329" />
<glyph unicode="&#x205f;" horiz-adv-x="411" />
<glyph unicode="&#x20aa;" horiz-adv-x="1181" d="M798 721v-340h-135v325q0 46 -1.5 73t-9.5 60t-22.5 50.5t-42.5 30t-68 13.5h-262v-933h-134v1027h381q88 0 146.5 -20.5t90.5 -62t44.5 -94.5t12.5 -129zM709 0h-310v646h133v-550h180q107 0 154.5 54.5t47.5 189.5v687h136v-691q0 -179 -85.5 -257.5t-255.5 -78.5z" />
<glyph unicode="&#xe000;" horiz-adv-x="500" d="M0 0z" />
<glyph unicode="&#xfb1d;" horiz-adv-x="549" d="M221 1268h131v-668h-131v668zM-71 692q0 30 21.5 51t51.5 21q31 0 52.5 -21t21.5 -51q0 -32 -21.5 -53.5t-52.5 -21.5q-30 0 -51.5 21.5t-21.5 53.5z" />
<glyph unicode="&#xfb2a;" horiz-adv-x="1121" d="M865 1268h132v-728q0 -136 -20.5 -233.5t-55.5 -156.5t-93.5 -93t-121.5 -45.5t-152 -11.5h-354l-106 1268h136l104 -1172h209q64 0 107.5 7t87.5 30.5t69.5 66t41.5 116t16 178.5v774zM637 1268v-791h-134v791h134zM840 1457q0 23 16.5 39.5t39.5 16.5q24 0 41 -16.5 t17 -39.5q0 -25 -17 -41.5t-41 -16.5q-23 0 -39.5 17t-16.5 41z" />
<glyph unicode="&#xfb2b;" horiz-adv-x="1082" d="M851 1268h132v-728q0 -136 -20.5 -233.5t-55.5 -156.5t-93.5 -93t-121.5 -45.5t-152 -11.5h-354l-106 1268h136l104 -1172h209q64 0 107.5 7t87.5 30.5t69.5 66t41.5 116t16 178.5v774zM623 1268v-791h-134v791h134zM117 1447q0 23 16.5 39.5t39.5 16.5q24 0 41 -16.5 t17 -39.5q0 -25 -17 -41.5t-41 -16.5q-23 0 -39.5 17t-16.5 41z" />
<glyph unicode="&#xfb2c;" horiz-adv-x="1128" d="M525 281q0 25 18 42.5t42 17.5q26 0 44 -17.5t18 -42.5q0 -26 -18 -44t-44 -18q-24 0 -42 18t-18 44zM875 1268h132v-728q0 -136 -20.5 -233.5t-55.5 -156.5t-93.5 -93t-121.5 -45.5t-152 -11.5h-354l-106 1268h136l104 -1172h209q64 0 107.5 7t87.5 30.5t69.5 66 t41.5 116t16 178.5v774zM647 1268v-791h-134v791h134zM869 1430q0 23 16.5 39.5t39.5 16.5q24 0 41 -16.5t17 -39.5q0 -25 -17 -41.5t-41 -16.5q-23 0 -39.5 17t-16.5 41z" />
<glyph unicode="&#xfb2d;" horiz-adv-x="1089" d="M81 1447q0 23 16.5 39.5t39.5 16.5q24 0 41 -16.5t17 -39.5q0 -25 -17 -41.5t-41 -16.5q-23 0 -39.5 17t-16.5 41zM858 1268h132v-728q0 -136 -20.5 -233.5t-55.5 -156.5t-93.5 -93t-121.5 -45.5t-152 -11.5h-354l-106 1268h136l104 -1172h209q64 0 107.5 7t87.5 30.5 t69.5 66t41.5 116t16 178.5v774zM630 1268v-791h-134v791h134zM525 281q0 25 18 42.5t42 17.5q26 0 44 -17.5t18 -42.5q0 -26 -18 -44t-44 -18q-24 0 -42 18t-18 44z" />
<glyph unicode="&#xfb31;" horiz-adv-x="825" d="M755 96v-96h-634v96h379v1076h-373v96h503v-1172h125zM182 638q0 25 18 43.5t43 18.5q26 0 45 -18.5t19 -43.5q0 -27 -18.5 -45t-45.5 -18q-25 0 -43 18t-18 45z" />
<glyph unicode="&#xfb32;" horiz-adv-x="663" d="M420 1268l140 -1268h-126l-34 305q-11 -124 -94 -214.5t-214 -90.5h-49v122h54q81 1 140 43t88 110.5t39 147t2 161.5l-62 588h-166v96h282zM92 638q0 25 18 43.5t43 18.5q26 0 45 -18.5t19 -43.5q0 -27 -18.5 -45t-45.5 -18q-25 0 -43 18t-18 45z" />
<glyph unicode="&#xfb33;" horiz-adv-x="837" d="M499 0v1172h-413v96h668v-96h-120v-1172h-135zM182 638q0 25 18 43.5t43 18.5q26 0 45 -18.5t19 -43.5q0 -27 -18.5 -45t-45.5 -18q-25 0 -43 18t-18 45z" />
<glyph unicode="&#xfb34;" horiz-adv-x="948" d="M166 0v783h133v-783h-133zM166 1268h623v-1268h-132v1172h-491v96zM380 909q0 25 18 43.5t43 18.5q26 0 45 -18.5t19 -43.5q0 -27 -18.5 -45t-45.5 -18q-25 0 -43 18t-18 45z" />
<glyph unicode="&#xfb35;" horiz-adv-x="556" d="M219 1268h133v-1268h-133v1268zM19 638q0 25 18 43.5t43 18.5q26 0 45 -18.5t19 -43.5q0 -27 -18.5 -45t-45.5 -18q-25 0 -43 18t-18 45z" />
<glyph unicode="&#xfb36;" horiz-adv-x="683" d="M363 0q-59 324 -100 542q-19 101 -27.5 186t-5.5 171t27.5 155.5t69.5 117.5h-254v96h539v-96h-170q-56 -62 -75.5 -163.5t-10.5 -205.5t38 -242l113 -561h-144zM23 638q0 25 18 43.5t43 18.5q26 0 45 -18.5t19 -43.5q0 -27 -18.5 -45t-45.5 -18q-25 0 -43 18t-18 45z " />
<glyph unicode="&#xfb38;" horiz-adv-x="935" d="M818 1268v-852q0 -109 -20 -184.5t-67 -129t-126 -78t-195 -24.5h-202l-100 1268h139l91 -1172h99q90 0 141.5 29t80 110.5t28.5 227.5v709h-209v96h340zM434 744q0 25 18 43.5t43 18.5q26 0 45 -18.5t19 -43.5q0 -27 -18.5 -45t-45.5 -18q-25 0 -43 18t-18 45z" />
<glyph unicode="&#xfb39;" horiz-adv-x="568" d="M241 1268h131v-668h-131v668zM11 668q0 25 18 43.5t43 18.5q26 0 45 -18.5t19 -43.5q0 -27 -18.5 -45t-45.5 -18q-25 0 -43 18t-18 45z" />
<glyph unicode="&#xfb3a;" horiz-adv-x="712" d="M520 1268v-1579h-136v1483h-344v96h480zM80 638q0 25 18 43.5t43 18.5q26 0 45 -18.5t19 -43.5q0 -27 -18.5 -45t-45.5 -18q-25 0 -43 18t-18 45z" />
<glyph unicode="&#xfb3b;" horiz-adv-x="703" d="M54 1268h185q105 0 173.5 -27.5t108.5 -90t55.5 -150.5t15.5 -222v-290q0 -134 -15.5 -222t-55.5 -150t-108.5 -89t-173.5 -27h-182v96h212q189 0 189 339v396q0 341 -189 341h-215v96zM154 638q0 25 18 43.5t43 18.5q26 0 45 -18.5t19 -43.5q0 -27 -18.5 -45t-45.5 -18 q-25 0 -43 18t-18 45z" />
<glyph unicode="&#xfb3c;" horiz-adv-x="739" d="M649 1268l-302 -1268h-131l271 1172h-428v356h121v-260h469zM111 780q0 25 18 43.5t43 18.5q26 0 45 -18.5t19 -43.5q0 -27 -18.5 -45t-45.5 -18q-25 0 -43 18t-18 45z" />
<glyph unicode="&#xfb3e;" horiz-adv-x="906" d="M441 0v96h221v778q0 152 -51.5 225t-169.5 73h-69l-159 -1172h-141l170 1172h-166v96h363q104 0 174 -30.5t110 -95t56.5 -152t16.5 -213.5v-777h-355zM395 499q0 25 18 43.5t43 18.5q26 0 45 -18.5t19 -43.5q0 -27 -18.5 -45t-45.5 -18q-25 0 -43 18t-18 45z" />
<glyph unicode="&#xfb40;" horiz-adv-x="647" d="M61 96h101q87 0 116 47t29 156v873h-166v96h299v-911q0 -73 -5.5 -125t-21 -98t-42 -74t-70 -44t-103.5 -16h-137v96zM52 630q0 25 18 43.5t43 18.5q26 0 45 -18.5t19 -43.5q0 -27 -18.5 -45t-45.5 -18q-25 0 -43 18t-18 45z" />
<glyph unicode="&#xfb41;" horiz-adv-x="948" d="M90 1268h715v-815q0 -224 -104 -338.5t-331 -114.5h-175zM675 468v704h-448l97 -1076h88q127 0 195 95t68 277zM412 638q0 25 18 43.5t43 18.5q26 0 45 -18.5t19 -43.5q0 -27 -18.5 -45t-45.5 -18q-25 0 -43 18t-18 45z" />
<glyph unicode="&#xfb44;" horiz-adv-x="879" d="M41 1268h252q209 0 291.5 -105.5t82.5 -364.5v-340q0 -257 -81.5 -357.5t-292.5 -100.5h-250v96h260q119 0 174.5 78t55.5 261v379q0 196 -50 277t-160 81h-152v-558h-130v654zM286 634q0 25 18 43.5t43 18.5q26 0 45 -18.5t19 -43.5q0 -27 -18.5 -45t-45.5 -18 q-25 0 -43 18t-18 45z" />
<glyph unicode="&#xfb46;" horiz-adv-x="906" d="M100 0v96h509l-525 1172h142l280 -634q89 5 125 48.5t36 143.5v442h131v-429q0 -83 -16 -139.5t-51 -89t-78 -49t-108 -25.5l250 -536h-695zM179 405q0 25 18 43.5t43 18.5q26 0 45 -18.5t19 -43.5q0 -27 -18.5 -45t-45.5 -18q-25 0 -43 18t-18 45z" />
<glyph unicode="&#xfb47;" horiz-adv-x="918" d="M91 -311v1119h132v-1119h-132zM91 1268h648v-753q0 -65 -2.5 -116.5t-10.5 -107t-21.5 -96.5t-36 -79.5t-54 -62.5t-76 -38.5t-100.5 -14.5h-49v96h51q47 0 80.5 26.5t51.5 76t26 110.5t8 140v723h-515v96zM412 913q0 25 18 43.5t43 18.5q26 0 45 -18.5t19 -43.5 q0 -27 -18.5 -45t-45.5 -18q-25 0 -43 18t-18 45z" />
<glyph unicode="&#xfb49;" horiz-adv-x="1107" d="M870 1268h132v-728q0 -136 -20.5 -233.5t-55.5 -156.5t-93.5 -93t-121.5 -45.5t-152 -11.5h-354l-106 1268h136l104 -1172h209q64 0 107.5 7t87.5 30.5t69.5 66t41.5 116t16 178.5v774zM642 1268v-791h-134v791h134zM505 278q0 25 18 43.5t43 18.5q26 0 45 -18.5 t19 -43.5q0 -27 -18.5 -45t-45.5 -18q-25 0 -43 18t-18 45z" />
<glyph unicode="&#xfb4a;" horiz-adv-x="989" d="M157 1268h350q73 0 129 -15t93.5 -36t63 -64.5t39 -80t20 -104.5t8 -115t1.5 -133v-720h-132v811q0 200 -44 280.5t-163 80.5h-113v-1172h-327v96h197v1076h-122v96zM503 638q0 25 18 43.5t43 18.5q26 0 45 -18.5t19 -43.5q0 -27 -18.5 -45t-45.5 -18q-25 0 -43 18 t-18 45z" />
<glyph unicode="&#xfb4b;" horiz-adv-x="521" d="M187 1268v-1268h133v1268h-133zM201 1514q0 30 21 50.5t51 20.5t51.5 -20.5t21.5 -50.5q0 -31 -21.5 -52.5t-51.5 -21.5t-51 21.5t-21 52.5z" />
</font>
</defs>
</svg>
